<svg xmlns="http://www.w3.org/2000/svg" width="76.614" height="75.426" viewBox="0 0 76.614 75.426">
  <g id="Layer_2" data-name="Layer 2" transform="translate(-1.288 -1.288)">
    <g id="Group_1350" data-name="Group 1350" transform="translate(1.288 1.288)">
      <g id="Group_1353" data-name="Group 1353" transform="translate(4 4)">
        <rect id="Rectangle_650" data-name="Rectangle 650" width="19.187" height="6.78" rx="3" transform="translate(0 13.579) rotate(-45)" fill="#a9d1f4"/>
        <rect id="Rectangle_651" data-name="Rectangle 651" width="6.78" height="19.187" rx="3" transform="translate(54.253 4.794) rotate(-45)" fill="#a9d1f4"/>
        <path id="Path_3852" data-name="Path 3852" d="M58.239,31.133A27.119,27.119,0,1,0,13.594,51.811S8.675,61.8,8.25,62.54a.793.793,0,0,0,.232,1.129l4.66,2.516a.782.782,0,0,0,1.035-.443c.374-.745,5.179-10.237,5.179-10.237a26.78,26.78,0,0,0,23.729,0s4.438,8.783,4.985,9.875,1.276.608,1.276.608l4.578-2.353s.68-.274.224-1.156l-5.5-10.669a27.119,27.119,0,0,0,9.593-20.678Zm-23.1,8.8c-.376-.39-7.21-7.214-7.21-7.214s-.178-.016-.186-.692-.008-13.2.009-13.84.377-.616.377-.616h5.9s.5-.12.528.616c0,0-.047,10.9-.039,11.237a.819.819,0,0,0,.34.564s4.841,4.9,5.179,5.266,0,.554,0,.554L35.77,40.041S35.513,40.324,35.137,39.934Z" transform="translate(5.191 5.179)" fill="#a9d1f4"/>
      </g>
      <g id="Group_1352" data-name="Group 1352">
        <rect id="Rectangle_650-2" data-name="Rectangle 650" width="19.187" height="6.78" rx="3" transform="translate(0 13.579) rotate(-45)" fill="#0c60a9"/>
        <rect id="Rectangle_651-2" data-name="Rectangle 651" width="6.78" height="19.187" rx="3" transform="translate(54.253 4.794) rotate(-45)" fill="#0c60a9"/>
        <path id="Path_3852-2" data-name="Path 3852" d="M58.239,31.133A27.119,27.119,0,1,0,13.594,51.811S8.675,61.8,8.25,62.54a.793.793,0,0,0,.232,1.129l4.66,2.516a.782.782,0,0,0,1.035-.443c.374-.745,5.179-10.237,5.179-10.237a26.78,26.78,0,0,0,23.729,0s4.438,8.783,4.985,9.875,1.276.608,1.276.608l4.578-2.353s.68-.274.224-1.156l-5.5-10.669a27.119,27.119,0,0,0,9.593-20.678Zm-23.1,8.8c-.376-.39-7.21-7.214-7.21-7.214s-.178-.016-.186-.692-.008-13.2.009-13.84.377-.616.377-.616h5.9s.5-.12.528.616c0,0-.047,10.9-.039,11.237a.819.819,0,0,0,.34.564s4.841,4.9,5.179,5.266,0,.554,0,.554L35.77,40.041S35.513,40.324,35.137,39.934Z" transform="translate(5.191 5.179)" fill="#0c60a9"/>
      </g>
    </g>
  </g>
</svg>
