<svg xmlns="http://www.w3.org/2000/svg" width="60.45" height="95.191" viewBox="0 0 60.45 95.191">
  <g id="FPovi1.tif" transform="translate(-181.768 -621.879)">
    <g id="Group_1467" data-name="Group 1467" transform="translate(184.768 625.879)">
      <path id="Path_3965" data-name="Path 3965" d="M278.068,723.915V741.91H249.128V731.332h-6.611c0-2.505-.046-4.854.046-7.2.015-.382.581-.833.992-1.094,5.444-3.462,8.542-8.425,8.855-14.833a46.361,46.361,0,0,0-.929-8.829c-.532-3.633-1.212-7.244-1.866-11.082h-6.873c-.552-5.146,3.156-9.825,9.487-12.139v-9.347h16.032v9.238c9.4,3.4,10.459,9.586,9.771,17.529H260.453v30.337Z" transform="translate(-220.752 -650.718)" fill="#d6ccfe"/>
      <path id="Path_3966" data-name="Path 3966" d="M197.691,768.476v16.274h6.916v5.3H185.2v-5.189h6.936V768.425a2.845,2.845,0,0,0-.549-.308c-7.025-2.264-10.589-7.667-9.685-14.984.465-3.759,1.211-7.482,1.838-11.276h22.408c.535,5.009,2.405,9.859,1.868,14.941-.6,5.69-3.934,9.388-9.338,11.216-.224.076-.456.131-.674.22A1.652,1.652,0,0,0,197.691,768.476Z" transform="translate(-181.768 -698.886)" fill="#d6ccfe"/>
      <path id="Path_3967" data-name="Path 3967" d="M307.471,756.9h12.266v19.39H307.471Z" transform="translate(-262.449 -708.538)" fill="#d6ccfe"/>
      <path id="Path_3968" data-name="Path 3968" d="M285.926,632.434H270.16V621.879h15.766Z" transform="translate(-238.501 -621.879)" fill="#d6ccfe"/>
    </g>
    <g id="Group_1465" data-name="Group 1465" transform="translate(181.768 621.879)">
      <path id="Path_3965-2" data-name="Path 3965" d="M278.068,723.915V741.91H249.128V731.332h-6.611c0-2.505-.046-4.854.046-7.2.015-.382.581-.833.992-1.094,5.444-3.462,8.542-8.425,8.855-14.833a46.361,46.361,0,0,0-.929-8.829c-.532-3.633-1.212-7.244-1.866-11.082h-6.873c-.552-5.146,3.156-9.825,9.487-12.139v-9.347h16.032v9.238c9.4,3.4,10.459,9.586,9.771,17.529H260.453v30.337Z" transform="translate(-220.752 -650.718)" fill="#5c4897"/>
      <path id="Path_3966-2" data-name="Path 3966" d="M197.691,768.476v16.274h6.916v5.3H185.2v-5.189h6.936V768.425a2.845,2.845,0,0,0-.549-.308c-7.025-2.264-10.589-7.667-9.685-14.984.465-3.759,1.211-7.482,1.838-11.276h22.408c.535,5.009,2.405,9.859,1.868,14.941-.6,5.69-3.934,9.388-9.338,11.216-.224.076-.456.131-.674.22A1.652,1.652,0,0,0,197.691,768.476Z" transform="translate(-181.768 -698.886)" fill="#5c4897"/>
      <path id="Path_3967-2" data-name="Path 3967" d="M307.471,756.9h12.266v19.39H307.471Z" transform="translate(-262.449 -708.538)" fill="#5c4897"/>
      <path id="Path_3968-2" data-name="Path 3968" d="M285.926,632.434H270.16V621.879h15.766Z" transform="translate(-238.501 -621.879)" fill="#5c4897"/>
    </g>
  </g>
</svg>
