<svg xmlns="http://www.w3.org/2000/svg" width="76" height="78.189" viewBox="0 0 76 78.189">
  <g id="Group_1571" data-name="Group 1571" transform="translate(768.398 684.714)">
    <g id="Group_1573" data-name="Group 1573" transform="translate(-767.44 -681.612)">
      <path id="Path_4065" data-name="Path 4065" d="M-724.508-540.868c-2.417-.268-4.516-.587-6.627-.709-2-.115-4.005-.074-6.005-.012a9.326,9.326,0,0,0-9.035,11.644c.051.235.059.479.1.795-.417.027-.8.073-1.177.073q-9.084.007-18.169,0c-2.123,0-2.981-.813-2.954-2.892.052-4.1-.205-8.24.319-12.279A15.2,15.2,0,0,1-753.1-557.2c8.6-.065,17.192-.089,25.787.017,4.983.061,8.951,2.318,12.222,6.45C-721.128-549.855-722.425-544.781-724.508-540.868Z" transform="translate(768.398 594.731)" fill="#d6ccfe"/>
      <path id="Path_4066" data-name="Path 4066" d="M-725.735-669.124a15.585,15.585,0,0,1,15.682-15.59,15.584,15.584,0,0,1,15.526,15.6,15.634,15.634,0,0,1-15.609,15.685A15.637,15.637,0,0,1-725.735-669.124Z" transform="translate(738.279 684.714)" fill="#d6ccfe"/>
      <path id="Path_4067" data-name="Path 4067" d="M-645.862-504.836c-2.171,4.348-4.258,8.537-6.353,12.722-1.7,3.4-4.284,3.556-6.4.4-1.384-2.069-2.789-4.125-4.128-6.223a1.774,1.774,0,0,0-1.761-.962c-1.609.069-3.223.043-4.835.013a3.149,3.149,0,0,1-3.322-3.148,3.1,3.1,0,0,1,3.377-3.071c2.442-.03,4.885.014,7.326-.015a3.368,3.368,0,0,1,3.049,1.675c.955,1.465,1.937,2.912,3.014,4.526.328-.6.585-1.038.812-1.49q2.98-5.954,5.948-11.913a3.292,3.292,0,0,1,2.878-2.156,3.322,3.322,0,0,1,3.158,1.964c2.415,4.072,4.914,8.093,7.264,12.2a2.455,2.455,0,0,0,2.652,1.453,40.847,40.847,0,0,1,4.1-.018,3.148,3.148,0,0,1,3.311,3.158,3.077,3.077,0,0,1-3.242,3.057c-2.442.041-4.885-.02-7.326.023a3.51,3.51,0,0,1-3.33-1.95c-1.751-2.989-3.559-5.945-5.347-8.913C-645.257-503.911-645.521-504.3-645.862-504.836Z" transform="translate(700.809 564.54)" fill="#d6ccfe"/>
    </g>
    <g id="Group_1572" data-name="Group 1572" transform="translate(-768.398 -684.714)">
      <path id="Path_4065-2" data-name="Path 4065" d="M-724.508-540.868c-2.417-.268-4.516-.587-6.627-.709-2-.115-4.005-.074-6.005-.012a9.326,9.326,0,0,0-9.035,11.644c.051.235.059.479.1.795-.417.027-.8.073-1.177.073q-9.084.007-18.169,0c-2.123,0-2.981-.813-2.954-2.892.052-4.1-.205-8.24.319-12.279A15.2,15.2,0,0,1-753.1-557.2c8.6-.065,17.192-.089,25.787.017,4.983.061,8.951,2.318,12.222,6.45C-721.128-549.855-722.425-544.781-724.508-540.868Z" transform="translate(768.398 594.731)" fill="#5c4897"/>
      <path id="Path_4066-2" data-name="Path 4066" d="M-725.735-669.124a15.585,15.585,0,0,1,15.682-15.59,15.584,15.584,0,0,1,15.526,15.6,15.634,15.634,0,0,1-15.609,15.685A15.637,15.637,0,0,1-725.735-669.124Z" transform="translate(738.279 684.714)" fill="#5c4897"/>
      <path id="Path_4067-2" data-name="Path 4067" d="M-645.862-504.836c-2.171,4.348-4.258,8.537-6.353,12.722-1.7,3.4-4.284,3.556-6.4.4-1.384-2.069-2.789-4.125-4.128-6.223a1.774,1.774,0,0,0-1.761-.962c-1.609.069-3.223.043-4.835.013a3.149,3.149,0,0,1-3.322-3.148,3.1,3.1,0,0,1,3.377-3.071c2.442-.03,4.885.014,7.326-.015a3.368,3.368,0,0,1,3.049,1.675c.955,1.465,1.937,2.912,3.014,4.526.328-.6.585-1.038.812-1.49q2.98-5.954,5.948-11.913a3.292,3.292,0,0,1,2.878-2.156,3.322,3.322,0,0,1,3.158,1.964c2.415,4.072,4.914,8.093,7.264,12.2a2.455,2.455,0,0,0,2.652,1.453,40.847,40.847,0,0,1,4.1-.018,3.148,3.148,0,0,1,3.311,3.158,3.077,3.077,0,0,1-3.242,3.057c-2.442.041-4.885-.02-7.326.023a3.51,3.51,0,0,1-3.33-1.95c-1.751-2.989-3.559-5.945-5.347-8.913C-645.257-503.911-645.521-504.3-645.862-504.836Z" transform="translate(700.809 564.54)" fill="#5c4897"/>
    </g>
  </g>
</svg>
