<svg xmlns="http://www.w3.org/2000/svg" width="76.398" height="46.649" viewBox="0 0 76.398 46.649">
  <g id="Group_1373" data-name="Group 1373" transform="translate(-352.665 -1094.874)">
    <g id="Group_1375" data-name="Group 1375" transform="translate(355.384 1097.807)">
      <path id="Path_3885" data-name="Path 3885" d="M377.035,1124.357c0,1.328-.006,2.613,0,3.9a4.632,4.632,0,0,0,1.936,3.959,4.917,4.917,0,0,0,2.982.859q20.525.007,41.049,0a4.94,4.94,0,0,0,3.34-1.129,18.926,18.926,0,0,1-.171,2.695c-.2.969-.983,1.435-2.125,1.457-.933.018-1.866,0-2.917,0,0,.412.016.785,0,1.155a1.268,1.268,0,0,1-1.318,1.319q-3.307.032-6.614,0a1.238,1.238,0,0,1-1.291-1.26c-.027-.375,0-.754,0-1.169H367.5c0,.387.019.762,0,1.134a1.243,1.243,0,0,1-1.26,1.292q-3.342.038-6.685,0a1.25,1.25,0,0,1-1.279-1.281c-.023-.355,0-.712,0-1.189-.846,0-1.65.008-2.452,0a9.812,9.812,0,0,1-1.5-.079,1.959,1.959,0,0,1-1.647-1.9c-.006-.1,0-.191,0-.287q0-18.348,0-36.7a2.037,2.037,0,0,1,2.833-2.08,1.923,1.923,0,0,1,1.224,1.862c.011,1.317.009,2.633.009,3.95,0,4.38.016,8.761-.016,13.142a1.282,1.282,0,0,0,.815,1.367q8.233,4.14,16.423,8.366a4.249,4.249,0,0,0,2.461.581A3.746,3.746,0,0,1,377.035,1124.357Z" transform="translate(-352.665 -1094.874)" fill="#d6ccff"/>
      <path id="Path_3886" data-name="Path 3886" d="M545.05,1195.2q1.107,1.714,2.214,3.428a4.853,4.853,0,0,0,5.072,2.21c3.488-.716,6.971-1.46,10.438-2.267a5.132,5.132,0,0,0,4.071-5.414,5.036,5.036,0,0,0-4.852-4.7,18.161,18.161,0,0,0-3.74.584c-1.734.345-3.456.748-5.186,1.116a.871.871,0,0,1-.54-.006c-1.736-.954-3.461-1.929-5.211-2.911a19.089,19.089,0,0,1,3.213-5.119,2.994,2.994,0,0,1,1.755-.588,52.622,52.622,0,0,1,13.453.472,139.107,139.107,0,0,1,17.133,3.806,9.4,9.4,0,0,1,6.908,10.884c-.327,1.858-.61,3.725-.905,5.589-.175,1.109-.6,1.492-1.715,1.492q-20.524,0-41.047,0c-1.176,0-1.706-.484-1.671-1.645.069-2.3.193-4.607.295-6.91Z" transform="translate(-516.814 -1168.839)" fill="#d6ccff"/>
      <path id="Path_3887" data-name="Path 3887" d="M496.352,1176.809l-2,3.571c2.527,2.436,5,4.833,7.5,7.205a.991.991,0,0,0,.772.147c2.664-.566,5.322-1.16,7.982-1.747,2.186-.483,3.886.987,3.481,3.038a2.55,2.55,0,0,1-2.136,2.061c-2.214.5-4.435.971-6.652,1.455-.98.214-1.969.4-2.938.654a3.165,3.165,0,0,1-3.267-.9c-2.128-2.105-4.294-4.171-6.446-6.251-.188-.182-.383-.356-.47-.437-.07.534-.126,1.124-.229,1.705-.146.82-.328,1.635-.513,2.544-1.295-.516-2.595-.937-3.8-1.541a3.461,3.461,0,0,1-1.655-4.126c.762-2.259,1.594-4.5,2.512-6.7a3.531,3.531,0,0,1,4.362-1.952c.16.046.32.1.476.155C494.311,1176.05,495.294,1176.416,496.352,1176.809Z" transform="translate(-466.624 -1163.776)" fill="#d6ccff"/>
      <path id="Path_3888" data-name="Path 3888" d="M417.11,1168.9a5.448,5.448,0,1,1,5.423-5.478A5.521,5.521,0,0,1,417.11,1168.9Z" transform="translate(-403.132 -1148.912)" fill="#d6ccff"/>
    </g>
    <g id="Group_1374" data-name="Group 1374" transform="translate(352.665 1094.874)">
      <path id="Path_3885-2" data-name="Path 3885" d="M377.035,1124.357c0,1.328-.006,2.613,0,3.9a4.632,4.632,0,0,0,1.936,3.959,4.917,4.917,0,0,0,2.982.859q20.525.007,41.049,0a4.94,4.94,0,0,0,3.34-1.129,18.926,18.926,0,0,1-.171,2.695c-.2.969-.983,1.435-2.125,1.457-.933.018-1.866,0-2.917,0,0,.412.016.785,0,1.155a1.268,1.268,0,0,1-1.318,1.319q-3.307.032-6.614,0a1.238,1.238,0,0,1-1.291-1.26c-.027-.375,0-.754,0-1.169H367.5c0,.387.019.762,0,1.134a1.243,1.243,0,0,1-1.26,1.292q-3.342.038-6.685,0a1.25,1.25,0,0,1-1.279-1.281c-.023-.355,0-.712,0-1.189-.846,0-1.65.008-2.452,0a9.812,9.812,0,0,1-1.5-.079,1.959,1.959,0,0,1-1.647-1.9c-.006-.1,0-.191,0-.287q0-18.348,0-36.7a2.037,2.037,0,0,1,2.833-2.08,1.923,1.923,0,0,1,1.224,1.862c.011,1.317.009,2.633.009,3.95,0,4.38.016,8.761-.016,13.142a1.282,1.282,0,0,0,.815,1.367q8.233,4.14,16.423,8.366a4.249,4.249,0,0,0,2.461.581A3.746,3.746,0,0,1,377.035,1124.357Z" transform="translate(-352.665 -1094.874)" fill="#5c4897"/>
      <path id="Path_3886-2" data-name="Path 3886" d="M545.05,1195.2q1.107,1.714,2.214,3.428a4.853,4.853,0,0,0,5.072,2.21c3.488-.716,6.971-1.46,10.438-2.267a5.132,5.132,0,0,0,4.071-5.414,5.036,5.036,0,0,0-4.852-4.7,18.161,18.161,0,0,0-3.74.584c-1.734.345-3.456.748-5.186,1.116a.871.871,0,0,1-.54-.006c-1.736-.954-3.461-1.929-5.211-2.911a19.089,19.089,0,0,1,3.213-5.119,2.994,2.994,0,0,1,1.755-.588,52.622,52.622,0,0,1,13.453.472,139.107,139.107,0,0,1,17.133,3.806,9.4,9.4,0,0,1,6.908,10.884c-.327,1.858-.61,3.725-.905,5.589-.175,1.109-.6,1.492-1.715,1.492q-20.524,0-41.047,0c-1.176,0-1.706-.484-1.671-1.645.069-2.3.193-4.607.295-6.91Z" transform="translate(-516.814 -1168.839)" fill="#5c4897"/>
      <path id="Path_3887-2" data-name="Path 3887" d="M496.352,1176.809l-2,3.571c2.527,2.436,5,4.833,7.5,7.205a.991.991,0,0,0,.772.147c2.664-.566,5.322-1.16,7.982-1.747,2.186-.483,3.886.987,3.481,3.038a2.55,2.55,0,0,1-2.136,2.061c-2.214.5-4.435.971-6.652,1.455-.98.214-1.969.4-2.938.654a3.165,3.165,0,0,1-3.267-.9c-2.128-2.105-4.294-4.171-6.446-6.251-.188-.182-.383-.356-.47-.437-.07.534-.126,1.124-.229,1.705-.146.82-.328,1.635-.513,2.544-1.295-.516-2.595-.937-3.8-1.541a3.461,3.461,0,0,1-1.655-4.126c.762-2.259,1.594-4.5,2.512-6.7a3.531,3.531,0,0,1,4.362-1.952c.16.046.32.1.476.155C494.311,1176.05,495.294,1176.416,496.352,1176.809Z" transform="translate(-466.624 -1163.776)" fill="#5c4897"/>
      <path id="Path_3888-2" data-name="Path 3888" d="M417.11,1168.9a5.448,5.448,0,1,1,5.423-5.478A5.521,5.521,0,0,1,417.11,1168.9Z" transform="translate(-403.132 -1148.912)" fill="#5c4897"/>
    </g>
  </g>
</svg>
