<svg xmlns="http://www.w3.org/2000/svg" width="97.242" height="95.181" viewBox="0 0 97.242 95.181">
  <g id="Group_1479" data-name="Group 1479" transform="translate(-917.759 -5322)">
    <g id="Group_1478" data-name="Group 1478" transform="translate(6.103 4.358)">
      <path id="Path_3979" data-name="Path 3979" d="M349.207-145.1H278.739v.036H258.347c-1.951-13.907,9.508-25.534,20.392-26.227l5.871-.414h38.13l5.867.225a23.054,23.054,0,0,1,13.346,6.532C347.456-159.554,349.675-152.908,349.207-145.1Z" transform="translate(659.631 5557.891)" fill="#d6ccfe"/>
      <g id="Group_1475" data-name="Group 1475" transform="translate(1101.91 5394.982)">
        <path id="Path_3989" data-name="Path 3989" d="M-139.248-72.982a28.4,28.4,0,0,1,28.338,28.568,28.384,28.384,0,0,1-28.6,28.166,28.389,28.389,0,0,1-28.138-28.5A28.39,28.39,0,0,1-139.248-72.982Zm-18.6,12.967c-7.292,7.992-8.414,23.007,1.722,32.814,10.038,9.713,24.77,8.1,32.229,1.132Zm3.165-3.16,33.951,33.947c7.064-7.6,8.5-22.388-1.225-32.328C-131.738-71.558-146.726-70.453-154.679-63.175Z" transform="translate(0)" fill="#d6ccfe"/>
        <path id="Path_3990" data-name="Path 3990" d="M-115.672,12.787c.288.265.486.434.67.617,2.876,2.873,5.75,5.748,8.857,8.855-1.121,1.321-2.137,2.73-3.366,3.92a19.982,19.982,0,0,1-7.243,4.11c-.73.269-1.094.046-1.459-.59a11.928,11.928,0,0,1-1.231-8.376A20.64,20.64,0,0,1-115.672,12.787Z" transform="translate(-35.302 -63.146)" fill="#d6ccfe"/>
        <path id="Path_3991" data-name="Path 3991" d="M-105.015,63.222A20.668,20.668,0,0,0-94.037,54.9l6.394,6.385C-91.923,64.856-100.181,67.011-105.015,63.222Z" transform="translate(-46.114 -94.152)" fill="#d6ccfe"/>
        <path id="Path_3992" data-name="Path 3992" d="M-40.63,7.574c-2.932-2.954-5.806-5.829-8.638-8.746a1.191,1.191,0,0,1-.147-1.1C-47.15-6.383-43.522-8.733-39.121-10a1.258,1.258,0,0,1,1.051.634,22.666,22.666,0,0,1,1.438,5.634C-36.5.425-38.176,4.082-40.63,7.574Z" transform="translate(-86.994 -46.361)" fill="#d6ccfe"/>
        <path id="Path_3993" data-name="Path 3993" d="M-63.865-22.825c-4.635,1.618-8.415,4.267-10.842,8.51l-6.583-6.591C-76.536-24.832-68.133-26.562-63.865-22.825Z" transform="translate(-63.581 -35.402)" fill="#d6ccfe"/>
      </g>
    </g>
    <g id="Group_1477" data-name="Group 1477">
      <path id="Path_3979-2" data-name="Path 3979" d="M349.207-145.1H278.739v.036H258.347c-1.951-13.907,9.508-25.534,20.392-26.227l5.871-.414h38.13l5.867.225a23.054,23.054,0,0,1,13.346,6.532C347.456-159.554,349.675-152.908,349.207-145.1Z" transform="translate(659.631 5557.891)" fill="#5c4897"/>
      <g id="Group_1475-2" data-name="Group 1475" transform="translate(1101.91 5394.982)">
        <path id="Path_3989-2" data-name="Path 3989" d="M-139.248-72.982a28.4,28.4,0,0,1,28.338,28.568,28.384,28.384,0,0,1-28.6,28.166,28.389,28.389,0,0,1-28.138-28.5A28.39,28.39,0,0,1-139.248-72.982Zm-18.6,12.967c-7.292,7.992-8.414,23.007,1.722,32.814,10.038,9.713,24.77,8.1,32.229,1.132Zm3.165-3.16,33.951,33.947c7.064-7.6,8.5-22.388-1.225-32.328C-131.738-71.558-146.726-70.453-154.679-63.175Z" transform="translate(0)" fill="#5c4897"/>
        <path id="Path_3990-2" data-name="Path 3990" d="M-115.672,12.787c.288.265.486.434.67.617,2.876,2.873,5.75,5.748,8.857,8.855-1.121,1.321-2.137,2.73-3.366,3.92a19.982,19.982,0,0,1-7.243,4.11c-.73.269-1.094.046-1.459-.59a11.928,11.928,0,0,1-1.231-8.376A20.64,20.64,0,0,1-115.672,12.787Z" transform="translate(-35.302 -63.146)" fill="#5c4897"/>
        <path id="Path_3991-2" data-name="Path 3991" d="M-105.015,63.222A20.668,20.668,0,0,0-94.037,54.9l6.394,6.385C-91.923,64.856-100.181,67.011-105.015,63.222Z" transform="translate(-46.114 -94.152)" fill="#5c4897"/>
        <path id="Path_3992-2" data-name="Path 3992" d="M-40.63,7.574c-2.932-2.954-5.806-5.829-8.638-8.746a1.191,1.191,0,0,1-.147-1.1C-47.15-6.383-43.522-8.733-39.121-10a1.258,1.258,0,0,1,1.051.634,22.666,22.666,0,0,1,1.438,5.634C-36.5.425-38.176,4.082-40.63,7.574Z" transform="translate(-86.994 -46.361)" fill="#5c4897"/>
        <path id="Path_3993-2" data-name="Path 3993" d="M-63.865-22.825c-4.635,1.618-8.415,4.267-10.842,8.51l-6.583-6.591C-76.536-24.832-68.133-26.562-63.865-22.825Z" transform="translate(-63.581 -35.402)" fill="#5c4897"/>
      </g>
    </g>
  </g>
</svg>
