<svg xmlns="http://www.w3.org/2000/svg" width="62.565" height="61.283" viewBox="0 0 62.565 61.283">
  <g id="Group_1357" data-name="Group 1357" transform="translate(-1279 -1569.717)">
    <path id="Path_3854" data-name="Path 3854" d="M50.931,7.757H48.052V4.878a2.878,2.878,0,1,0-5.757,0V7.757H19.27V4.878A2.719,2.719,0,0,0,16.391,2a2.719,2.719,0,0,0-2.878,2.878V7.757H10.635A8.481,8.481,0,0,0,2,16.391V19.27H59.565V16.391A8.481,8.481,0,0,0,50.931,7.757ZM2,50.931a8.481,8.481,0,0,0,8.635,8.635h40.3a8.481,8.481,0,0,0,8.635-8.635v-25.9H2ZM45.174,30.783A2.878,2.878,0,1,1,42.3,33.661,2.719,2.719,0,0,1,45.174,30.783Zm0,11.513A2.878,2.878,0,1,1,42.3,45.174,2.719,2.719,0,0,1,45.174,42.3ZM30.783,30.783a2.878,2.878,0,0,1,0,5.757,2.878,2.878,0,1,1,0-5.757Zm0,11.513a2.878,2.878,0,0,1,0,5.757,2.878,2.878,0,1,1,0-5.757ZM16.391,30.783a2.878,2.878,0,1,1,0,5.757,2.878,2.878,0,1,1,0-5.757Zm0,11.513a2.878,2.878,0,1,1,0,5.757,2.878,2.878,0,1,1,0-5.757Z" transform="translate(1282 1571.435)" fill="#a9d1f4"/>
    <path id="Path_3853" data-name="Path 3853" d="M50.931,7.757H48.052V4.878a2.878,2.878,0,1,0-5.757,0V7.757H19.27V4.878A2.719,2.719,0,0,0,16.391,2a2.719,2.719,0,0,0-2.878,2.878V7.757H10.635A8.481,8.481,0,0,0,2,16.391V19.27H59.565V16.391A8.481,8.481,0,0,0,50.931,7.757ZM2,50.931a8.481,8.481,0,0,0,8.635,8.635h40.3a8.481,8.481,0,0,0,8.635-8.635v-25.9H2ZM45.174,30.783A2.878,2.878,0,1,1,42.3,33.661,2.719,2.719,0,0,1,45.174,30.783Zm0,11.513A2.878,2.878,0,1,1,42.3,45.174,2.719,2.719,0,0,1,45.174,42.3ZM30.783,30.783a2.878,2.878,0,0,1,0,5.757,2.878,2.878,0,1,1,0-5.757Zm0,11.513a2.878,2.878,0,0,1,0,5.757,2.878,2.878,0,1,1,0-5.757ZM16.391,30.783a2.878,2.878,0,1,1,0,5.757,2.878,2.878,0,1,1,0-5.757Zm0,11.513a2.878,2.878,0,1,1,0,5.757,2.878,2.878,0,1,1,0-5.757Z" transform="translate(1277 1567.717)" fill="#0c60a9"/>
  </g>
</svg>
