<svg xmlns="http://www.w3.org/2000/svg" width="64.843" height="63.926" viewBox="0 0 64.843 63.926">
  <g id="oIHQqH.tif" transform="translate(465.726 -25.215)">
    <g id="Group_1599" data-name="Group 1599" transform="translate(-462.173 27.879)">
      <path id="Path_4114" data-name="Path 4114" d="M-442.584,40.074c-4.318,4.357-9.441,3.515-12.42,1.166a9.02,9.02,0,0,1-2.335-11.321,8.978,8.978,0,0,1,10.749-4.237c4.538,1.519,6.644,5.558,5.8,11.268l13.749,7.787a12.627,12.627,0,0,1,11.263-4.857,12.074,12.074,0,0,1,8.358,4.393,12.55,12.55,0,0,1-1.091,17.382c-4.691,4.311-12.95,4.985-18.565-1.626l-7.52,4.079c2.217,6.171,1.356,11.751-2.8,16.879-3.45-6.294-3.964-6.713-10.946-8.933a5.866,5.866,0,0,0,3.433-2.63,5.221,5.221,0,0,0,.5-4.153,5.4,5.4,0,0,0-5.514-3.892,5.439,5.439,0,0,0-4.995,4.692c-.262,2,.644,4.829,4.313,6.022-5.512.883-9.131,3.767-10.977,8.78-4.248-3.841-6.643-13.738-.12-21.2a16.267,16.267,0,0,1,25.379,1.265l7.524-4.081a13.012,13.012,0,0,1,.027-8.962Z" transform="translate(465.726 -25.215)" fill="#d6ccfe"/>
      <path id="Path_4115" data-name="Path 4115" d="M-417.521,243.609c-4.8,3.645-13.1,3.637-17.743.023a8.846,8.846,0,0,1,8.443-8.035A8.916,8.916,0,0,1-417.521,243.609Z" transform="translate(442.578 -185.082)" fill="#d6ccfe"/>
      <path id="Path_4116" data-name="Path 4116" d="M-406.555,192.625a2.623,2.623,0,0,1-2.6-2.647,2.627,2.627,0,0,1,2.559-2.518,2.62,2.62,0,0,1,2.6,2.646A2.627,2.627,0,0,1-406.555,192.625Z" transform="translate(422.74 -148.507)" fill="#d6ccfe"/>
    </g>
    <g id="Group_1598" data-name="Group 1598" transform="translate(-465.726 25.215)">
      <path id="Path_4114-2" data-name="Path 4114" d="M-442.584,40.074c-4.318,4.357-9.441,3.515-12.42,1.166a9.02,9.02,0,0,1-2.335-11.321,8.978,8.978,0,0,1,10.749-4.237c4.538,1.519,6.644,5.558,5.8,11.268l13.749,7.787a12.627,12.627,0,0,1,11.263-4.857,12.074,12.074,0,0,1,8.358,4.393,12.55,12.55,0,0,1-1.091,17.382c-4.691,4.311-12.95,4.985-18.565-1.626l-7.52,4.079c2.217,6.171,1.356,11.751-2.8,16.879-3.45-6.294-3.964-6.713-10.946-8.933a5.866,5.866,0,0,0,3.433-2.63,5.221,5.221,0,0,0,.5-4.153,5.4,5.4,0,0,0-5.514-3.892,5.439,5.439,0,0,0-4.995,4.692c-.262,2,.644,4.829,4.313,6.022-5.512.883-9.131,3.767-10.977,8.78-4.248-3.841-6.643-13.738-.12-21.2a16.267,16.267,0,0,1,25.379,1.265l7.524-4.081a13.012,13.012,0,0,1,.027-8.962Z" transform="translate(465.726 -25.215)" fill="#5c4a95"/>
      <path id="Path_4115-2" data-name="Path 4115" d="M-417.521,243.609c-4.8,3.645-13.1,3.637-17.743.023a8.846,8.846,0,0,1,8.443-8.035A8.916,8.916,0,0,1-417.521,243.609Z" transform="translate(442.578 -185.082)" fill="#5c4a95"/>
      <path id="Path_4116-2" data-name="Path 4116" d="M-406.555,192.625a2.623,2.623,0,0,1-2.6-2.647,2.627,2.627,0,0,1,2.559-2.518,2.62,2.62,0,0,1,2.6,2.646A2.627,2.627,0,0,1-406.555,192.625Z" transform="translate(422.74 -148.507)" fill="#5c4a95"/>
    </g>
  </g>
</svg>
