<svg xmlns="http://www.w3.org/2000/svg" width="113.409" height="128.264" viewBox="0 0 113.409 128.264">
  <g id="Group_1328" data-name="Group 1328" transform="translate(-1.724)">
    <g id="Group_1383" data-name="Group 1383" transform="translate(6.336 4.816)">
      <path id="Path_3760" data-name="Path 3760" d="M219.821,214.947h.081a26.868,26.868,0,0,0,25.726-25.807c-.04-.04-.081-.04-.121-.081-.121-.081-.2-.121-.323-.2l-.363-.242a1.414,1.414,0,0,0-.323-.2l-.363-.242a1.415,1.415,0,0,0-.323-.2l-.363-.242a2.237,2.237,0,0,1-.323-.242l-.363-.242c-.121-.081-.2-.161-.323-.242l-.363-.242c-.121-.081-.2-.161-.323-.242l-.363-.242c-.121-.081-.2-.161-.323-.242l-.363-.242c-.121-.081-.2-.161-.323-.242a2.234,2.234,0,0,1-.323-.242c-.121-.081-.2-.161-.323-.242a2.239,2.239,0,0,1-.323-.242c-.121-.081-.2-.161-.323-.242a2.235,2.235,0,0,1-.323-.242c-.121-.081-.2-.161-.323-.242s-.2-.161-.323-.242-.2-.161-.323-.242-.2-.161-.323-.242c-.081-.081-.2-.161-.282-.242a2.021,2.021,0,0,1-.323-.282c-.081-.081-.2-.161-.282-.242a2.019,2.019,0,0,1-.323-.282c-.081-.081-.2-.161-.282-.242a2.016,2.016,0,0,1-.323-.282c-.081-.081-.2-.161-.282-.242-.121-.081-.2-.2-.323-.282-.081-.081-.2-.161-.282-.242l-.282-.282a1.753,1.753,0,0,0-.282-.242l-.282-.282-.242-.242-.282-.282-.242-.242-.282-.282-.242-.242a1.864,1.864,0,0,0-.282-.282l-.242-.242c-.081-.081-.161-.2-.242-.282a1.068,1.068,0,0,1-.2-.242c-.081-.081-.161-.2-.242-.282s-.121-.161-.2-.242-.161-.2-.242-.282-.121-.161-.2-.242a1.415,1.415,0,0,1-.2-.323c-.04-.081-.121-.161-.161-.242-.081-.121-.121-.2-.2-.323-.04-.081-.121-.161-.161-.242-.081-.121-.121-.2-.2-.323a.844.844,0,0,0-.161-.242c-.081-.121-.121-.2-.2-.323l-.121-.242a1.432,1.432,0,0,1-.161-.363.883.883,0,0,0-.121-.2,1.208,1.208,0,0,1-.161-.4c-.04-.04-.04-.121-.081-.161-.081-.2-.161-.363-.242-.565-.081-.242-.161-.524-.242-.766-.04-.081-.04-.161-.081-.242-.04-.161-.121-.363-.161-.524-.04-.081-.04-.2-.081-.282l-.121-.484c0-.081-.04-.2-.04-.282-.04-.161-.04-.323-.081-.444,0-.081-.04-.161-.04-.242a2.131,2.131,0,0,1-.04-.524v-.2c0-.242-.04-.444-.04-.685v-.887c0-.121.04-.282.04-.4,0-.081.04-.161.04-.242a1.178,1.178,0,0,1,.081-.363c0-.081.04-.161.04-.242a1.178,1.178,0,0,0,.081-.363c0-.081.04-.121.04-.2.04-.161.121-.323.161-.484,0-.04,0-.04.04-.081.081-.161.161-.363.242-.524.04-.04.04-.121.081-.161a2.249,2.249,0,0,1,.2-.323c.04-.081.081-.121.121-.2.04-.04.081-.121.121-.161a26.065,26.065,0,0,0-10.04-1.976,26.735,26.735,0,0,0-.4,53.468A4.532,4.532,0,0,1,219.821,214.947Z" transform="translate(-173.263 -131.055)" fill="#d6ccfe"/>
      <path id="Path_3761" data-name="Path 3761" d="M228.084,313.236a29.569,29.569,0,0,0-7.984-7.5c-7.056-4.6-16.573-6.936-28.226-6.936-.323,0-.686.04-1.008.04h-1.21c-17.1.4-29.436,4.637-36.734,12.581-5.565,6.089-8.145,14.516-7.621,24.96h89.234a39.071,39.071,0,0,0-2.621-16.331A36.192,36.192,0,0,0,228.084,313.236Z" transform="translate(-145.235 -212.933)" fill="#d6ccfe"/>
      <path id="Path_3762" data-name="Path 3762" d="M305.417,167.052c-5-2.581-9.6-3.952-13.307-3.952a8.058,8.058,0,0,0-5.443,1.653c-2.379,2.137-1.734,5.645-.807,8.226,2.056,5.645,10,11.331,16.694,15.645q2.359,1.512,4.6,2.9c5.645,3.548,8.629,5.444,9.355,7.1.363.887,1.532,3.508-11.048,25.04a.556.556,0,0,0,.161.121l.363.242c.2.161.4.282.6.444.121.081.242.2.363.282.2.161.4.323.565.444.121.081.242.2.363.282a7.021,7.021,0,0,1,.564.484,2.02,2.02,0,0,1,.323.282c.242.2.444.4.685.6.081.04.121.121.2.161l.806.806.2.2c.2.2.4.444.6.645a2.022,2.022,0,0,0,.282.323c.161.2.323.363.484.564.081.121.2.242.282.363a5.423,5.423,0,0,1,.444.565,2.212,2.212,0,0,0,.282.363c.161.2.282.4.444.6a2.235,2.235,0,0,0,.242.323l.484.726c.04.081.121.161.161.242.2.323.4.645.6,1.008a.306.306,0,0,1,.081.161l.484.847c.081.121.121.242.2.363.121.242.242.444.363.686.081.121.121.282.2.4.04.121.121.242.161.363,8.065-12.218,20.363-34.718,20.968-40.807C338.119,188.624,321.345,175.318,305.417,167.052Z" transform="translate(-228.657 -131.951)" fill="#d6ccfe"/>
      <path id="Path_3763" data-name="Path 3763" d="M233.026,101.515a3.563,3.563,0,0,1-2.339,2.137,1.026,1.026,0,0,0-.565,1.331.958.958,0,0,0,.927.6,1.775,1.775,0,0,0,.4-.081A5.4,5.4,0,0,0,234.962,102c.524-2.1-.484-4.718-3.1-8.024-1.371-1.694-2.177-2.9-2.177-3.629.04-.645.806-1.492,2.1-2.782a1,1,0,0,0-1.411-1.411c-3.347,3.347-3.71,4.516-.081,9.073C232.5,98.007,233.389,100.1,233.026,101.515Z" transform="translate(-194.451 -85.85)" fill="#d6ccfe"/>
      <path id="Path_3764" data-name="Path 3764" d="M261.226,101.515a3.563,3.563,0,0,1-2.339,2.137,1.026,1.026,0,0,0-.565,1.331.958.958,0,0,0,.927.6,1.775,1.775,0,0,0,.4-.081A5.4,5.4,0,0,0,263.162,102c.524-2.1-.484-4.718-3.1-8.024-1.371-1.694-2.177-2.9-2.177-3.629.04-.645.806-1.492,2.1-2.782a1,1,0,0,0-1.411-1.411c-3.347,3.347-3.71,4.516-.081,9.073C260.662,98.007,261.589,100.1,261.226,101.515Z" transform="translate(-211.28 -85.85)" fill="#d6ccfe"/>
      <path id="Path_3765" data-name="Path 3765" d="M289.326,101.515a3.563,3.563,0,0,1-2.339,2.137,1.026,1.026,0,0,0-.564,1.331.958.958,0,0,0,.927.6,1.775,1.775,0,0,0,.4-.081A5.4,5.4,0,0,0,291.262,102c.524-2.1-.484-4.718-3.1-8.024-1.371-1.694-2.177-2.9-2.177-3.629.04-.645.806-1.492,2.1-2.782a1,1,0,0,0-1.411-1.411c-3.347,3.347-3.71,4.516-.081,9.073C288.762,98.007,289.689,100.1,289.326,101.515Z" transform="translate(-228.049 -85.85)" fill="#d6ccfe"/>
    </g>
    <g id="Group_1382" data-name="Group 1382" transform="translate(1.724 0)">
      <path id="Path_3760-2" data-name="Path 3760" d="M219.821,214.947h.081a26.868,26.868,0,0,0,25.726-25.807c-.04-.04-.081-.04-.121-.081-.121-.081-.2-.121-.323-.2l-.363-.242a1.414,1.414,0,0,0-.323-.2l-.363-.242a1.415,1.415,0,0,0-.323-.2l-.363-.242a2.237,2.237,0,0,1-.323-.242l-.363-.242c-.121-.081-.2-.161-.323-.242l-.363-.242c-.121-.081-.2-.161-.323-.242l-.363-.242c-.121-.081-.2-.161-.323-.242l-.363-.242c-.121-.081-.2-.161-.323-.242a2.234,2.234,0,0,1-.323-.242c-.121-.081-.2-.161-.323-.242a2.239,2.239,0,0,1-.323-.242c-.121-.081-.2-.161-.323-.242a2.235,2.235,0,0,1-.323-.242c-.121-.081-.2-.161-.323-.242s-.2-.161-.323-.242-.2-.161-.323-.242-.2-.161-.323-.242c-.081-.081-.2-.161-.282-.242a2.021,2.021,0,0,1-.323-.282c-.081-.081-.2-.161-.282-.242a2.019,2.019,0,0,1-.323-.282c-.081-.081-.2-.161-.282-.242a2.016,2.016,0,0,1-.323-.282c-.081-.081-.2-.161-.282-.242-.121-.081-.2-.2-.323-.282-.081-.081-.2-.161-.282-.242l-.282-.282a1.753,1.753,0,0,0-.282-.242l-.282-.282-.242-.242-.282-.282-.242-.242-.282-.282-.242-.242a1.864,1.864,0,0,0-.282-.282l-.242-.242c-.081-.081-.161-.2-.242-.282a1.068,1.068,0,0,1-.2-.242c-.081-.081-.161-.2-.242-.282s-.121-.161-.2-.242-.161-.2-.242-.282-.121-.161-.2-.242a1.415,1.415,0,0,1-.2-.323c-.04-.081-.121-.161-.161-.242-.081-.121-.121-.2-.2-.323-.04-.081-.121-.161-.161-.242-.081-.121-.121-.2-.2-.323a.844.844,0,0,0-.161-.242c-.081-.121-.121-.2-.2-.323l-.121-.242a1.432,1.432,0,0,1-.161-.363.883.883,0,0,0-.121-.2,1.208,1.208,0,0,1-.161-.4c-.04-.04-.04-.121-.081-.161-.081-.2-.161-.363-.242-.565-.081-.242-.161-.524-.242-.766-.04-.081-.04-.161-.081-.242-.04-.161-.121-.363-.161-.524-.04-.081-.04-.2-.081-.282l-.121-.484c0-.081-.04-.2-.04-.282-.04-.161-.04-.323-.081-.444,0-.081-.04-.161-.04-.242a2.131,2.131,0,0,1-.04-.524v-.2c0-.242-.04-.444-.04-.685v-.887c0-.121.04-.282.04-.4,0-.081.04-.161.04-.242a1.178,1.178,0,0,1,.081-.363c0-.081.04-.161.04-.242a1.178,1.178,0,0,0,.081-.363c0-.081.04-.121.04-.2.04-.161.121-.323.161-.484,0-.04,0-.04.04-.081.081-.161.161-.363.242-.524.04-.04.04-.121.081-.161a2.249,2.249,0,0,1,.2-.323c.04-.081.081-.121.121-.2.04-.04.081-.121.121-.161a26.065,26.065,0,0,0-10.04-1.976,26.735,26.735,0,0,0-.4,53.468A4.532,4.532,0,0,1,219.821,214.947Z" transform="translate(-173.263 -131.055)" fill="#5c4897"/>
      <path id="Path_3761-2" data-name="Path 3761" d="M228.084,313.236a29.569,29.569,0,0,0-7.984-7.5c-7.056-4.6-16.573-6.936-28.226-6.936-.323,0-.686.04-1.008.04h-1.21c-17.1.4-29.436,4.637-36.734,12.581-5.565,6.089-8.145,14.516-7.621,24.96h89.234a39.071,39.071,0,0,0-2.621-16.331A36.192,36.192,0,0,0,228.084,313.236Z" transform="translate(-145.235 -212.933)" fill="#5c4897"/>
      <path id="Path_3762-2" data-name="Path 3762" d="M305.417,167.052c-5-2.581-9.6-3.952-13.307-3.952a8.058,8.058,0,0,0-5.443,1.653c-2.379,2.137-1.734,5.645-.807,8.226,2.056,5.645,10,11.331,16.694,15.645q2.359,1.512,4.6,2.9c5.645,3.548,8.629,5.444,9.355,7.1.363.887,1.532,3.508-11.048,25.04a.556.556,0,0,0,.161.121l.363.242c.2.161.4.282.6.444.121.081.242.2.363.282.2.161.4.323.565.444.121.081.242.2.363.282a7.021,7.021,0,0,1,.564.484,2.02,2.02,0,0,1,.323.282c.242.2.444.4.685.6.081.04.121.121.2.161l.806.806.2.2c.2.2.4.444.6.645a2.022,2.022,0,0,0,.282.323c.161.2.323.363.484.564.081.121.2.242.282.363a5.423,5.423,0,0,1,.444.565,2.212,2.212,0,0,0,.282.363c.161.2.282.4.444.6a2.235,2.235,0,0,0,.242.323l.484.726c.04.081.121.161.161.242.2.323.4.645.6,1.008a.306.306,0,0,1,.081.161l.484.847c.081.121.121.242.2.363.121.242.242.444.363.686.081.121.121.282.2.4.04.121.121.242.161.363,8.065-12.218,20.363-34.718,20.968-40.807C338.119,188.624,321.345,175.318,305.417,167.052Z" transform="translate(-228.657 -131.951)" fill="#5c4897"/>
      <path id="Path_3763-2" data-name="Path 3763" d="M233.026,101.515a3.563,3.563,0,0,1-2.339,2.137,1.026,1.026,0,0,0-.565,1.331.958.958,0,0,0,.927.6,1.775,1.775,0,0,0,.4-.081A5.4,5.4,0,0,0,234.962,102c.524-2.1-.484-4.718-3.1-8.024-1.371-1.694-2.177-2.9-2.177-3.629.04-.645.806-1.492,2.1-2.782a1,1,0,0,0-1.411-1.411c-3.347,3.347-3.71,4.516-.081,9.073C232.5,98.007,233.389,100.1,233.026,101.515Z" transform="translate(-194.451 -85.85)" fill="#5c4897"/>
      <path id="Path_3764-2" data-name="Path 3764" d="M261.226,101.515a3.563,3.563,0,0,1-2.339,2.137,1.026,1.026,0,0,0-.565,1.331.958.958,0,0,0,.927.6,1.775,1.775,0,0,0,.4-.081A5.4,5.4,0,0,0,263.162,102c.524-2.1-.484-4.718-3.1-8.024-1.371-1.694-2.177-2.9-2.177-3.629.04-.645.806-1.492,2.1-2.782a1,1,0,0,0-1.411-1.411c-3.347,3.347-3.71,4.516-.081,9.073C260.662,98.007,261.589,100.1,261.226,101.515Z" transform="translate(-211.28 -85.85)" fill="#5c4897"/>
      <path id="Path_3765-2" data-name="Path 3765" d="M289.326,101.515a3.563,3.563,0,0,1-2.339,2.137,1.026,1.026,0,0,0-.564,1.331.958.958,0,0,0,.927.6,1.775,1.775,0,0,0,.4-.081A5.4,5.4,0,0,0,291.262,102c.524-2.1-.484-4.718-3.1-8.024-1.371-1.694-2.177-2.9-2.177-3.629.04-.645.806-1.492,2.1-2.782a1,1,0,0,0-1.411-1.411c-3.347,3.347-3.71,4.516-.081,9.073C288.762,98.007,289.689,100.1,289.326,101.515Z" transform="translate(-228.049 -85.85)" fill="#5c4897"/>
    </g>
  </g>
</svg>
