<svg xmlns="http://www.w3.org/2000/svg" width="140.219" height="204" viewBox="0 0 140.219 204">
  <g id="Group_1518" data-name="Group 1518" transform="translate(-22 -9)">
    <g id="Group_1520" data-name="Group 1520" transform="translate(5 6)">
      <path id="Path_4008" data-name="Path 4008" d="M68.53,117.47h-9.3c-.362,0-.676.048-1.014.048v27.213a16.967,16.967,0,0,1,12.073,16.2v12.073a4.829,4.829,0,1,1-9.659,0V160.934a7.244,7.244,0,0,0-14.488,0v12.073a4.829,4.829,0,0,1-9.659,0V160.934a16.937,16.937,0,0,1,12.073-16.2V119.088C33.2,123.845,22,138.574,22,155.984v43.077c0,2.946,2.028,5.336,4.515,5.336H84.78V133.962l-15.5-15.5A5.079,5.079,0,0,1,68.53,117.47Zm62.129,1.618v25.643a16.9,16.9,0,1,1-9.659,0V117.519c-.338,0-.676-.048-1.014-.048h-9.32a3.694,3.694,0,0,1-.749.99l-15.478,15.5V204.4H152.7c2.487,0,4.515-2.39,4.515-5.336V155.984C157.22,138.574,145.991,123.845,130.659,119.088ZM97.264,102.62a41.813,41.813,0,0,1-5.24.362H87.2a41.883,41.883,0,0,1-5.264-.362l-3.719,11.131,11.4,11.373,11.373-11.373ZM87.2,93.324h4.829a33.842,33.842,0,0,0,33.8-33.8V40.2A33.8,33.8,0,0,0,108.685,10.84,43.517,43.517,0,0,1,65.463,49.86H53.39v9.659A33.842,33.842,0,0,0,87.2,93.324Z" transform="translate(0 2.603)" fill="#d6ccff"/>
      <path id="Path_4009" data-name="Path 4009" d="M80.637,12.863c.121-1.014.169-2.052.193-3.067a33.7,33.7,0,0,0-7.2-.8H68.8A33.842,33.842,0,0,0,35,42.8H47.073A33.853,33.853,0,0,0,80.637,12.863Z" transform="translate(18.39)" fill="#d6ccff"/>
      <ellipse id="Ellipse_654" data-name="Ellipse 654" cx="7" cy="7.5" rx="7" ry="7.5" transform="translate(119 156)" fill="#d6ccff"/>
    </g>
    <g id="Group_1519" data-name="Group 1519">
      <path id="Path_4008-2" data-name="Path 4008" d="M68.53,117.47h-9.3c-.362,0-.676.048-1.014.048v27.213a16.967,16.967,0,0,1,12.073,16.2v12.073a4.829,4.829,0,1,1-9.659,0V160.934a7.244,7.244,0,0,0-14.488,0v12.073a4.829,4.829,0,0,1-9.659,0V160.934a16.937,16.937,0,0,1,12.073-16.2V119.088C33.2,123.845,22,138.574,22,155.984v43.077c0,2.946,2.028,5.336,4.515,5.336H84.78V133.962l-15.5-15.5A5.079,5.079,0,0,1,68.53,117.47Zm62.129,1.618v25.643a16.9,16.9,0,1,1-9.659,0V117.519c-.338,0-.676-.048-1.014-.048h-9.32a3.694,3.694,0,0,1-.749.99l-15.478,15.5V204.4H152.7c2.487,0,4.515-2.39,4.515-5.336V155.984C157.22,138.574,145.991,123.845,130.659,119.088ZM97.264,102.62a41.813,41.813,0,0,1-5.24.362H87.2a41.883,41.883,0,0,1-5.264-.362l-3.719,11.131,11.4,11.373,11.373-11.373ZM87.2,93.324h4.829a33.842,33.842,0,0,0,33.8-33.8V40.2A33.8,33.8,0,0,0,108.685,10.84,43.517,43.517,0,0,1,65.463,49.86H53.39v9.659A33.842,33.842,0,0,0,87.2,93.324Z" transform="translate(0 2.603)" fill="#5c4a95"/>
      <path id="Path_4009-2" data-name="Path 4009" d="M80.637,12.863c.121-1.014.169-2.052.193-3.067a33.7,33.7,0,0,0-7.2-.8H68.8A33.842,33.842,0,0,0,35,42.8H47.073A33.853,33.853,0,0,0,80.637,12.863Z" transform="translate(18.39)" fill="#5c4a95"/>
      <ellipse id="Ellipse_654-2" data-name="Ellipse 654" cx="7" cy="7.5" rx="7" ry="7.5" transform="translate(119 156)" fill="#5c4a95"/>
    </g>
  </g>
</svg>
