<svg xmlns="http://www.w3.org/2000/svg" width="92.218" height="91.082" viewBox="0 0 92.218 91.082">
  <g id="Group_1461" data-name="Group 1461" transform="translate(-654.618 151.914)">
    <g id="Group_1464" data-name="Group 1464" transform="translate(6 5)">
      <path id="Path_3958" data-name="Path 3958" d="M693.1-39.617c-2.571-5.068-5.17-10.018-10.542-12.561-1.075,1.571-1.8,3.165-2.982,4.254-3.337,3.066-7.423,3.56-11.636,2.436-4.946-1.319-8.907-4.369-12.5-7.89a2.255,2.255,0,0,1-.029-3.458c3.854-3.747,8.068-7.044,13.471-8.13,3.734-.751,7.469-.3,10.414,2.406,1.179,1.083,1.815,2.751,2.73,4.132.279.421.6,1,1.008,1.121,4.746,1.379,7.924,4.681,10.672,8.536.357.5.7,1.009,1.061,1.51.02.028.093.017.286.045V-64.029c-1.758-.061-2.162-1.459-2.591-2.865a47.545,47.545,0,0,1-2.212-13.448H705.2a43.333,43.333,0,0,1-2.9,15.173c-.225.57-1.153.863-1.947,1.418v17c.57-.826.887-1.292,1.211-1.754,2.784-3.967,5.99-7.4,10.873-8.79a1.436,1.436,0,0,0,.857-.831c1.623-5.843,7.589-7.89,13.126-6.871,5.483,1.009,9.738,4.378,13.63,8.17a2.255,2.255,0,0,1-.039,3.458c-3.6,3.514-7.56,6.564-12.508,7.886-4.154,1.11-8.187.622-11.514-2.331-1.208-1.072-1.956-2.66-3.135-4.325-5.333,2.434-7.9,7.443-10.35,12.209,2.559,1.4,5.3,2.313,7.2,4.114a8.251,8.251,0,0,0,6.3,2.332,15.792,15.792,0,0,1,11.326,4.344,15.922,15.922,0,0,1,2.921,4.6c.382.808.672,1.113,1.527,1.091,1.9-.05,3.809-.022,5.714-.013,2.076.009,3.276.948,3.267,2.536s-1.2,2.509-3.295,2.51q-37.564.005-75.129,0c-1.625,0-3.25.029-4.874-.009a2.564,2.564,0,0,1-2.773-2.52,2.559,2.559,0,0,1,2.78-2.51c2.072-.037,4.147.027,6.218-.039.455-.015,1.2-.3,1.3-.615,1.8-5.838,6.4-8.046,11.816-9.1a48.529,48.529,0,0,1,5.514-.347,2.271,2.271,0,0,0,1.464-.464,15.812,15.812,0,0,1,8.751-5.287A3.347,3.347,0,0,0,693.1-39.617Z" transform="translate(0 -47.431)" fill="#d6ccff"/>
      <path id="Path_3959" data-name="Path 3959" d="M774.911-132.916H759.758a66.331,66.331,0,0,1,.936-7.426c.8-3.352,1.954-6.619,2.974-9.917a2.2,2.2,0,0,1,2.391-1.649c4.936.041,4.243-.549,6.06,3.961A43.172,43.172,0,0,1,774.911-132.916Z" transform="translate(-69.677)" fill="#d6ccff"/>
      <path id="Path_3960" data-name="Path 3960" d="M723-127.634c-.36-5.888,4.5-13.6,10.208-16.309-.559,2.259-1.229,4.434-1.615,6.659-.477,2.749-.768,5.533-1.034,8.313-.094.975-.368,1.387-1.4,1.356C727.1-127.679,725.042-127.634,723-127.634Z" transform="translate(-45.304 -5.282)" fill="#d6ccff"/>
      <path id="Path_3961" data-name="Path 3961" d="M821.532-127.63c-2.22,0-4.345.045-6.465-.042a1.414,1.414,0,0,1-1.029-.9,56.767,56.767,0,0,0-2.874-15.359C816.653-141.725,821.737-133.744,821.532-127.63Z" transform="translate(-103.743 -5.291)" fill="#d6ccff"/>
      <path id="Path_3962" data-name="Path 3962" d="M823.967-80.679a20.246,20.246,0,0,1-8.907,13.16c.512-4.136,1-8.218,1.559-12.289a1.3,1.3,0,0,1,.93-.833C819.6-80.717,821.661-80.679,823.967-80.679Z" transform="translate(-106.325 -47.202)" fill="#d6ccff"/>
      <path id="Path_3963" data-name="Path 3963" d="M732.35-67.476a20.31,20.31,0,0,1-8.877-13.176c2.294,0,4.4-.031,6.508.036a1.175,1.175,0,0,1,.807.787C731.342-75.742,731.833-71.648,732.35-67.476Z" transform="translate(-45.631 -47.221)" fill="#d6ccff"/>
    </g>
    <g id="Group_1463" data-name="Group 1463">
      <path id="Path_3958-2" data-name="Path 3958" d="M693.1-39.617c-2.571-5.068-5.17-10.018-10.542-12.561-1.075,1.571-1.8,3.165-2.982,4.254-3.337,3.066-7.423,3.56-11.636,2.436-4.946-1.319-8.907-4.369-12.5-7.89a2.255,2.255,0,0,1-.029-3.458c3.854-3.747,8.068-7.044,13.471-8.13,3.734-.751,7.469-.3,10.414,2.406,1.179,1.083,1.815,2.751,2.73,4.132.279.421.6,1,1.008,1.121,4.746,1.379,7.924,4.681,10.672,8.536.357.5.7,1.009,1.061,1.51.02.028.093.017.286.045V-64.029c-1.758-.061-2.162-1.459-2.591-2.865a47.545,47.545,0,0,1-2.212-13.448H705.2a43.333,43.333,0,0,1-2.9,15.173c-.225.57-1.153.863-1.947,1.418v17c.57-.826.887-1.292,1.211-1.754,2.784-3.967,5.99-7.4,10.873-8.79a1.436,1.436,0,0,0,.857-.831c1.623-5.843,7.589-7.89,13.126-6.871,5.483,1.009,9.738,4.378,13.63,8.17a2.255,2.255,0,0,1-.039,3.458c-3.6,3.514-7.56,6.564-12.508,7.886-4.154,1.11-8.187.622-11.514-2.331-1.208-1.072-1.956-2.66-3.135-4.325-5.333,2.434-7.9,7.443-10.35,12.209,2.559,1.4,5.3,2.313,7.2,4.114a8.251,8.251,0,0,0,6.3,2.332,15.792,15.792,0,0,1,11.326,4.344,15.922,15.922,0,0,1,2.921,4.6c.382.808.672,1.113,1.527,1.091,1.9-.05,3.809-.022,5.714-.013,2.076.009,3.276.948,3.267,2.536s-1.2,2.509-3.295,2.51q-37.564.005-75.129,0c-1.625,0-3.25.029-4.874-.009a2.564,2.564,0,0,1-2.773-2.52,2.559,2.559,0,0,1,2.78-2.51c2.072-.037,4.147.027,6.218-.039.455-.015,1.2-.3,1.3-.615,1.8-5.838,6.4-8.046,11.816-9.1a48.529,48.529,0,0,1,5.514-.347,2.271,2.271,0,0,0,1.464-.464,15.812,15.812,0,0,1,8.751-5.287A3.347,3.347,0,0,0,693.1-39.617Z" transform="translate(0 -47.431)" fill="#5c4897"/>
      <path id="Path_3959-2" data-name="Path 3959" d="M774.911-132.916H759.758a66.331,66.331,0,0,1,.936-7.426c.8-3.352,1.954-6.619,2.974-9.917a2.2,2.2,0,0,1,2.391-1.649c4.936.041,4.243-.549,6.06,3.961A43.172,43.172,0,0,1,774.911-132.916Z" transform="translate(-69.677)" fill="#5c4897"/>
      <path id="Path_3960-2" data-name="Path 3960" d="M723-127.634c-.36-5.888,4.5-13.6,10.208-16.309-.559,2.259-1.229,4.434-1.615,6.659-.477,2.749-.768,5.533-1.034,8.313-.094.975-.368,1.387-1.4,1.356C727.1-127.679,725.042-127.634,723-127.634Z" transform="translate(-45.304 -5.282)" fill="#5c4897"/>
      <path id="Path_3961-2" data-name="Path 3961" d="M821.532-127.63c-2.22,0-4.345.045-6.465-.042a1.414,1.414,0,0,1-1.029-.9,56.767,56.767,0,0,0-2.874-15.359C816.653-141.725,821.737-133.744,821.532-127.63Z" transform="translate(-103.743 -5.291)" fill="#5c4897"/>
      <path id="Path_3962-2" data-name="Path 3962" d="M823.967-80.679a20.246,20.246,0,0,1-8.907,13.16c.512-4.136,1-8.218,1.559-12.289a1.3,1.3,0,0,1,.93-.833C819.6-80.717,821.661-80.679,823.967-80.679Z" transform="translate(-106.325 -47.202)" fill="#5c4897"/>
      <path id="Path_3963-2" data-name="Path 3963" d="M732.35-67.476a20.31,20.31,0,0,1-8.877-13.176c2.294,0,4.4-.031,6.508.036a1.175,1.175,0,0,1,.807.787C731.342-75.742,731.833-71.648,732.35-67.476Z" transform="translate(-45.631 -47.221)" fill="#5c4897"/>
    </g>
  </g>
</svg>
