<svg xmlns="http://www.w3.org/2000/svg" width="45.885" height="56.033" viewBox="0 0 45.885 56.033">
  <g id="Group_1384" data-name="Group 1384" transform="translate(-40.398 -1421.109)">
    <g id="Group_1406" data-name="Group 1406" transform="translate(2 2)">
      <path id="Path_3889" data-name="Path 3889" d="M84.63,1452.892c-2.963-.58-5.944-.782-8.528-2.346a15.961,15.961,0,0,1-1.532-1.185c.026-.169.012-.258.05-.3,2.044-2.328,1.219-4.754.272-7.2a15.206,15.206,0,0,1,5.371-17.986c9.55-6.738,21.272-.262,22.981,9.714a15.653,15.653,0,0,1-.882,8.58c-.309.78-.487,1.611-.777,2.4-.665,1.812.324,3.181,1.272,4.648-2.762,2.844-6.485,2.924-10.123,3.678.269.825.472,1.66.811,2.436a4.633,4.633,0,0,1,.191,3.08,11.369,11.369,0,0,1-4.376,6.624.979.979,0,0,1-1.375,0,11.206,11.206,0,0,1-4.535-7.559,3.469,3.469,0,0,1,.153-1.438C83.9,1455,84.268,1453.986,84.63,1452.892Z" transform="translate(-26.362)" fill="#0c60a9"/>
      <path id="Path_3890" data-name="Path 3890" d="M74.018,1594.145a6.86,6.86,0,0,0-2-7.167,10.1,10.1,0,0,1-.778-.953l.19-.235a7.531,7.531,0,0,1,.759.168c1.83.6,3.665,1.188,5.483,1.822,4.222,1.472,6.319,4.244,6.567,8.692.061,1.087.059,2.18.024,3.268a4.934,4.934,0,0,1-4.987,5.042c-1.789.066-3.583.023-5.375.023q-13.754,0-27.509-.009a10.238,10.238,0,0,1-2.3-.219,4.6,4.6,0,0,1-3.672-4.226,36.425,36.425,0,0,1,.264-5.772,7.175,7.175,0,0,1,4.11-5.779c2.663-1.27,5.517-2.138,8.288-3.181l.278.344a6.152,6.152,0,0,1-.687.953,6.893,6.893,0,0,0-2.047,7.284c.983-.731,1.853-1.487,2.824-2.075,1.281-.776,1.274-.656,2.126.517,1.71,2.354,3.5,4.653,5.287,6.946a11.794,11.794,0,0,0,1.454,1.31,17.285,17.285,0,0,0,1.965-1.864c1.7-2.19,3.356-4.411,4.934-6.687.467-.674.876-.856,1.51-.446C71.807,1592.6,72.856,1593.35,74.018,1594.145Z" transform="translate(0 -129.676)" fill="#0c60a9"/>
    </g>
    <g id="Group_1405" data-name="Group 1405">
      <path id="Path_3889-2" data-name="Path 3889" d="M84.63,1452.892c-2.963-.58-5.944-.782-8.528-2.346a15.961,15.961,0,0,1-1.532-1.185c.026-.169.012-.258.05-.3,2.044-2.328,1.219-4.754.272-7.2a15.206,15.206,0,0,1,5.371-17.986c9.55-6.738,21.272-.262,22.981,9.714a15.653,15.653,0,0,1-.882,8.58c-.309.78-.487,1.611-.777,2.4-.665,1.812.324,3.181,1.272,4.648-2.762,2.844-6.485,2.924-10.123,3.678.269.825.472,1.66.811,2.436a4.633,4.633,0,0,1,.191,3.08,11.369,11.369,0,0,1-4.376,6.624.979.979,0,0,1-1.375,0,11.206,11.206,0,0,1-4.535-7.559,3.469,3.469,0,0,1,.153-1.438C83.9,1455,84.268,1453.986,84.63,1452.892Z" transform="translate(-26.362)" fill="#7bbef8"/>
      <path id="Path_3890-2" data-name="Path 3890" d="M74.018,1594.145a6.86,6.86,0,0,0-2-7.167,10.1,10.1,0,0,1-.778-.953l.19-.235a7.531,7.531,0,0,1,.759.168c1.83.6,3.665,1.188,5.483,1.822,4.222,1.472,6.319,4.244,6.567,8.692.061,1.087.059,2.18.024,3.268a4.934,4.934,0,0,1-4.987,5.042c-1.789.066-3.583.023-5.375.023q-13.754,0-27.509-.009a10.238,10.238,0,0,1-2.3-.219,4.6,4.6,0,0,1-3.672-4.226,36.425,36.425,0,0,1,.264-5.772,7.175,7.175,0,0,1,4.11-5.779c2.663-1.27,5.517-2.138,8.288-3.181l.278.344a6.152,6.152,0,0,1-.687.953,6.893,6.893,0,0,0-2.047,7.284c.983-.731,1.853-1.487,2.824-2.075,1.281-.776,1.274-.656,2.126.517,1.71,2.354,3.5,4.653,5.287,6.946a11.794,11.794,0,0,0,1.454,1.31,17.285,17.285,0,0,0,1.965-1.864c1.7-2.19,3.356-4.411,4.934-6.687.467-.674.876-.856,1.51-.446C71.807,1592.6,72.856,1593.35,74.018,1594.145Z" transform="translate(0 -129.676)" fill="#7bbef8"/>
    </g>
  </g>
</svg>
