<svg xmlns="http://www.w3.org/2000/svg" width="86.047" height="87.082" viewBox="0 0 86.047 87.082">
  <g id="_5Vsdts.tif" data-name="5Vsdts.tif" transform="translate(-770.159 -232.428)">
    <g id="Group_1460" data-name="Group 1460" transform="translate(773.159 236.428)">
      <path id="Path_3949" data-name="Path 3949" d="M860.615,266.588c-1.989,2.221-3.934,4.4-5.884,6.569-4.578,5.1-9.2,10.153-13.724,15.3a48.731,48.731,0,0,0-7.743,11.553,30.114,30.114,0,0,0-2.831,11.907c-.013.432-.008.867-.048,1.3a2.349,2.349,0,0,1-2.323,2.261c-1.621.049-3.246.047-4.868,0a2.429,2.429,0,0,1-2.421-2.638,40.106,40.106,0,0,1,1.57-10.989,47.677,47.677,0,0,1,7.2-14.206c.308-.43.609-.864,1.011-1.436a8.756,8.756,0,0,0-.976-.134c-1.479-.011-2.958.023-4.435-.018a1.984,1.984,0,0,0-1.623.656c-1.094,1.148-2.234,2.253-3.358,3.373a2.454,2.454,0,0,1-2.128.842,2.237,2.237,0,0,1-1.9-1.418,2.186,2.186,0,0,1,.349-2.439c1.7-1.766,3.419-3.519,5.229-5.168a3.1,3.1,0,0,1,1.906-.535c3.173-.053,6.347-.025,9.52-.025h1.325c.9-1.017,1.769-2.023,2.659-3.013,5.471-6.087,10.977-12.145,16.409-18.266A52.764,52.764,0,0,0,861.2,249.1a30.46,30.46,0,0,0,3.409-13.18c.009-.324.01-.649.028-.973a2.413,2.413,0,0,1,2.545-2.5c1.478-.028,2.957-.021,4.436,0a2.486,2.486,0,0,1,2.651,2.742,39.488,39.488,0,0,1-2.888,14.655,51.947,51.947,0,0,1-5.865,10.44c-.308.431-.61.866-1.013,1.438a8.435,8.435,0,0,0,.968.136c1.479.011,2.958-.023,4.435.018a1.979,1.979,0,0,0,1.62-.66c1.094-1.149,2.234-2.253,3.357-3.374a2.436,2.436,0,0,1,2.13-.836,2.229,2.229,0,0,1,1.931,1.524,2.315,2.315,0,0,1-.529,2.507c-1.132,1.163-2.284,2.306-3.432,3.452-2.333,2.328-1.814,2.093-5.083,2.1q-4.057.007-8.115,0Z" transform="translate(-805.995 -232.428)" fill="#d6ccff"/>
      <path id="Path_3950" data-name="Path 3950" d="M837.761,270.252c-.811-.914-1.581-1.679-2.226-2.536a2.694,2.694,0,0,0-2.468-1.153c-3.1.075-6.2,0-9.3.038a3.328,3.328,0,0,1-2.6-1.072c-1.425-1.48-2.912-2.9-4.345-4.374a2.428,2.428,0,0,1-.183-3.406,2.34,2.34,0,0,1,3.471-.016c1.154,1.087,2.282,2.207,3.365,3.364a2.254,2.254,0,0,0,1.9.781c1.332-.057,2.668-.012,4-.019.344,0,.687-.04,1.247-.075-.385-.565-.653-.973-.937-1.37a50.075,50.075,0,0,1-6.586-12.241,39.778,39.778,0,0,1-2.246-13.042,2.469,2.469,0,0,1,2.6-2.685q2.217-.034,4.435,0a2.346,2.346,0,0,1,2.58,2.445c-.043,8.846,3.745,16.148,9.122,22.814,1.244,1.543,2.563,3.026,3.847,4.537.229.27.458.541.763.9Z" transform="translate(-806.076 -232.428)" fill="#d6ccff"/>
      <path id="Path_3951" data-name="Path 3951" d="M990.853,449.567c.879,1.28,1.646,2.363,2.379,3.469a41.468,41.468,0,0,1,6.641,15.723,66.848,66.848,0,0,1,.735,7.412,2.437,2.437,0,0,1-2.66,2.716c-1.478.017-2.957.025-4.435,0a2.333,2.333,0,0,1-2.5-2.413c.05-8.845-3.725-16.153-9.1-22.822-1.244-1.543-2.561-3.027-3.844-4.539l-.786-.921,6.441-7.1c.892,1.011,1.733,1.9,2.5,2.852a1.993,1.993,0,0,0,1.748.818c3.209-.038,6.419.01,9.628-.029a3.517,3.517,0,0,1,2.792,1.134c1.414,1.49,2.9,2.916,4.342,4.377a2.35,2.35,0,0,1,.565,2.595,2.22,2.22,0,0,1-1.847,1.479,2.453,2.453,0,0,1-2.227-.848c-1.123-1.121-2.259-2.229-3.358-3.373a1.889,1.889,0,0,0-1.521-.636c-1.478.036-2.957.008-4.435.015C991.627,449.475,991.352,449.521,990.853,449.567Z" transform="translate(-932.354 -395.831)" fill="#d6ccff"/>
      <path id="Path_3952" data-name="Path 3952" d="M1029.123,400.116h-15.957c.349-.451.525-.706.728-.935.835-.945,1.736-1.837,2.5-2.836a2.44,2.44,0,0,1,2.226-.972c3.1.046,6.2.017,9.294.017h1.254a7.661,7.661,0,0,1,4.967-4.616,7.214,7.214,0,0,1,4.555.218,7.383,7.383,0,0,1,4.806,7.128,7.473,7.473,0,0,1-5.712,6.684C1034.359,405.665,1031.544,404.17,1029.123,400.116Z" transform="translate(-960.457 -356.217)" fill="#d6ccff"/>
      <path id="Path_3953" data-name="Path 3953" d="M784.49,395.38h15.954c-.266.377-.4.613-.578.813-.953,1.081-1.94,2.133-2.864,3.237a1.738,1.738,0,0,1-1.49.664c-3.243-.023-6.486-.01-9.729-.01h-1.225c-2.66,4.178-5.418,5.605-8.837,4.638a7.176,7.176,0,0,1-.277-13.914,7,7,0,0,1,5.448.472A7.813,7.813,0,0,1,784.49,395.38Z" transform="translate(-770.159 -356.184)" fill="#d6ccff"/>
      <path id="Path_3954" data-name="Path 3954" d="M930.68,283.359H912.175l-1.835-4.578h22.125c-.238.722-.42,1.376-.669,2C931.453,281.65,931.058,282.494,930.68,283.359Z" transform="translate(-879.934 -268.727)" fill="#d6ccff"/>
      <path id="Path_3955" data-name="Path 3955" d="M910.442,552.6,912.256,548h18.565l1.842,4.607Z" transform="translate(-880.014 -479.549)" fill="#d6ccff"/>
      <path id="Path_3956" data-name="Path 3956" d="M945.916,323.654l-3.638,4.6h-4.726l-3.643-4.6Z" transform="translate(-898.39 -303.867)" fill="#d6ccff"/>
      <path id="Path_3957" data-name="Path 3957" d="M937.635,503.005h4.738l3.641,4.6h-11.99Z" transform="translate(-898.481 -444.316)" fill="#d6ccff"/>
    </g>
    <g id="Group_1459" data-name="Group 1459" transform="translate(770.159 232.428)">
      <path id="Path_3949-2" data-name="Path 3949" d="M860.615,266.588c-1.989,2.221-3.934,4.4-5.884,6.569-4.578,5.1-9.2,10.153-13.724,15.3a48.731,48.731,0,0,0-7.743,11.553,30.114,30.114,0,0,0-2.831,11.907c-.013.432-.008.867-.048,1.3a2.349,2.349,0,0,1-2.323,2.261c-1.621.049-3.246.047-4.868,0a2.429,2.429,0,0,1-2.421-2.638,40.106,40.106,0,0,1,1.57-10.989,47.677,47.677,0,0,1,7.2-14.206c.308-.43.609-.864,1.011-1.436a8.756,8.756,0,0,0-.976-.134c-1.479-.011-2.958.023-4.435-.018a1.984,1.984,0,0,0-1.623.656c-1.094,1.148-2.234,2.253-3.358,3.373a2.454,2.454,0,0,1-2.128.842,2.237,2.237,0,0,1-1.9-1.418,2.186,2.186,0,0,1,.349-2.439c1.7-1.766,3.419-3.519,5.229-5.168a3.1,3.1,0,0,1,1.906-.535c3.173-.053,6.347-.025,9.52-.025h1.325c.9-1.017,1.769-2.023,2.659-3.013,5.471-6.087,10.977-12.145,16.409-18.266A52.764,52.764,0,0,0,861.2,249.1a30.46,30.46,0,0,0,3.409-13.18c.009-.324.01-.649.028-.973a2.413,2.413,0,0,1,2.545-2.5c1.478-.028,2.957-.021,4.436,0a2.486,2.486,0,0,1,2.651,2.742,39.488,39.488,0,0,1-2.888,14.655,51.947,51.947,0,0,1-5.865,10.44c-.308.431-.61.866-1.013,1.438a8.435,8.435,0,0,0,.968.136c1.479.011,2.958-.023,4.435.018a1.979,1.979,0,0,0,1.62-.66c1.094-1.149,2.234-2.253,3.357-3.374a2.436,2.436,0,0,1,2.13-.836,2.229,2.229,0,0,1,1.931,1.524,2.315,2.315,0,0,1-.529,2.507c-1.132,1.163-2.284,2.306-3.432,3.452-2.333,2.328-1.814,2.093-5.083,2.1q-4.057.007-8.115,0Z" transform="translate(-805.995 -232.428)" fill="#5c4897"/>
      <path id="Path_3950-2" data-name="Path 3950" d="M837.761,270.252c-.811-.914-1.581-1.679-2.226-2.536a2.694,2.694,0,0,0-2.468-1.153c-3.1.075-6.2,0-9.3.038a3.328,3.328,0,0,1-2.6-1.072c-1.425-1.48-2.912-2.9-4.345-4.374a2.428,2.428,0,0,1-.183-3.406,2.34,2.34,0,0,1,3.471-.016c1.154,1.087,2.282,2.207,3.365,3.364a2.254,2.254,0,0,0,1.9.781c1.332-.057,2.668-.012,4-.019.344,0,.687-.04,1.247-.075-.385-.565-.653-.973-.937-1.37a50.075,50.075,0,0,1-6.586-12.241,39.778,39.778,0,0,1-2.246-13.042,2.469,2.469,0,0,1,2.6-2.685q2.217-.034,4.435,0a2.346,2.346,0,0,1,2.58,2.445c-.043,8.846,3.745,16.148,9.122,22.814,1.244,1.543,2.563,3.026,3.847,4.537.229.27.458.541.763.9Z" transform="translate(-806.076 -232.428)" fill="#5c4897"/>
      <path id="Path_3951-2" data-name="Path 3951" d="M990.853,449.567c.879,1.28,1.646,2.363,2.379,3.469a41.468,41.468,0,0,1,6.641,15.723,66.848,66.848,0,0,1,.735,7.412,2.437,2.437,0,0,1-2.66,2.716c-1.478.017-2.957.025-4.435,0a2.333,2.333,0,0,1-2.5-2.413c.05-8.845-3.725-16.153-9.1-22.822-1.244-1.543-2.561-3.027-3.844-4.539l-.786-.921,6.441-7.1c.892,1.011,1.733,1.9,2.5,2.852a1.993,1.993,0,0,0,1.748.818c3.209-.038,6.419.01,9.628-.029a3.517,3.517,0,0,1,2.792,1.134c1.414,1.49,2.9,2.916,4.342,4.377a2.35,2.35,0,0,1,.565,2.595,2.22,2.22,0,0,1-1.847,1.479,2.453,2.453,0,0,1-2.227-.848c-1.123-1.121-2.259-2.229-3.358-3.373a1.889,1.889,0,0,0-1.521-.636c-1.478.036-2.957.008-4.435.015C991.627,449.475,991.352,449.521,990.853,449.567Z" transform="translate(-932.354 -395.831)" fill="#5c4897"/>
      <path id="Path_3952-2" data-name="Path 3952" d="M1029.123,400.116h-15.957c.349-.451.525-.706.728-.935.835-.945,1.736-1.837,2.5-2.836a2.44,2.44,0,0,1,2.226-.972c3.1.046,6.2.017,9.294.017h1.254a7.661,7.661,0,0,1,4.967-4.616,7.214,7.214,0,0,1,4.555.218,7.383,7.383,0,0,1,4.806,7.128,7.473,7.473,0,0,1-5.712,6.684C1034.359,405.665,1031.544,404.17,1029.123,400.116Z" transform="translate(-960.457 -356.217)" fill="#5c4897"/>
      <path id="Path_3953-2" data-name="Path 3953" d="M784.49,395.38h15.954c-.266.377-.4.613-.578.813-.953,1.081-1.94,2.133-2.864,3.237a1.738,1.738,0,0,1-1.49.664c-3.243-.023-6.486-.01-9.729-.01h-1.225c-2.66,4.178-5.418,5.605-8.837,4.638a7.176,7.176,0,0,1-.277-13.914,7,7,0,0,1,5.448.472A7.813,7.813,0,0,1,784.49,395.38Z" transform="translate(-770.159 -356.184)" fill="#5c4897"/>
      <path id="Path_3954-2" data-name="Path 3954" d="M930.68,283.359H912.175l-1.835-4.578h22.125c-.238.722-.42,1.376-.669,2C931.453,281.65,931.058,282.494,930.68,283.359Z" transform="translate(-879.934 -268.727)" fill="#5c4897"/>
      <path id="Path_3955-2" data-name="Path 3955" d="M910.442,552.6,912.256,548h18.565l1.842,4.607Z" transform="translate(-880.014 -479.549)" fill="#5c4897"/>
      <path id="Path_3956-2" data-name="Path 3956" d="M945.916,323.654l-3.638,4.6h-4.726l-3.643-4.6Z" transform="translate(-898.39 -303.867)" fill="#5c4897"/>
      <path id="Path_3957-2" data-name="Path 3957" d="M937.635,503.005h4.738l3.641,4.6h-11.99Z" transform="translate(-898.481 -444.316)" fill="#5c4897"/>
    </g>
  </g>
</svg>
