<svg xmlns="http://www.w3.org/2000/svg" width="77.36" height="78.188" viewBox="0 0 77.36 78.188">
  <g id="Group_1574" data-name="Group 1574" transform="translate(750.691 344.755)">
    <g id="Group_1576" data-name="Group 1576" transform="translate(-748.344 -341.527)">
      <path id="Path_4068" data-name="Path 4068" d="M-706.155-216.709c-.379,1.948-.721,3.706-1.092,5.616-5.362.182-9.673,2.489-11.475,7.85-1.67,4.97-1.127,9.817,2.9,14-.632.037-1.043.082-1.453.082q-15.136.006-30.272,0c-2.393,0-3.175-.751-3.14-3.136.059-4.039-.186-8.124.333-12.107a15.151,15.151,0,0,1,14.728-12.81c8.627-.09,17.256-.044,25.884,0A25.363,25.363,0,0,1-706.155-216.709Z" transform="translate(750.691 254.673)" fill="#d6ccfe"/>
      <path id="Path_4069" data-name="Path 4069" d="M-708.058-329.132a15.553,15.553,0,0,1,15.585-15.623,15.552,15.552,0,0,1,15.561,15.647,15.6,15.6,0,0,1-15.511,15.572A15.607,15.607,0,0,1-708.058-329.132Z" transform="translate(720.568 344.755)" fill="#d6ccfe"/>
      <path id="Path_4070" data-name="Path 4070" d="M-610.588-192.453c-2.414,0-4.554.019-6.693,0-3.763-.042-5.82-2.283-5.814-6.3.005-3.874,2.106-6.089,5.841-6.127,2.137-.021,4.275,0,6.662,0,0-2.033-.03-3.96.013-5.885a10.553,10.553,0,0,1,.3-2.88c.913-2.924,3.806-4.291,7.529-3.682a5.408,5.408,0,0,1,4.588,5.417c.046,2.276.009,4.553.009,7.029,2.292,0,4.42.033,6.546-.009,2.548-.05,4.577.916,5.469,3.323.95,2.561.948,5.191-1.01,7.416a5.112,5.112,0,0,1-4.045,1.706c-2.235-.013-4.47,0-6.956,0,0,2.035.03,3.961-.013,5.886a10.576,10.576,0,0,1-.3,2.88c-.914,2.93-3.8,4.3-7.527,3.682a5.411,5.411,0,0,1-4.588-5.418C-610.624-187.7-610.588-189.979-610.588-192.453Z" transform="translate(660.535 254.824)" fill="#d6ccfe"/>
    </g>
    <g id="Group_1575" data-name="Group 1575" transform="translate(-750.691 -344.755)">
      <path id="Path_4068-2" data-name="Path 4068" d="M-706.155-216.709c-.379,1.948-.721,3.706-1.092,5.616-5.362.182-9.673,2.489-11.475,7.85-1.67,4.97-1.127,9.817,2.9,14-.632.037-1.043.082-1.453.082q-15.136.006-30.272,0c-2.393,0-3.175-.751-3.14-3.136.059-4.039-.186-8.124.333-12.107a15.151,15.151,0,0,1,14.728-12.81c8.627-.09,17.256-.044,25.884,0A25.363,25.363,0,0,1-706.155-216.709Z" transform="translate(750.691 254.673)" fill="#5c4897"/>
      <path id="Path_4069-2" data-name="Path 4069" d="M-708.058-329.132a15.553,15.553,0,0,1,15.585-15.623,15.552,15.552,0,0,1,15.561,15.647,15.6,15.6,0,0,1-15.511,15.572A15.607,15.607,0,0,1-708.058-329.132Z" transform="translate(720.568 344.755)" fill="#5c4897"/>
      <path id="Path_4070-2" data-name="Path 4070" d="M-610.588-192.453c-2.414,0-4.554.019-6.693,0-3.763-.042-5.82-2.283-5.814-6.3.005-3.874,2.106-6.089,5.841-6.127,2.137-.021,4.275,0,6.662,0,0-2.033-.03-3.96.013-5.885a10.553,10.553,0,0,1,.3-2.88c.913-2.924,3.806-4.291,7.529-3.682a5.408,5.408,0,0,1,4.588,5.417c.046,2.276.009,4.553.009,7.029,2.292,0,4.42.033,6.546-.009,2.548-.05,4.577.916,5.469,3.323.95,2.561.948,5.191-1.01,7.416a5.112,5.112,0,0,1-4.045,1.706c-2.235-.013-4.47,0-6.956,0,0,2.035.03,3.961-.013,5.886a10.576,10.576,0,0,1-.3,2.88c-.914,2.93-3.8,4.3-7.527,3.682a5.411,5.411,0,0,1-4.588-5.418C-610.624-187.7-610.588-189.979-610.588-192.453Z" transform="translate(660.535 254.824)" fill="#5c4897"/>
    </g>
  </g>
</svg>
