<svg xmlns="http://www.w3.org/2000/svg" width="174" height="95.621" viewBox="0 0 174 95.621">
  <g id="Group_1743" data-name="Group 1743" transform="translate(-300.12 -1279.51)">
    <g id="Group_1745" data-name="Group 1745" transform="translate(303.32 1283.51)">
      <path id="Path_4169" data-name="Path 4169" d="M372.919,1279.51H329.237a29.116,29.116,0,0,0-29.117,29.122v62.5l16.689-16.689a7.273,7.273,0,0,1,5.145-2.133h50.961a29.118,29.118,0,0,0,29.117-29.117v-14.561A29.121,29.121,0,0,0,372.919,1279.51Zm-1.823,40.534a2.031,2.031,0,0,1-2.032,2.031H357.287v11.778a2.031,2.031,0,0,1-2.031,2.032H346.9a2.031,2.031,0,0,1-2.032-2.032v-11.778H333.086a2.031,2.031,0,0,1-2.032-2.031v-8.365a2.031,2.031,0,0,1,2.032-2.032h11.778V1297.87a2.031,2.031,0,0,1,2.032-2.031h8.36a2.031,2.031,0,0,1,2.031,2.031v11.778h11.778a2.031,2.031,0,0,1,2.032,2.032Z" transform="translate(-300.12 -1279.51)" fill="#d6ccfe" fill-rule="evenodd"/>
      <path id="Path_4170" data-name="Path 4170" d="M557.358,1336.85H530.349a18.007,18.007,0,0,0-18,18.01v9a18,18,0,0,0,18,18h31.509a4.5,4.5,0,0,1,3.179,1.32l10.32,10.32v-38.644A18,18,0,0,0,557.358,1336.85Zm-9.721,37.035h-.005a1.191,1.191,0,0,1-1.1,1.28l-2.92.239h-.091a1.192,1.192,0,1,1-.086-2.382l2.946-.239a1.176,1.176,0,0,1,1.254,1.092Zm2.59-4.561a1.2,1.2,0,0,1-1.107,1.285l-8.131.594H540.9a1.192,1.192,0,0,1-.091-2.382l8.131-.594a1.16,1.16,0,0,1,1.28,1.031c.005.025.005.046.01.066Zm.152-7.984v2.23a1.256,1.256,0,0,1-1.168,1.193l-8.187.655h-.117a1.326,1.326,0,0,1-1.285-1.194v-2.92a8.188,8.188,0,0,1-3.576-7.12,8.952,8.952,0,1,1,17.9.005A8.89,8.89,0,0,1,550.38,1361.34Z" transform="translate(-404.562 -1307.728)" fill="#d6ccfe" fill-rule="evenodd"/>
    </g>
    <g id="Group_1744" data-name="Group 1744" transform="translate(300.12 1279.51)">
      <path id="Path_4169-2" data-name="Path 4169" d="M372.919,1279.51H329.237a29.116,29.116,0,0,0-29.117,29.122v62.5l16.689-16.689a7.273,7.273,0,0,1,5.145-2.133h50.961a29.118,29.118,0,0,0,29.117-29.117v-14.561A29.121,29.121,0,0,0,372.919,1279.51Zm-1.823,40.534a2.031,2.031,0,0,1-2.032,2.031H357.287v11.778a2.031,2.031,0,0,1-2.031,2.032H346.9a2.031,2.031,0,0,1-2.032-2.032v-11.778H333.086a2.031,2.031,0,0,1-2.032-2.031v-8.365a2.031,2.031,0,0,1,2.032-2.032h11.778V1297.87a2.031,2.031,0,0,1,2.032-2.031h8.36a2.031,2.031,0,0,1,2.031,2.031v11.778h11.778a2.031,2.031,0,0,1,2.032,2.032Z" transform="translate(-300.12 -1279.51)" fill="#5c4897" fill-rule="evenodd"/>
      <path id="Path_4170-2" data-name="Path 4170" d="M557.358,1336.85H530.349a18.007,18.007,0,0,0-18,18.01v9a18,18,0,0,0,18,18h31.509a4.5,4.5,0,0,1,3.179,1.32l10.32,10.32v-38.644A18,18,0,0,0,557.358,1336.85Zm-9.721,37.035h-.005a1.191,1.191,0,0,1-1.1,1.28l-2.92.239h-.091a1.192,1.192,0,1,1-.086-2.382l2.946-.239a1.176,1.176,0,0,1,1.254,1.092Zm2.59-4.561a1.2,1.2,0,0,1-1.107,1.285l-8.131.594H540.9a1.192,1.192,0,0,1-.091-2.382l8.131-.594a1.16,1.16,0,0,1,1.28,1.031c.005.025.005.046.01.066Zm.152-7.984v2.23a1.256,1.256,0,0,1-1.168,1.193l-8.187.655h-.117a1.326,1.326,0,0,1-1.285-1.194v-2.92a8.188,8.188,0,0,1-3.576-7.12,8.952,8.952,0,1,1,17.9.005A8.89,8.89,0,0,1,550.38,1361.34Z" transform="translate(-404.562 -1307.728)" fill="#5c4897" fill-rule="evenodd"/>
    </g>
  </g>
</svg>
