<svg xmlns="http://www.w3.org/2000/svg" width="68.563" height="78.189" viewBox="0 0 68.563 78.189">
  <g id="Group_1579" data-name="Group 1579" transform="translate(1377.021 -165.021)">
    <g id="Group_1581" data-name="Group 1581" transform="translate(-1375.455 168.155)">
      <g id="Group_1577" data-name="Group 1577" transform="translate(0 0)">
        <path id="Path_4071" data-name="Path 4071" d="M-1332.432,293.038l-.73,2.687c-4.785-1.989-11.7-1.116-15.511,3.929a12.092,12.092,0,0,0-1.617,12.329c.02.05.038.1.059.147a.134.134,0,0,0,.012.023,1.558,1.558,0,0,0,.12.231.065.065,0,0,1,.009.015,17.343,17.343,0,0,0,1.623,2.622c.41.457.627.721.87.961q2.285,2.268,4.571,4.538c-5.335.018-12.684.038-12.927.038q-9.054,0-18.1,0c-2.115,0-2.971-.812-2.945-2.883.053-4.081-.205-8.21.319-12.236a15.146,15.146,0,0,1,14.9-12.9c8.564-.065,17.132-.088,25.7.018A15.023,15.023,0,0,1-1332.432,293.038Z" transform="translate(1377.021 -255.137)" fill="#d6ccfe"/>
        <path id="Path_4072" data-name="Path 4072" d="M-1334.357,180.557a15.53,15.53,0,0,1,15.627-15.535,15.529,15.529,0,0,1,15.471,15.545,15.578,15.578,0,0,1-15.554,15.63A15.582,15.582,0,0,1-1334.357,180.557Z" transform="translate(1346.858 -165.022)" fill="#d6ccfe"/>
      </g>
      <g id="FZs3Ik.tif" transform="translate(29.158 42.192)">
        <g id="Group_1578" data-name="Group 1578" transform="translate(0)">
          <path id="Path_4073" data-name="Path 4073" d="M-1240.536,324.014a.926.926,0,0,1-1,.686c-2.136-.035-4.275.006-6.411-.035a2.054,2.054,0,0,1-1.131-.434c-.864-.671-1.664-1.424-2.508-2.121a2.248,2.248,0,0,0-3.572.5c-.771,1.122-1.518,2.262-2.282,3.387-.155.232-.352.434-.607.741-.223-.334-.4-.56-.533-.806-.771-1.371-1.541-2.745-2.294-4.128a2.3,2.3,0,0,0-2.013-1.377.878.878,0,0,0-.152,0,2.226,2.226,0,0,0-.316.029,2.31,2.31,0,0,0-1.764,1.477,19.987,19.987,0,0,1-.991,2.007,1.193,1.193,0,0,1-.823.542c-1.966.026-3.932.021-5.9.026q-1.5,0-3,.012c-.527,0-.689-.281-.841-.671A10.245,10.245,0,0,1-1275.3,313.4c4.052-5.368,11.436-5.872,15.845-1.143.258.275.5.571.8.923l.1.117c.214-.281.434-.551.662-.806a10,10,0,0,1,3.651-2.655,10.109,10.109,0,0,1,1.383-.472,10.728,10.728,0,0,1,13.05,8.611A10.9,10.9,0,0,1-1240.536,324.014Z" transform="translate(1277.505 -309.022)" fill="#d6ccfe"/>
          <path id="Path_4074" data-name="Path 4074" d="M-1236.444,358.333c-.3.337-.469.548-.659.735q-6.852,6.795-13.707,13.589a2.581,2.581,0,0,1-3.955.067q-4.448-4.391-8.878-8.8-2.5-2.483-5-4.963c-.205-.2-.39-.428-.735-.815h5.259c1.04,0,2.083-.006,3.123,0a2.353,2.353,0,0,0,2.326-1.509c.3-.656.612-1.3.932-1.948.111-.229.261-.437.481-.794a9.186,9.186,0,0,1,.56.785c.782,1.395,1.544,2.8,2.332,4.2a2.262,2.262,0,0,0,4.111.152c.753-1.1,1.526-2.192,2.221-3.328.419-.689.75-.653,1.283-.144.712.68,1.512,1.272,2.23,1.948a3.054,3.054,0,0,0,2.256.829C-1240.4,358.315-1238.533,358.333-1236.444,358.333Z" transform="translate(1271.761 -340.751)" fill="#d6ccfe"/>
        </g>
      </g>
    </g>
    <g id="Group_1580" data-name="Group 1580" transform="translate(-1377.021 165.021)">
      <g id="Group_1577-2" data-name="Group 1577">
        <path id="Path_4071-2" data-name="Path 4071" d="M-1332.432,293.038l-.73,2.687c-4.785-1.989-11.7-1.116-15.511,3.929a12.092,12.092,0,0,0-1.617,12.329c.02.05.038.1.059.147a.134.134,0,0,0,.012.023,1.558,1.558,0,0,0,.12.231.065.065,0,0,1,.009.015,17.343,17.343,0,0,0,1.623,2.622c.41.457.627.721.87.961q2.285,2.268,4.571,4.538c-5.335.018-12.684.038-12.927.038q-9.054,0-18.1,0c-2.115,0-2.971-.812-2.945-2.883.053-4.081-.205-8.21.319-12.236a15.146,15.146,0,0,1,14.9-12.9c8.564-.065,17.132-.088,25.7.018A15.023,15.023,0,0,1-1332.432,293.038Z" transform="translate(1377.021 -255.137)" fill="#5c4897"/>
        <path id="Path_4072-2" data-name="Path 4072" d="M-1334.357,180.557a15.53,15.53,0,0,1,15.627-15.535,15.529,15.529,0,0,1,15.471,15.545,15.578,15.578,0,0,1-15.554,15.63A15.582,15.582,0,0,1-1334.357,180.557Z" transform="translate(1346.858 -165.022)" fill="#5c4897"/>
      </g>
      <g id="FZs3Ik.tif-2" data-name="FZs3Ik.tif" transform="translate(29.158 42.192)">
        <g id="Group_1578-2" data-name="Group 1578" transform="translate(0)">
          <path id="Path_4073-2" data-name="Path 4073" d="M-1240.536,324.014a.926.926,0,0,1-1,.686c-2.136-.035-4.275.006-6.411-.035a2.054,2.054,0,0,1-1.131-.434c-.864-.671-1.664-1.424-2.508-2.121a2.248,2.248,0,0,0-3.572.5c-.771,1.122-1.518,2.262-2.282,3.387-.155.232-.352.434-.607.741-.223-.334-.4-.56-.533-.806-.771-1.371-1.541-2.745-2.294-4.128a2.3,2.3,0,0,0-2.013-1.377.878.878,0,0,0-.152,0,2.226,2.226,0,0,0-.316.029,2.31,2.31,0,0,0-1.764,1.477,19.987,19.987,0,0,1-.991,2.007,1.193,1.193,0,0,1-.823.542c-1.966.026-3.932.021-5.9.026q-1.5,0-3,.012c-.527,0-.689-.281-.841-.671A10.245,10.245,0,0,1-1275.3,313.4c4.052-5.368,11.436-5.872,15.845-1.143.258.275.5.571.8.923l.1.117c.214-.281.434-.551.662-.806a10,10,0,0,1,3.651-2.655,10.109,10.109,0,0,1,1.383-.472,10.728,10.728,0,0,1,13.05,8.611A10.9,10.9,0,0,1-1240.536,324.014Z" transform="translate(1277.505 -309.022)" fill="#5c4897"/>
          <path id="Path_4074-2" data-name="Path 4074" d="M-1236.444,358.333c-.3.337-.469.548-.659.735q-6.852,6.795-13.707,13.589a2.581,2.581,0,0,1-3.955.067q-4.448-4.391-8.878-8.8-2.5-2.483-5-4.963c-.205-.2-.39-.428-.735-.815h5.259c1.04,0,2.083-.006,3.123,0a2.353,2.353,0,0,0,2.326-1.509c.3-.656.612-1.3.932-1.948.111-.229.261-.437.481-.794a9.186,9.186,0,0,1,.56.785c.782,1.395,1.544,2.8,2.332,4.2a2.262,2.262,0,0,0,4.111.152c.753-1.1,1.526-2.192,2.221-3.328.419-.689.75-.653,1.283-.144.712.68,1.512,1.272,2.23,1.948a3.054,3.054,0,0,0,2.256.829C-1240.4,358.315-1238.533,358.333-1236.444,358.333Z" transform="translate(1271.761 -340.751)" fill="#5c4897"/>
        </g>
      </g>
    </g>
  </g>
</svg>
