<svg xmlns="http://www.w3.org/2000/svg" width="86.548" height="76.492" viewBox="0 0 86.548 76.492">
  <g id="Group_1738" data-name="Group 1738" transform="translate(-119.508 -764.456)">
    <g id="Group_1737" data-name="Group 1737" transform="translate(3 2)">
      <g id="Group_1733" data-name="Group 1733" transform="translate(119.508 794.984)">
        <path id="Path_4157" data-name="Path 4157" d="M131.219,932.636a2.782,2.782,0,0,1,.184-.278c1.346-1.541,2.366-1.761,3.977-.079,2.539,2.65,5.164,5.219,7.78,7.8a5.779,5.779,0,0,1,1.8,4.216c.025,2.555.007,5.109,0,7.664,0,.159-.024.318-.044.555h-9.06c0-.67-.053-1.319.011-1.956a3.135,3.135,0,0,0-1.509-3.06c-2.672-1.953-5.246-4.038-7.907-6.007a7.108,7.108,0,0,1-2.763-4.139c-1.276-4.972-2.638-9.923-3.964-14.882a7.212,7.212,0,0,1-.2-.859,1.833,1.833,0,0,1,1.329-2.028,1.719,1.719,0,0,1,2.093.84,4.95,4.95,0,0,1,.382,1c1.115,3.728,2.209,7.462,3.35,11.181a3.85,3.85,0,0,0,.848,1.509c1.959,2.027,4.009,3.966,5.941,6.018a1.925,1.925,0,0,0,3.074-.4,1.807,1.807,0,0,0-.48-2.227c-1.383-1.4-2.785-2.778-4.176-4.168C131.658,933.112,131.443,932.872,131.219,932.636Z" transform="translate(-119.508 -919.487)" fill="#d6ccfe"/>
        <path id="Path_4158" data-name="Path 4158" d="M184,1113.354c0-1.842-.023-3.605.009-5.369a1.773,1.773,0,0,1,1.793-1.827c.2-.016.393-.008.59-.008q5.8,0,11.6,0c1.772,0,2.362.589,2.368,2.35,0,1.6,0,3.2,0,4.854Z" transform="translate(-171.295 -1069.391)" fill="#d6ccfe"/>
      </g>
      <g id="Group_1734" data-name="Group 1734" transform="translate(173.984 794.984)">
        <path id="Path_4159" data-name="Path 4159" d="M428.215,932.636a2.772,2.772,0,0,0-.184-.278c-1.346-1.541-2.365-1.761-3.977-.079-2.539,2.65-5.164,5.219-7.78,7.8a5.779,5.779,0,0,0-1.8,4.216c-.025,2.555-.007,5.109-.005,7.664,0,.159.024.318.044.555h9.06c0-.67.053-1.319-.011-1.956a3.135,3.135,0,0,1,1.509-3.06c2.672-1.953,5.246-4.038,7.906-6.007a7.109,7.109,0,0,0,2.763-4.139c1.276-4.972,2.637-9.923,3.964-14.882a7.214,7.214,0,0,0,.2-.859,1.833,1.833,0,0,0-1.329-2.028,1.719,1.719,0,0,0-2.092.84,4.938,4.938,0,0,0-.382,1c-1.115,3.728-2.209,7.462-3.35,11.181a3.85,3.85,0,0,1-.848,1.509c-1.959,2.027-4.009,3.966-5.941,6.018a1.925,1.925,0,0,1-3.074-.4,1.807,1.807,0,0,1,.48-2.227c1.382-1.4,2.785-2.778,4.176-4.168C427.777,933.112,427.992,932.872,428.215,932.636Z" transform="translate(-410.856 -919.487)" fill="#d6ccfe"/>
        <path id="Path_4160" data-name="Path 4160" d="M412.515,1113.354c0-1.842.023-3.605-.009-5.369a1.773,1.773,0,0,0-1.793-1.827c-.2-.016-.393-.008-.59-.008q-5.8,0-11.6,0c-1.772,0-2.362.589-2.368,2.35,0,1.6,0,3.2,0,4.854Z" transform="translate(-396.151 -1069.391)" fill="#d6ccfe"/>
      </g>
      <path id="Path_4161" data-name="Path 4161" d="M246.082,776.79a16.375,16.375,0,0,0-22.358-10.966,17.881,17.881,0,0,0-4.648,3.084,47.452,47.452,0,0,0-4.394-2.812,15.4,15.4,0,0,0-9.764-1.382,16.14,16.14,0,0,0-11.277,7.646,17.992,17.992,0,0,0-2.36,10.955,30.312,30.312,0,0,0,7.832,18.457,58.1,58.1,0,0,0,16.569,12.782,5.992,5.992,0,0,0,5.039.534,24.926,24.926,0,0,0,3.949-1.944,55.014,55.014,0,0,0,13.506-10.705c3.825-4.3,6.727-9.1,7.844-14.838A24.831,24.831,0,0,0,246.082,776.79ZM228.3,791.781a.95.95,0,0,1-.95.95h-5.506v5.506a.95.95,0,0,1-.95.95h-3.909a.95.95,0,0,1-.95-.95V792.73h-5.506a.95.95,0,0,1-.95-.95v-3.909a.95.95,0,0,1,.95-.95h5.506v-5.506a.95.95,0,0,1,.95-.95H220.9a.95.95,0,0,1,.95.95v5.506h5.506a.95.95,0,0,1,.95.95Z" transform="translate(-57.599)" fill="#d6ccfe"/>
    </g>
    <g id="Group_1736" data-name="Group 1736">
      <g id="Group_1733-2" data-name="Group 1733" transform="translate(119.508 794.984)">
        <path id="Path_4157-2" data-name="Path 4157" d="M131.219,932.636a2.782,2.782,0,0,1,.184-.278c1.346-1.541,2.366-1.761,3.977-.079,2.539,2.65,5.164,5.219,7.78,7.8a5.779,5.779,0,0,1,1.8,4.216c.025,2.555.007,5.109,0,7.664,0,.159-.024.318-.044.555h-9.06c0-.67-.053-1.319.011-1.956a3.135,3.135,0,0,0-1.509-3.06c-2.672-1.953-5.246-4.038-7.907-6.007a7.108,7.108,0,0,1-2.763-4.139c-1.276-4.972-2.638-9.923-3.964-14.882a7.212,7.212,0,0,1-.2-.859,1.833,1.833,0,0,1,1.329-2.028,1.719,1.719,0,0,1,2.093.84,4.95,4.95,0,0,1,.382,1c1.115,3.728,2.209,7.462,3.35,11.181a3.85,3.85,0,0,0,.848,1.509c1.959,2.027,4.009,3.966,5.941,6.018a1.925,1.925,0,0,0,3.074-.4,1.807,1.807,0,0,0-.48-2.227c-1.383-1.4-2.785-2.778-4.176-4.168C131.658,933.112,131.443,932.872,131.219,932.636Z" transform="translate(-119.508 -919.487)" fill="#5c4a95"/>
        <path id="Path_4158-2" data-name="Path 4158" d="M184,1113.354c0-1.842-.023-3.605.009-5.369a1.773,1.773,0,0,1,1.793-1.827c.2-.016.393-.008.59-.008q5.8,0,11.6,0c1.772,0,2.362.589,2.368,2.35,0,1.6,0,3.2,0,4.854Z" transform="translate(-171.295 -1069.391)" fill="#5c4a95"/>
      </g>
      <g id="Group_1734-2" data-name="Group 1734" transform="translate(173.984 794.984)">
        <path id="Path_4159-2" data-name="Path 4159" d="M428.215,932.636a2.772,2.772,0,0,0-.184-.278c-1.346-1.541-2.365-1.761-3.977-.079-2.539,2.65-5.164,5.219-7.78,7.8a5.779,5.779,0,0,0-1.8,4.216c-.025,2.555-.007,5.109-.005,7.664,0,.159.024.318.044.555h9.06c0-.67.053-1.319-.011-1.956a3.135,3.135,0,0,1,1.509-3.06c2.672-1.953,5.246-4.038,7.906-6.007a7.109,7.109,0,0,0,2.763-4.139c1.276-4.972,2.637-9.923,3.964-14.882a7.214,7.214,0,0,0,.2-.859,1.833,1.833,0,0,0-1.329-2.028,1.719,1.719,0,0,0-2.092.84,4.938,4.938,0,0,0-.382,1c-1.115,3.728-2.209,7.462-3.35,11.181a3.85,3.85,0,0,1-.848,1.509c-1.959,2.027-4.009,3.966-5.941,6.018a1.925,1.925,0,0,1-3.074-.4,1.807,1.807,0,0,1,.48-2.227c1.382-1.4,2.785-2.778,4.176-4.168C427.777,933.112,427.992,932.872,428.215,932.636Z" transform="translate(-410.856 -919.487)" fill="#5c4a95"/>
        <path id="Path_4160-2" data-name="Path 4160" d="M412.515,1113.354c0-1.842.023-3.605-.009-5.369a1.773,1.773,0,0,0-1.793-1.827c-.2-.016-.393-.008-.59-.008q-5.8,0-11.6,0c-1.772,0-2.362.589-2.368,2.35,0,1.6,0,3.2,0,4.854Z" transform="translate(-396.151 -1069.391)" fill="#5c4a95"/>
      </g>
      <path id="Path_4161-2" data-name="Path 4161" d="M246.082,776.79a16.375,16.375,0,0,0-22.358-10.966,17.881,17.881,0,0,0-4.648,3.084,47.452,47.452,0,0,0-4.394-2.812,15.4,15.4,0,0,0-9.764-1.382,16.14,16.14,0,0,0-11.277,7.646,17.992,17.992,0,0,0-2.36,10.955,30.312,30.312,0,0,0,7.832,18.457,58.1,58.1,0,0,0,16.569,12.782,5.992,5.992,0,0,0,5.039.534,24.926,24.926,0,0,0,3.949-1.944,55.014,55.014,0,0,0,13.506-10.705c3.825-4.3,6.727-9.1,7.844-14.838A24.831,24.831,0,0,0,246.082,776.79ZM228.3,791.781a.95.95,0,0,1-.95.95h-5.506v5.506a.95.95,0,0,1-.95.95h-3.909a.95.95,0,0,1-.95-.95V792.73h-5.506a.95.95,0,0,1-.95-.95v-3.909a.95.95,0,0,1,.95-.95h5.506v-5.506a.95.95,0,0,1,.95-.95H220.9a.95.95,0,0,1,.95.95v5.506h5.506a.95.95,0,0,1,.95.95Z" transform="translate(-57.599)" fill="#5c4a95"/>
    </g>
  </g>
</svg>
