<svg xmlns="http://www.w3.org/2000/svg" width="91.656" height="93.191" viewBox="0 0 91.656 93.191">
  <g id="Group_1515" data-name="Group 1515" transform="translate(-1551.749 1142.23)">
    <g id="Group_1517" data-name="Group 1517" transform="translate(1554.821 -1138.134)">
      <path id="Path_3994-2" data-name="Path 3994-2" d="M1637.546-1065.68a1.413,1.413,0,0,1-.6-1.014c-.051-2.6-.041-5.213,0-7.824a1.314,1.314,0,0,1,.532-.952,4.374,4.374,0,0,0,1.884-5.8,4.379,4.379,0,0,0-5.868-2.018,1.485,1.485,0,0,1-1.2-.092q-3.333-2.227-6.585-4.6a1.463,1.463,0,0,1-.5-1.065,4.416,4.416,0,0,0-2.355-4.424,1.165,1.165,0,0,1-.543-.737c-.051-1.423-.02-2.847-.02-4.229a1.267,1.267,0,0,1,.225-.184c3.287-1.423,4.311-3.164,4.025-6.769a1.056,1.056,0,0,1,.44-.789c1.69-1.045,3.38-2.079,5.11-3.052a1.385,1.385,0,0,1,1.106.021c.061.031.113.061.174.092a4.389,4.389,0,0,0,5.929-1.8,4.387,4.387,0,0,0-1.8-5.929,1.2,1.2,0,0,1-.553-.84c-.051-1.741-.051-3.472,0-5.213a1.115,1.115,0,0,1,.481-.778c2.284-1.434,3.042-3.8,1.874-5.991a4.445,4.445,0,0,0-5.858-1.823,1.349,1.349,0,0,1-1.106-.082q-3.41-2.3-6.759-4.721a1.208,1.208,0,0,1-.389-.922,4.264,4.264,0,0,0,0-1.2,4.4,4.4,0,0,0-4.946-3.779,4.4,4.4,0,0,0-3.789,4.946,1.34,1.34,0,0,1-.44.993c-2.2,1.6-4.424,3.144-6.677,4.67a1.391,1.391,0,0,1-1.106.1,4.717,4.717,0,0,0-4.035-.021,1.345,1.345,0,0,1-1.106-.072c-2.253-1.516-4.485-3.072-6.677-4.67a1.39,1.39,0,0,1-.461-1.075,4.117,4.117,0,0,0,.031-.5,4.41,4.41,0,0,0-4.393-4.414,4.543,4.543,0,0,0-.645.041,4.314,4.314,0,0,0-3.717,4.834,1.141,1.141,0,0,1-.625,1.249c-2.14,1.485-4.291,2.97-6.411,4.485a1.5,1.5,0,0,1-1.424.113,7.467,7.467,0,0,0-3.226-.277,4.373,4.373,0,0,0-3.2,5.233,4.541,4.541,0,0,0,4.824,3.574,4.538,4.538,0,0,0,4.158-4.905,1.582,1.582,0,0,1,.4-1.208c2.212-1.628,4.475-3.2,6.749-4.741a1.215,1.215,0,0,1,1.014-.1,4.642,4.642,0,0,0,4.127.01,1.211,1.211,0,0,1,1.014.082q3.426,2.3,6.759,4.731a1.371,1.371,0,0,1,.43,1,4.416,4.416,0,0,0,2.355,4.424,1.2,1.2,0,0,1,.532.84c.051,1.71.051,3.41,0,5.12a1.227,1.227,0,0,1-.512.86,4.6,4.6,0,0,0-2.417,4.107,1.451,1.451,0,0,1-.584,1.044c-2.028,1.28-4.107,2.489-6.155,3.748a1.156,1.156,0,0,1-1.321,0,.407.407,0,0,0-.092-.051,4.3,4.3,0,0,0-5.868,1.649c-.021.031-.031.051-.051.082a4.392,4.392,0,0,0,1.792,5.95,1.37,1.37,0,0,1,.573.932q.077,2.5,0,5.008a1.29,1.29,0,0,1-.563.932,4.414,4.414,0,0,0-1.813,5.94,4.338,4.338,0,0,0,5.735,1.864,1.205,1.205,0,0,1,1.413.143q3.2,2.258,6.421,4.485a1.183,1.183,0,0,1,.584,1.27,4.925,4.925,0,0,0,0,.952,4.367,4.367,0,0,0,4.834,3.851,4.363,4.363,0,0,0,3.851-4.823,1.093,1.093,0,0,1,.522-1.2c2.2-1.516,4.383-3.083,6.605-4.578a1.423,1.423,0,0,1,1.188-.092,4.8,4.8,0,0,0,3.953-.01,1.506,1.506,0,0,1,1.188.1c2.192,1.475,4.342,3.021,6.523,4.526a1.183,1.183,0,0,1,.594,1.27,4,4,0,0,0,2.161,4.168,1.172,1.172,0,0,1,.727,1.2c-.031,2.54-.021,5.079,0,7.619a1.079,1.079,0,0,1-.625,1.147,4.253,4.253,0,0,0-2.171,4.854,4.366,4.366,0,0,0,3.144,3.2,4.365,4.365,0,0,0,5.335-3.113A4.415,4.415,0,0,0,1637.546-1065.68Zm-29.873-57.062a1.311,1.311,0,0,1,.553-.932,4.446,4.446,0,0,0,2.335-4.444,1.218,1.218,0,0,1,.358-.932q3.379-2.458,6.841-4.793a1.172,1.172,0,0,1,1.014-.061,4.682,4.682,0,0,0,4.035.021,1.386,1.386,0,0,1,1.106.061q3.41,2.32,6.759,4.731a1.217,1.217,0,0,1,.4.922,4.428,4.428,0,0,0,2.376,4.516,1.206,1.206,0,0,1,.512.85c.051,1.71.051,3.41,0,5.12a1.184,1.184,0,0,1-.543.84,4.551,4.551,0,0,0-2.376,4.127,1.26,1.26,0,0,1-.44.922c-1.854,1.167-3.748,2.273-5.643,3.41h-.01a5.965,5.965,0,0,0-5.95-1.341,2.632,2.632,0,0,0-1.126.512c-.952,1.034-1.772.563-2.693-.041-1.311-.86-2.7-1.6-4-2.458a1.528,1.528,0,0,1-.584-1.044,4.61,4.61,0,0,0-2.325-4.055,1.442,1.442,0,0,1-.594-1.024C1607.612-1119.465,1607.622-1121.1,1607.673-1122.742Zm10.313,29.893a3.509,3.509,0,0,0-1.516,3.656,1.164,1.164,0,0,1-.553,1.29c-2.181,1.5-4.332,3.042-6.523,4.506a1.557,1.557,0,0,1-1.28.092,4.373,4.373,0,0,0-3.83.051,1.175,1.175,0,0,1-1.413-.174q-3.1-2.212-6.237-4.373c-.553-.379-1.034-.737-.676-1.464a4.207,4.207,0,0,0-2.243-4.086,1.157,1.157,0,0,1-.7-1.219c.031-1.567.031-3.123,0-4.69a1.06,1.06,0,0,1,.645-1.137,4.367,4.367,0,0,0,2.314-3.932,1.583,1.583,0,0,1,.614-1.126q3.042-1.92,6.165-3.717a1.455,1.455,0,0,1,1.188-.01,4.567,4.567,0,0,0,4.5,0,1.456,1.456,0,0,1,1.188.01q2.55,1.429,5.008,3a1.2,1.2,0,0,1,.42.983,5.674,5.674,0,0,0,3.656,6.411.854.854,0,0,1,.645.993,14.286,14.286,0,0,0,0,1.874C1619.461-1094.631,1619.358-1093.617,1617.986-1092.849Z" transform="translate(-1551.256 1142.23)" fill="#d6ccfe"/>
      <path id="Path_4006" data-name="Path 4006" d="M1615.989-1094.079a3.072,3.072,0,0,0-1.327,3.2,1.018,1.018,0,0,1-.484,1.13c-1.909,1.309-3.791,2.663-5.709,3.944a1.363,1.363,0,0,1-1.12.081,3.827,3.827,0,0,0-3.353.045,1.03,1.03,0,0,1-1.237-.153q-2.716-1.937-5.459-3.828c-.483-.331-.905-.645-.591-1.281a3.683,3.683,0,0,0-1.963-3.577,1.01,1.01,0,0,1-.609-1.066c.027-1.372.027-2.734,0-4.106a.928.928,0,0,1,.564-1,3.82,3.82,0,0,0,2.026-3.442,1.387,1.387,0,0,1,.538-.986q2.664-1.681,5.4-3.254a1.273,1.273,0,0,1,1.039-.009,4,4,0,0,0,3.936,0,1.273,1.273,0,0,1,1.039.009q2.232,1.25,4.383,2.626a1.051,1.051,0,0,1,.368.861,4.968,4.968,0,0,0,3.2,5.611.748.748,0,0,1,.565.869,12.554,12.554,0,0,0,0,1.641A2.366,2.366,0,0,1,1615.989-1094.079Z" transform="translate(-1550.728 1143.042)" fill="#d6ccfe"/>
      <path id="Path_4007" data-name="Path 4007" d="M1631.515-1118.333a1.041,1.041,0,0,1-.478.739,4.005,4.005,0,0,0-2.09,3.631,1.109,1.109,0,0,1-.388.811c-1.631,1.028-3.3,2-4.966,3h-.008a5.249,5.249,0,0,0-5.236-1.181,2.307,2.307,0,0,0-.991.451c-.839.91-1.56.5-2.371-.036-1.153-.757-2.379-1.406-3.523-2.163a1.344,1.344,0,0,1-.514-.92,4.057,4.057,0,0,0-2.046-3.569,1.268,1.268,0,0,1-.522-.9c-.054-1.433-.045-2.875,0-4.317a1.153,1.153,0,0,1,.486-.82,3.913,3.913,0,0,0,2.055-3.911,1.069,1.069,0,0,1,.315-.82q2.974-2.163,6.019-4.217a1.032,1.032,0,0,1,.892-.054,4.12,4.12,0,0,0,3.551.018,1.217,1.217,0,0,1,.974.054q3,2.04,5.948,4.163a1.072,1.072,0,0,1,.351.811,3.9,3.9,0,0,0,2.091,3.974,1.066,1.066,0,0,1,.451.748C1631.56-1121.334,1631.56-1119.838,1631.515-1118.333Z" transform="translate(-1550.386 1142.46)" fill="#d6ccfe"/>
      <path id="Path_3995-2" data-name="Path 3995-2" d="M1558.355-1070.328v-12.659l-4.568,4.879-2.038-2.256a3.8,3.8,0,0,1,.377-.473q3.169-3.177,6.349-6.342c1.08-1.067,1.682-1.079,2.745-.033,2.151,2.125,4.289,4.269,6.427,6.412a6.941,6.941,0,0,1,.479.6l-2.065,2.067-4.4-4.771-.268.2v12.335c4.586,1.981,6.462,4.934,5.587,8.808a7.3,7.3,0,0,1-8.7,5.566,7.3,7.3,0,0,1-5.672-6.121C1552.019-1065.728,1554.146-1068.792,1558.355-1070.328Z" transform="translate(-1551.749 1143.536)" fill="#d6ccfe"/>
      <path id="Path_3996-2" data-name="Path 3996-2" d="M1576.91-1061.674v-10.331c-4.365-1.731-6.413-4.767-5.705-8.419a7.31,7.31,0,0,1,8.408-6.009,7.305,7.305,0,0,1,6.032,6.1c.657,3.618-1.422,6.658-5.764,8.334v10.281h4.336v2.912h-4.3v4.33H1577v-4.249h-4.364v-2.949Z" transform="translate(-1551.284 1143.571)" fill="#d6ccfe"/>
    </g>
    <g id="Group_1516" data-name="Group 1516" transform="translate(1551.749 -1142.23)">
      <path id="Path_3994-2-2" data-name="Path 3994-2" d="M1637.546-1065.68a1.413,1.413,0,0,1-.6-1.014c-.051-2.6-.041-5.213,0-7.824a1.314,1.314,0,0,1,.532-.952,4.374,4.374,0,0,0,1.884-5.8,4.379,4.379,0,0,0-5.868-2.018,1.485,1.485,0,0,1-1.2-.092q-3.333-2.227-6.585-4.6a1.463,1.463,0,0,1-.5-1.065,4.416,4.416,0,0,0-2.355-4.424,1.165,1.165,0,0,1-.543-.737c-.051-1.423-.02-2.847-.02-4.229a1.267,1.267,0,0,1,.225-.184c3.287-1.423,4.311-3.164,4.025-6.769a1.056,1.056,0,0,1,.44-.789c1.69-1.045,3.38-2.079,5.11-3.052a1.385,1.385,0,0,1,1.106.021c.061.031.113.061.174.092a4.389,4.389,0,0,0,5.929-1.8,4.387,4.387,0,0,0-1.8-5.929,1.2,1.2,0,0,1-.553-.84c-.051-1.741-.051-3.472,0-5.213a1.115,1.115,0,0,1,.481-.778c2.284-1.434,3.042-3.8,1.874-5.991a4.445,4.445,0,0,0-5.858-1.823,1.349,1.349,0,0,1-1.106-.082q-3.41-2.3-6.759-4.721a1.208,1.208,0,0,1-.389-.922,4.264,4.264,0,0,0,0-1.2,4.4,4.4,0,0,0-4.946-3.779,4.4,4.4,0,0,0-3.789,4.946,1.34,1.34,0,0,1-.44.993c-2.2,1.6-4.424,3.144-6.677,4.67a1.391,1.391,0,0,1-1.106.1,4.717,4.717,0,0,0-4.035-.021,1.345,1.345,0,0,1-1.106-.072c-2.253-1.516-4.485-3.072-6.677-4.67a1.39,1.39,0,0,1-.461-1.075,4.117,4.117,0,0,0,.031-.5,4.41,4.41,0,0,0-4.393-4.414,4.543,4.543,0,0,0-.645.041,4.314,4.314,0,0,0-3.717,4.834,1.141,1.141,0,0,1-.625,1.249c-2.14,1.485-4.291,2.97-6.411,4.485a1.5,1.5,0,0,1-1.424.113,7.467,7.467,0,0,0-3.226-.277,4.373,4.373,0,0,0-3.2,5.233,4.541,4.541,0,0,0,4.824,3.574,4.538,4.538,0,0,0,4.158-4.905,1.582,1.582,0,0,1,.4-1.208c2.212-1.628,4.475-3.2,6.749-4.741a1.215,1.215,0,0,1,1.014-.1,4.642,4.642,0,0,0,4.127.01,1.211,1.211,0,0,1,1.014.082q3.426,2.3,6.759,4.731a1.371,1.371,0,0,1,.43,1,4.416,4.416,0,0,0,2.355,4.424,1.2,1.2,0,0,1,.532.84c.051,1.71.051,3.41,0,5.12a1.227,1.227,0,0,1-.512.86,4.6,4.6,0,0,0-2.417,4.107,1.451,1.451,0,0,1-.584,1.044c-2.028,1.28-4.107,2.489-6.155,3.748a1.156,1.156,0,0,1-1.321,0,.407.407,0,0,0-.092-.051,4.3,4.3,0,0,0-5.868,1.649c-.021.031-.031.051-.051.082a4.392,4.392,0,0,0,1.792,5.95,1.37,1.37,0,0,1,.573.932q.077,2.5,0,5.008a1.29,1.29,0,0,1-.563.932,4.414,4.414,0,0,0-1.813,5.94,4.338,4.338,0,0,0,5.735,1.864,1.205,1.205,0,0,1,1.413.143q3.2,2.258,6.421,4.485a1.183,1.183,0,0,1,.584,1.27,4.925,4.925,0,0,0,0,.952,4.367,4.367,0,0,0,4.834,3.851,4.363,4.363,0,0,0,3.851-4.823,1.093,1.093,0,0,1,.522-1.2c2.2-1.516,4.383-3.083,6.605-4.578a1.423,1.423,0,0,1,1.188-.092,4.8,4.8,0,0,0,3.953-.01,1.506,1.506,0,0,1,1.188.1c2.192,1.475,4.342,3.021,6.523,4.526a1.183,1.183,0,0,1,.594,1.27,4,4,0,0,0,2.161,4.168,1.172,1.172,0,0,1,.727,1.2c-.031,2.54-.021,5.079,0,7.619a1.079,1.079,0,0,1-.625,1.147,4.253,4.253,0,0,0-2.171,4.854,4.366,4.366,0,0,0,3.144,3.2,4.365,4.365,0,0,0,5.335-3.113A4.415,4.415,0,0,0,1637.546-1065.68Zm-29.873-57.062a1.311,1.311,0,0,1,.553-.932,4.446,4.446,0,0,0,2.335-4.444,1.218,1.218,0,0,1,.358-.932q3.379-2.458,6.841-4.793a1.172,1.172,0,0,1,1.014-.061,4.682,4.682,0,0,0,4.035.021,1.386,1.386,0,0,1,1.106.061q3.41,2.32,6.759,4.731a1.217,1.217,0,0,1,.4.922,4.428,4.428,0,0,0,2.376,4.516,1.206,1.206,0,0,1,.512.85c.051,1.71.051,3.41,0,5.12a1.184,1.184,0,0,1-.543.84,4.551,4.551,0,0,0-2.376,4.127,1.26,1.26,0,0,1-.44.922c-1.854,1.167-3.748,2.273-5.643,3.41h-.01a5.965,5.965,0,0,0-5.95-1.341,2.632,2.632,0,0,0-1.126.512c-.952,1.034-1.772.563-2.693-.041-1.311-.86-2.7-1.6-4-2.458a1.528,1.528,0,0,1-.584-1.044,4.61,4.61,0,0,0-2.325-4.055,1.442,1.442,0,0,1-.594-1.024C1607.612-1119.465,1607.622-1121.1,1607.673-1122.742Zm10.313,29.893a3.509,3.509,0,0,0-1.516,3.656,1.164,1.164,0,0,1-.553,1.29c-2.181,1.5-4.332,3.042-6.523,4.506a1.557,1.557,0,0,1-1.28.092,4.373,4.373,0,0,0-3.83.051,1.175,1.175,0,0,1-1.413-.174q-3.1-2.212-6.237-4.373c-.553-.379-1.034-.737-.676-1.464a4.207,4.207,0,0,0-2.243-4.086,1.157,1.157,0,0,1-.7-1.219c.031-1.567.031-3.123,0-4.69a1.06,1.06,0,0,1,.645-1.137,4.367,4.367,0,0,0,2.314-3.932,1.583,1.583,0,0,1,.614-1.126q3.042-1.92,6.165-3.717a1.455,1.455,0,0,1,1.188-.01,4.567,4.567,0,0,0,4.5,0,1.456,1.456,0,0,1,1.188.01q2.55,1.429,5.008,3a1.2,1.2,0,0,1,.42.983,5.674,5.674,0,0,0,3.656,6.411.854.854,0,0,1,.645.993,14.286,14.286,0,0,0,0,1.874C1619.461-1094.631,1619.358-1093.617,1617.986-1092.849Z" transform="translate(-1551.256 1142.23)" fill="#5c4897"/>
      <path id="Path_4006-2" data-name="Path 4006" d="M1615.989-1094.079a3.072,3.072,0,0,0-1.327,3.2,1.018,1.018,0,0,1-.484,1.13c-1.909,1.309-3.791,2.663-5.709,3.944a1.363,1.363,0,0,1-1.12.081,3.827,3.827,0,0,0-3.353.045,1.03,1.03,0,0,1-1.237-.153q-2.716-1.937-5.459-3.828c-.483-.331-.905-.645-.591-1.281a3.683,3.683,0,0,0-1.963-3.577,1.01,1.01,0,0,1-.609-1.066c.027-1.372.027-2.734,0-4.106a.928.928,0,0,1,.564-1,3.82,3.82,0,0,0,2.026-3.442,1.387,1.387,0,0,1,.538-.986q2.664-1.681,5.4-3.254a1.273,1.273,0,0,1,1.039-.009,4,4,0,0,0,3.936,0,1.273,1.273,0,0,1,1.039.009q2.232,1.25,4.383,2.626a1.051,1.051,0,0,1,.368.861,4.968,4.968,0,0,0,3.2,5.611.748.748,0,0,1,.565.869,12.554,12.554,0,0,0,0,1.641A2.366,2.366,0,0,1,1615.989-1094.079Z" transform="translate(-1550.728 1143.042)" fill="#5c4897"/>
      <path id="Path_4007-2" data-name="Path 4007" d="M1631.515-1118.333a1.041,1.041,0,0,1-.478.739,4.005,4.005,0,0,0-2.09,3.631,1.109,1.109,0,0,1-.388.811c-1.631,1.028-3.3,2-4.966,3h-.008a5.249,5.249,0,0,0-5.236-1.181,2.307,2.307,0,0,0-.991.451c-.839.91-1.56.5-2.371-.036-1.153-.757-2.379-1.406-3.523-2.163a1.344,1.344,0,0,1-.514-.92,4.057,4.057,0,0,0-2.046-3.569,1.268,1.268,0,0,1-.522-.9c-.054-1.433-.045-2.875,0-4.317a1.153,1.153,0,0,1,.486-.82,3.913,3.913,0,0,0,2.055-3.911,1.069,1.069,0,0,1,.315-.82q2.974-2.163,6.019-4.217a1.032,1.032,0,0,1,.892-.054,4.12,4.12,0,0,0,3.551.018,1.217,1.217,0,0,1,.974.054q3,2.04,5.948,4.163a1.072,1.072,0,0,1,.351.811,3.9,3.9,0,0,0,2.091,3.974,1.066,1.066,0,0,1,.451.748C1631.56-1121.334,1631.56-1119.838,1631.515-1118.333Z" transform="translate(-1550.386 1142.46)" fill="#5c4897"/>
      <path id="Path_3995-2-2" data-name="Path 3995-2" d="M1558.355-1070.328v-12.659l-4.568,4.879-2.038-2.256a3.8,3.8,0,0,1,.377-.473q3.169-3.177,6.349-6.342c1.08-1.067,1.682-1.079,2.745-.033,2.151,2.125,4.289,4.269,6.427,6.412a6.941,6.941,0,0,1,.479.6l-2.065,2.067-4.4-4.771-.268.2v12.335c4.586,1.981,6.462,4.934,5.587,8.808a7.3,7.3,0,0,1-8.7,5.566,7.3,7.3,0,0,1-5.672-6.121C1552.019-1065.728,1554.146-1068.792,1558.355-1070.328Z" transform="translate(-1551.749 1143.536)" fill="#5c4897"/>
      <path id="Path_3996-2-2" data-name="Path 3996-2" d="M1576.91-1061.674v-10.331c-4.365-1.731-6.413-4.767-5.705-8.419a7.31,7.31,0,0,1,8.408-6.009,7.305,7.305,0,0,1,6.032,6.1c.657,3.618-1.422,6.658-5.764,8.334v10.281h4.336v2.912h-4.3v4.33H1577v-4.249h-4.364v-2.949Z" transform="translate(-1551.284 1143.571)" fill="#5c4897"/>
    </g>
  </g>
</svg>
