<svg xmlns="http://www.w3.org/2000/svg" width="65.995" height="65.999" viewBox="0 0 65.995 65.999">
  <g id="NaRN20.tif" transform="translate(-26.708 318.793)">
    <g id="Group_1595" data-name="Group 1595" transform="translate(30.294 -315.207)">
      <path id="Path_4109" data-name="Path 4109" d="M113.026-251.3a18.767,18.767,0,0,1-18.918,18.773,18.769,18.769,0,0,1-18.743-18.947,18.763,18.763,0,0,1,18.853-18.708A18.763,18.763,0,0,1,113.026-251.3ZM98.2-255.358c0-1.727-.02-3.282.008-4.837.015-.8-.3-1.15-1.12-1.135-1.6.031-3.21.008-4.815.008-2.092,0-2.092,0-2.092,2.048,0,1.289,0,2.577,0,3.916-1.736,0-3.255.027-4.773-.011-.863-.021-1.221.3-1.2,1.185.038,1.731.008,3.463.011,5.194,0,1.625.022,1.644,1.6,1.648,1.419,0,2.839,0,4.36,0,0,1.726.02,3.281-.008,4.835-.015.8.3,1.151,1.12,1.135,1.6-.03,3.21-.007,4.815-.007,2.092,0,2.092,0,2.093-2.048,0-1.289,0-2.577,0-3.916,1.736,0,3.255-.027,4.773.01.863.021,1.219-.306,1.2-1.186-.037-1.858,0-3.716-.015-5.575-.01-1.165-.114-1.254-1.347-1.264C101.345-255.367,99.872-255.358,98.2-255.358Z" transform="translate(-62.981 282.55)" fill="#d6ccfe"/>
      <path id="Path_4110" data-name="Path 4110" d="M36.959-307.073c1.286,0,2.256-.018,3.226,0,1.08.026,1.7.531,1.671,1.321-.023.749-.6,1.2-1.625,1.21q-2.854.027-5.708,0c-1.209-.013-1.639-.4-1.66-1.571q-.051-2.916,0-5.833c.016-1,.54-1.57,1.314-1.525a1.152,1.152,0,0,1,1.2,1.212c.031.883.007,1.768.007,2.971.512-.453.839-.731,1.155-1.022a30.724,30.724,0,0,1,23.285-8.436,31.168,31.168,0,0,1,28.846,25.869,31.189,31.189,0,0,1-22.027,35.24,31.205,31.205,0,0,1-39.474-24.716,29.476,29.476,0,0,1-.215-8.962c.154-1.152.9-1.718,1.785-1.324.753.337.75,1,.739,1.719a59.345,59.345,0,0,0,.03,6.7A28.552,28.552,0,0,0,51.316-259.7a28.573,28.573,0,0,0,34.639-21.99A28.515,28.515,0,0,0,63-315.77c-9.556-1.637-17.884.984-24.979,7.568C37.717-307.925,37.456-307.606,36.959-307.073Z" transform="translate(-26.708 318.793)" fill="#d6ccfe"/>
    </g>
    <g id="Group_1594" data-name="Group 1594" transform="translate(26.708 -318.793)">
      <path id="Path_4109-2" data-name="Path 4109" d="M113.026-251.3a18.767,18.767,0,0,1-18.918,18.773,18.769,18.769,0,0,1-18.743-18.947,18.763,18.763,0,0,1,18.853-18.708A18.763,18.763,0,0,1,113.026-251.3ZM98.2-255.358c0-1.727-.02-3.282.008-4.837.015-.8-.3-1.15-1.12-1.135-1.6.031-3.21.008-4.815.008-2.092,0-2.092,0-2.092,2.048,0,1.289,0,2.577,0,3.916-1.736,0-3.255.027-4.773-.011-.863-.021-1.221.3-1.2,1.185.038,1.731.008,3.463.011,5.194,0,1.625.022,1.644,1.6,1.648,1.419,0,2.839,0,4.36,0,0,1.726.02,3.281-.008,4.835-.015.8.3,1.151,1.12,1.135,1.6-.03,3.21-.007,4.815-.007,2.092,0,2.092,0,2.093-2.048,0-1.289,0-2.577,0-3.916,1.736,0,3.255-.027,4.773.01.863.021,1.219-.306,1.2-1.186-.037-1.858,0-3.716-.015-5.575-.01-1.165-.114-1.254-1.347-1.264C101.345-255.367,99.872-255.358,98.2-255.358Z" transform="translate(-62.981 282.55)" fill="#5c4a95"/>
      <path id="Path_4110-2" data-name="Path 4110" d="M36.959-307.073c1.286,0,2.256-.018,3.226,0,1.08.026,1.7.531,1.671,1.321-.023.749-.6,1.2-1.625,1.21q-2.854.027-5.708,0c-1.209-.013-1.639-.4-1.66-1.571q-.051-2.916,0-5.833c.016-1,.54-1.57,1.314-1.525a1.152,1.152,0,0,1,1.2,1.212c.031.883.007,1.768.007,2.971.512-.453.839-.731,1.155-1.022a30.724,30.724,0,0,1,23.285-8.436,31.168,31.168,0,0,1,28.846,25.869,31.189,31.189,0,0,1-22.027,35.24,31.205,31.205,0,0,1-39.474-24.716,29.476,29.476,0,0,1-.215-8.962c.154-1.152.9-1.718,1.785-1.324.753.337.75,1,.739,1.719a59.345,59.345,0,0,0,.03,6.7A28.552,28.552,0,0,0,51.316-259.7a28.573,28.573,0,0,0,34.639-21.99A28.515,28.515,0,0,0,63-315.77c-9.556-1.637-17.884.984-24.979,7.568C37.717-307.925,37.456-307.606,36.959-307.073Z" transform="translate(-26.708 318.793)" fill="#5c4a95"/>
    </g>
  </g>
</svg>
