<svg xmlns="http://www.w3.org/2000/svg" width="75.355" height="76" viewBox="0 0 75.355 76">
  <g id="Group_1342" data-name="Group 1342" transform="translate(-1189.473 -449.817)">
    <g id="Group_1339" data-name="Group 1339" transform="translate(1191.99 453.201)">
      <g id="Group_1338" data-name="Group 1338" transform="translate(0)">
        <path id="Path_3830" data-name="Path 3830" d="M1285.272,454.213a1.182,1.182,0,0,0-1.181,1.181v8.56a1.181,1.181,0,1,0,2.361,0v-8.56A1.182,1.182,0,0,0,1285.272,454.213Z" transform="translate(-1248.336 -454.213)" fill="#d6ccff"/>
        <path id="Path_3831" data-name="Path 3831" d="M1225.16,478.765a1.181,1.181,0,0,0-1.67,1.67l6.053,6.053a1.181,1.181,0,1,0,1.67-1.669Z" transform="translate(-1212.458 -468.463)" fill="#d6ccff"/>
        <path id="Path_3832" data-name="Path 3832" d="M1208.084,539.811a1.182,1.182,0,0,0-1.181-1.181h-8.561a1.181,1.181,0,1,0,0,2.361h8.561A1.182,1.182,0,0,0,1208.084,539.811Z" transform="translate(-1197.162 -503.908)" fill="#d6ccff"/>
        <path id="Path_3833" data-name="Path 3833" d="M1227.767,585.208l-6.053,6.053a1.181,1.181,0,1,0,1.67,1.67l6.053-6.053a1.181,1.181,0,0,0-1.67-1.67Z" transform="translate(-1211.412 -531.125)" fill="#d6ccff"/>
        <path id="Path_3834" data-name="Path 3834" d="M1329.826,586.984a1.18,1.18,0,0,0-1.669,1.669l6.053,6.054a1.181,1.181,0,0,0,1.67-1.67Z" transform="translate(-1274.074 -532.171)" fill="#d6ccff"/>
        <path id="Path_3835" data-name="Path 3835" d="M1357.436,541.142h-8.561a1.181,1.181,0,1,0,0,2.361h8.561a1.181,1.181,0,0,0,0-2.361Z" transform="translate(-1285.779 -505.387)" fill="#d6ccff"/>
        <path id="Path_3836" data-name="Path 3836" d="M1330.768,488.61a1.174,1.174,0,0,0,.835-.345l6.053-6.054a1.181,1.181,0,0,0-1.67-1.669l-6.053,6.053a1.18,1.18,0,0,0,.835,2.015Z" transform="translate(-1275.12 -469.509)" fill="#d6ccff"/>
      </g>
      <path id="Path_3837" data-name="Path 3837" d="M1281.705,604.208h-13.05a1.519,1.519,0,0,0-1.519,1.519v3.309a1.518,1.518,0,0,0,1.519,1.518h.99V612.2a2.928,2.928,0,0,0,2.928,2.927h4.55a2.927,2.927,0,0,0,2.927-2.927v-1.648h1.655a1.519,1.519,0,0,0,1.519-1.518v-3.309A1.519,1.519,0,0,0,1281.705,604.208Z" transform="translate(-1238.355 -542.514)" fill="#d6ccff"/>
      <path id="Path_3838" data-name="Path 3838" d="M1260.873,495.3a18.028,18.028,0,0,0-18.228,17.822A17.534,17.534,0,0,0,1247.283,525a17.281,17.281,0,0,1,3.43,5.668l1.992,5.37a1.58,1.58,0,0,0,1.482,1.031H1267.4a1.58,1.58,0,0,0,1.485-1.04l1.8-4.952a17.425,17.425,0,0,1,3.641-5.938,17.542,17.542,0,0,0,4.767-12.018A18.028,18.028,0,0,0,1260.873,495.3Zm.039,7.744a11.719,11.719,0,0,0-5.055,1.438c-3.341,1.861-5.193,5.173-5.506,9.842a.881.881,0,0,1-.878.822l-.06,0a.881.881,0,0,1-.82-.938c.446-6.65,3.77-9.817,6.479-11.3a13.3,13.3,0,0,1,5.838-1.621.881.881,0,0,1,0,1.762Z" transform="translate(-1223.937 -478.401)" fill="#d6ccff"/>
    </g>
    <g id="Group_1341" data-name="Group 1341" transform="translate(1189.473 449.817)">
      <g id="Group_1340" data-name="Group 1340" transform="translate(0 0)">
        <path id="Path_3839" data-name="Path 3839" d="M1277.583,449.817A1.182,1.182,0,0,0,1276.4,451v8.561a1.181,1.181,0,0,0,2.361,0V451A1.182,1.182,0,0,0,1277.583,449.817Z" transform="translate(-1240.647 -449.817)" fill="#5c4897"/>
        <path id="Path_3840" data-name="Path 3840" d="M1217.47,474.369a1.181,1.181,0,1,0-1.67,1.67l6.053,6.053a1.181,1.181,0,0,0,1.67-1.67Z" transform="translate(-1204.769 -464.068)" fill="#5c4897"/>
        <path id="Path_3841" data-name="Path 3841" d="M1200.395,535.415a1.182,1.182,0,0,0-1.181-1.18h-8.56a1.181,1.181,0,1,0,0,2.361h8.56A1.182,1.182,0,0,0,1200.395,535.415Z" transform="translate(-1189.473 -499.513)" fill="#5c4897"/>
        <path id="Path_3842" data-name="Path 3842" d="M1220.078,580.812l-6.053,6.053a1.181,1.181,0,0,0,1.67,1.67l6.053-6.053a1.181,1.181,0,1,0-1.67-1.67Z" transform="translate(-1203.723 -526.73)" fill="#5c4897"/>
        <path id="Path_3843" data-name="Path 3843" d="M1322.137,582.588a1.181,1.181,0,1,0-1.669,1.67l6.053,6.053a1.181,1.181,0,1,0,1.669-1.67Z" transform="translate(-1266.385 -527.775)" fill="#5c4897"/>
        <path id="Path_3844" data-name="Path 3844" d="M1349.747,536.746h-8.56a1.181,1.181,0,0,0,0,2.362h8.56a1.181,1.181,0,1,0,0-2.362Z" transform="translate(-1278.09 -500.991)" fill="#5c4897"/>
        <path id="Path_3845" data-name="Path 3845" d="M1323.079,484.214a1.175,1.175,0,0,0,.835-.346l6.053-6.053a1.181,1.181,0,0,0-1.67-1.67l-6.053,6.053a1.181,1.181,0,0,0,.835,2.016Z" transform="translate(-1267.431 -465.113)" fill="#5c4897"/>
      </g>
      <path id="Path_3846" data-name="Path 3846" d="M1274.016,599.812h-13.05a1.519,1.519,0,0,0-1.519,1.519v3.309a1.519,1.519,0,0,0,1.519,1.519h.99v1.648a2.927,2.927,0,0,0,2.927,2.927h4.551a2.927,2.927,0,0,0,2.927-2.927v-1.648h1.655a1.519,1.519,0,0,0,1.519-1.519v-3.309A1.519,1.519,0,0,0,1274.016,599.812Z" transform="translate(-1230.666 -538.118)" fill="#5c4897"/>
      <path id="Path_3847" data-name="Path 3847" d="M1253.183,490.9a18.028,18.028,0,0,0-18.227,17.822,17.534,17.534,0,0,0,4.638,11.878,17.285,17.285,0,0,1,3.43,5.667l1.991,5.371a1.58,1.58,0,0,0,1.482,1.031h13.218a1.58,1.58,0,0,0,1.485-1.04l1.8-4.952a17.428,17.428,0,0,1,3.64-5.938,17.539,17.539,0,0,0,4.768-12.018A18.028,18.028,0,0,0,1253.183,490.9Zm.039,7.744a11.721,11.721,0,0,0-5.054,1.438c-3.341,1.861-5.194,5.173-5.507,9.843a.881.881,0,0,1-.878.822l-.06,0a.881.881,0,0,1-.82-.938c.446-6.65,3.77-9.817,6.479-11.3a13.3,13.3,0,0,1,5.839-1.621.881.881,0,0,1,0,1.762Z" transform="translate(-1216.248 -474.005)" fill="#5c4897"/>
    </g>
  </g>
</svg>
