<svg xmlns="http://www.w3.org/2000/svg" width="67.507" height="70.915" viewBox="0 0 67.507 70.915">
  <g id="_0HBis3.tif" data-name="0HBis3.tif" transform="translate(-981.614 -1125.987)">
    <g id="Group_1372" data-name="Group 1372" transform="translate(982.398 1130.192)">
      <path id="Path_3878" data-name="Path 3878" d="M1066.042,1206.555c2.068-5,1.475-8.413-1.841-10.908a7.849,7.849,0,0,0-9.439.144c-3.2,2.558-3.758,6.094-1.644,10.748a9.943,9.943,0,0,0-5.948,9.566c-4.233-3.615-6.41-10.783-4.468-17.277a17.6,17.6,0,0,1,33.38-1.018c2.468,6.631.438,14.266-4.108,18.351A9.963,9.963,0,0,0,1066.042,1206.555Z" transform="translate(-1026.206 -1170.524)" fill="#d6ccff"/>
      <path id="Path_3879" data-name="Path 3879" d="M996.24,1137.866l5,4.832-2.971,2.822-4.669-4.949c-4.647,1.868-8.392.968-10.662-2.439a7.813,7.813,0,0,1,10.821-10.841C997.17,1129.56,998.085,1133.344,996.24,1137.866Z" transform="translate(-981.621 -1125.988)" fill="#d6ccff"/>
      <path id="Path_3880" data-name="Path 3880" d="M1170.087,1140.555l-2.426,2.553-2.348,2.468-2.718-2.9,4.935-4.635a8.233,8.233,0,0,1-.687-6.88,7.729,7.729,0,0,1,3.309-4.044,7.81,7.81,0,0,1,10.366,11.272C1178.229,1141.585,1174.419,1142.428,1170.087,1140.555Z" transform="translate(-1115.294 -1125.987)" fill="#d6ccff"/>
      <path id="Path_3881" data-name="Path 3881" d="M993.489,1311.315l4.847-4.984,2.67,2.863-4.894,4.68a8.2,8.2,0,0,1,.632,6.98,7.717,7.717,0,0,1-3.375,3.99,7.812,7.812,0,0,1-10.255-11.34C985.407,1310.3,989.248,1309.452,993.489,1311.315Z" transform="translate(-981.614 -1259.197)" fill="#d6ccff"/>
      <path id="Path_3882" data-name="Path 3882" d="M1166.691,1314.416l-5.044-4.836,2.97-2.774,4.734,4.857c4.764-1.842,8.478-.922,10.715,2.546a7.812,7.812,0,0,1-10.978,10.68C1165.749,1322.612,1164.851,1318.784,1166.691,1314.416Z" transform="translate(-1114.594 -1259.547)" fill="#d6ccff"/>
      <path id="Path_3883" data-name="Path 3883" d="M1093.88,1285.72a17.675,17.675,0,0,1-16.7-.009,45.759,45.759,0,0,1,.036-5.028,5.255,5.255,0,0,1,4.621-4.459,51.934,51.934,0,0,1,7.4,0,5.272,5.272,0,0,1,4.621,4.6C1094.011,1282.367,1093.88,1283.937,1093.88,1285.72Z" transform="translate(-1052.158 -1236.86)" fill="#d6ccff"/>
      <path id="Path_3884" data-name="Path 3884" d="M1094.3,1235.1a3.909,3.909,0,1,1,3.88,3.9A3.907,3.907,0,0,1,1094.3,1235.1Z" transform="translate(-1064.851 -1203.7)" fill="#d6ccff"/>
    </g>
    <g id="Group_1371" data-name="Group 1371" transform="translate(981.614 1125.987)">
      <path id="Path_3878-2" data-name="Path 3878" d="M1066.042,1206.555c2.068-5,1.475-8.413-1.841-10.908a7.849,7.849,0,0,0-9.439.144c-3.2,2.558-3.758,6.094-1.644,10.748a9.943,9.943,0,0,0-5.948,9.566c-4.233-3.615-6.41-10.783-4.468-17.277a17.6,17.6,0,0,1,33.38-1.018c2.468,6.631.438,14.266-4.108,18.351A9.963,9.963,0,0,0,1066.042,1206.555Z" transform="translate(-1026.206 -1170.524)" fill="#5c4897"/>
      <path id="Path_3879-2" data-name="Path 3879" d="M996.24,1137.866l5,4.832-2.971,2.822-4.669-4.949c-4.647,1.868-8.392.968-10.662-2.439a7.813,7.813,0,0,1,10.821-10.841C997.17,1129.56,998.085,1133.344,996.24,1137.866Z" transform="translate(-981.621 -1125.988)" fill="#5c4897"/>
      <path id="Path_3880-2" data-name="Path 3880" d="M1170.087,1140.555l-2.426,2.553-2.348,2.468-2.718-2.9,4.935-4.635a8.233,8.233,0,0,1-.687-6.88,7.729,7.729,0,0,1,3.309-4.044,7.81,7.81,0,0,1,10.366,11.272C1178.229,1141.585,1174.419,1142.428,1170.087,1140.555Z" transform="translate(-1115.294 -1125.987)" fill="#5c4897"/>
      <path id="Path_3881-2" data-name="Path 3881" d="M993.489,1311.315l4.847-4.984,2.67,2.863-4.894,4.68a8.2,8.2,0,0,1,.632,6.98,7.717,7.717,0,0,1-3.375,3.99,7.812,7.812,0,0,1-10.255-11.34C985.407,1310.3,989.248,1309.452,993.489,1311.315Z" transform="translate(-981.614 -1259.197)" fill="#5c4897"/>
      <path id="Path_3882-2" data-name="Path 3882" d="M1166.691,1314.416l-5.044-4.836,2.97-2.774,4.734,4.857c4.764-1.842,8.478-.922,10.715,2.546a7.812,7.812,0,0,1-10.978,10.68C1165.749,1322.612,1164.851,1318.784,1166.691,1314.416Z" transform="translate(-1114.594 -1259.547)" fill="#5c4897"/>
      <path id="Path_3883-2" data-name="Path 3883" d="M1093.88,1285.72a17.675,17.675,0,0,1-16.7-.009,45.759,45.759,0,0,1,.036-5.028,5.255,5.255,0,0,1,4.621-4.459,51.934,51.934,0,0,1,7.4,0,5.272,5.272,0,0,1,4.621,4.6C1094.011,1282.367,1093.88,1283.937,1093.88,1285.72Z" transform="translate(-1052.158 -1236.86)" fill="#5c4897"/>
      <path id="Path_3884-2" data-name="Path 3884" d="M1094.3,1235.1a3.909,3.909,0,1,1,3.88,3.9A3.907,3.907,0,0,1,1094.3,1235.1Z" transform="translate(-1064.851 -1203.7)" fill="#5c4897"/>
    </g>
  </g>
</svg>
