<svg xmlns="http://www.w3.org/2000/svg" width="202.952" height="69" viewBox="0 0 202.952 69">
  <g id="Group_1821" data-name="Group 1821" transform="translate(-362 -278.519)">
    <text id="Migraine_Talks" data-name="Migraine
Talks" transform="translate(421.952 308.519)" fill="#5c4a95" font-size="29" font-family="Poppins-Bold, Poppins" font-weight="700"><tspan x="0" y="0">MIGRAINE</tspan><tspan font-family="Poppins-Regular, Poppins" font-weight="400"><tspan x="0" y="29">TALKS</tspan></tspan></text>
    <path id="Path_4124" data-name="Path 4124" d="M11.041,8.694a2.349,2.349,0,0,0-2.347,2.347V36.859a2.349,2.349,0,0,0,2.347,2.346h20.28l10.231,7.308V39.205h7.041a2.349,2.349,0,0,0,2.347-2.346V11.041a2.349,2.349,0,0,0-2.347-2.347H11.041m0-4.694H48.594a7.041,7.041,0,0,1,7.041,7.041V36.859A7.041,7.041,0,0,1,48.594,43.9H46.247V55.635L29.818,43.9H11.041A7.041,7.041,0,0,1,4,36.859V11.041A7.041,7.041,0,0,1,11.041,4Z" transform="translate(358 285.202)" fill="#5c4a95"/>
  </g>
</svg>
