<svg xmlns="http://www.w3.org/2000/svg" width="51.599" height="56.033" viewBox="0 0 51.599 56.033">
  <g id="Group_1385" data-name="Group 1385" transform="translate(269.22 -1419.841)">
    <g id="Group_1402" data-name="Group 1402">
      <g id="Group_1404" data-name="Group 1404" transform="translate(2 2)">
        <path id="Path_3891" data-name="Path 3891" d="M-252.4,1577.183l4.626,13.6.246-.019c.044-.531.1-1.06.128-1.592.1-2.42.246-4.839.266-7.26a5.349,5.349,0,0,0-.582-1.96c-.314-.756-.721-1.472-1.145-2.32,3.628,1.8,6.278,1.388,8.877-.049a6.8,6.8,0,0,1-.493,1.094,7.782,7.782,0,0,0-1.193,5.394c.186,2.227.249,4.464.613,6.737l4.585-13.486c.992.347,2.016.662,3.005,1.059,2.923,1.174,5.836,2.375,8.748,3.578a4.132,4.132,0,0,1,2.5,2.787c.76,2.548,1.618,5.068,2.36,7.621.91,3.133-.944,5.541-4.222,5.542-13.549.005-27.1-.039-40.646.034a4.238,4.238,0,0,1-4.24-5.664c.9-2.577,1.538-5.245,2.5-7.8a4.353,4.353,0,0,1,1.982-2.293C-260.524,1580.42-256.477,1578.852-252.4,1577.183Z" transform="translate(0 -124.07)" fill="#0c60a9"/>
        <path id="Path_3892" data-name="Path 3892" d="M-189.627,1434.175c2.072.335,2.427.78,2.126,2.958a16.855,16.855,0,0,1-.688,2.95,1.9,1.9,0,0,1-1.751,1.444c-.235.018-.525.459-.637.762a14.354,14.354,0,0,1-4.466,6.634c-4.2,3.266-6.94,3.227-11.289-.549a14.076,14.076,0,0,1-3.836-6.071c-.169-.469-.295-.776-.934-.885a2.026,2.026,0,0,1-1.348-1.13,19.817,19.817,0,0,1-.912-4.175c-.12-1.218.464-1.613,2.235-1.947q0-1.822,0-3.655a10.533,10.533,0,0,1,9.436-10.588,10.656,10.656,0,0,1,11.759,7.992,12.621,12.621,0,0,1,.294,2.5C-189.591,1431.634-189.627,1432.86-189.627,1434.175Z" transform="translate(-44.034 0)" fill="#0c60a9"/>
      </g>
      <g id="Group_1403" data-name="Group 1403">
        <path id="Path_3891-2" data-name="Path 3891" d="M-252.4,1577.183l4.626,13.6.246-.019c.044-.531.1-1.06.128-1.592.1-2.42.246-4.839.266-7.26a5.349,5.349,0,0,0-.582-1.96c-.314-.756-.721-1.472-1.145-2.32,3.628,1.8,6.278,1.388,8.877-.049a6.8,6.8,0,0,1-.493,1.094,7.782,7.782,0,0,0-1.193,5.394c.186,2.227.249,4.464.613,6.737l4.585-13.486c.992.347,2.016.662,3.005,1.059,2.923,1.174,5.836,2.375,8.748,3.578a4.132,4.132,0,0,1,2.5,2.787c.76,2.548,1.618,5.068,2.36,7.621.91,3.133-.944,5.541-4.222,5.542-13.549.005-27.1-.039-40.646.034a4.238,4.238,0,0,1-4.24-5.664c.9-2.577,1.538-5.245,2.5-7.8a4.353,4.353,0,0,1,1.982-2.293C-260.524,1580.42-256.477,1578.852-252.4,1577.183Z" transform="translate(0 -124.07)" fill="#7bbef8"/>
        <path id="Path_3892-2" data-name="Path 3892" d="M-189.627,1434.175c2.072.335,2.427.78,2.126,2.958a16.855,16.855,0,0,1-.688,2.95,1.9,1.9,0,0,1-1.751,1.444c-.235.018-.525.459-.637.762a14.354,14.354,0,0,1-4.466,6.634c-4.2,3.266-6.94,3.227-11.289-.549a14.076,14.076,0,0,1-3.836-6.071c-.169-.469-.295-.776-.934-.885a2.026,2.026,0,0,1-1.348-1.13,19.817,19.817,0,0,1-.912-4.175c-.12-1.218.464-1.613,2.235-1.947q0-1.822,0-3.655a10.533,10.533,0,0,1,9.436-10.588,10.656,10.656,0,0,1,11.759,7.992,12.621,12.621,0,0,1,.294,2.5C-189.591,1431.634-189.627,1432.86-189.627,1434.175Z" transform="translate(-44.034 0)" fill="#7bbef8"/>
      </g>
    </g>
  </g>
</svg>
