<svg xmlns="http://www.w3.org/2000/svg" width="49.642" height="79.14" viewBox="0 0 49.642 79.14">
  <g id="Group_1368" data-name="Group 1368" transform="translate(-11.5 -4)">
    <g id="Group_1370" data-name="Group 1370" transform="translate(14.385 8.328)">
      <path id="Path_3875" data-name="Path 3875" d="M13.686,4.423a1.87,1.87,0,0,1,2.632.263L23.8,13.83a1.87,1.87,0,0,1-1.448,3.055H19.383l2.534,2.658a1.87,1.87,0,0,1-2.708,2.581L13.663,16.3a1.87,1.87,0,0,1,1.354-3.161H18.4L13.423,7.055A1.87,1.87,0,0,1,13.686,4.423ZM33.573,39.536a7.481,7.481,0,1,0-7.481-7.481A7.481,7.481,0,0,0,33.573,39.536Z" transform="translate(-10.195 -4)" fill="#d6ccff"/>
      <path id="Path_3876" data-name="Path 3876" d="M46.1,38.226c.7.146,1.458.3,2.211.45,1.391.275,2.844.546,3.975.707a15.263,15.263,0,0,0,1.665.162,5.277,5.277,0,0,0,1.2-.1,3.99,3.99,0,0,0,1.423-.595,3.8,3.8,0,0,0,1.68-3.151,4.24,4.24,0,0,0-.091-.85l0-.008c-.028-.136-.06-.264-.086-.364-.054-.206-.123-.444-.2-.687-.149-.494-.356-1.138-.593-1.862-.477-1.456-1.109-3.324-1.737-5.159s-1.256-3.654-1.727-5.01c-.235-.678-.431-1.242-.569-1.636l-.216-.62a3.741,3.741,0,1,0-7.062,2.469v0l.213.611c.137.392.332.952.566,1.627.468,1.35,1.092,3.155,1.716,4.979.233.681.465,1.362.688,2.022-1.128-.227-2.234-.46-3.137-.65l-.056-.012c-.529-.111-1-.21-1.344-.28-.171-.035-.334-.067-.468-.092-.065-.012-.148-.027-.232-.039-.042-.006-.106-.016-.181-.024h0a3.953,3.953,0,0,0-.445-.026,4,4,0,0,0-1.642.363l0,0c-.2.091-.373.187-.468.241-.144.082-.332.195-.486.287l-.125.075c-.4.241-.888.522-1.468.8a9.907,9.907,0,0,1-4.223,1.04,9.927,9.927,0,0,1-4.228-1.041c-.58-.276-1.066-.557-1.466-.8l-.131-.079c-.152-.091-.335-.2-.474-.281-.094-.053-.265-.149-.463-.239a3.989,3.989,0,0,0-1.655-.37A3.919,3.919,0,0,0,26,30.12h0c-.077.009-.142.019-.184.026-.085.013-.168.029-.233.041-.134.026-.3.059-.467.095-.327.068-.763.163-1.257.27l-.084.018c-.891.192-1.987.429-3.11.661.2-.568.41-1.151.62-1.737.529-1.475,1.082-3,1.553-4.306l0,0c.625-1.728,1.1-3.053,1.187-3.315a3.741,3.741,0,0,0-7.134-2.252c0-.011,0-.011,0,.006s-.024.07-.055.157c-.046.13-.109.306-.187.524-.157.437-.369,1.023-.619,1.715l-.1.283c-.484,1.337-1.087,3-1.684,4.67-.639,1.783-1.277,3.583-1.757,4.989-.239.7-.448,1.326-.6,1.815-.075.24-.147.481-.2.7-.028.105-.062.241-.091.386v.008a4.264,4.264,0,0,0-.088.84,3.811,3.811,0,0,0,1.475,3.01,3.98,3.98,0,0,0,1.468.712,5.124,5.124,0,0,0,1.3.143,13.94,13.94,0,0,0,1.72-.151c1.145-.158,2.61-.434,4-.715.748-.151,1.5-.307,2.2-.456v7.309a3.749,3.749,0,0,0-.524.366L17.522,50.6a3.741,3.741,0,0,0-1.286,3.543l1.87,10.287a3.741,3.741,0,0,0,7.405-1.008l-.741-8.151.141-.1c7.877-1.508,12.261-1.518,19.928,0l.147.105-.741,8.151a3.741,3.741,0,0,0,7.405,1.008l1.87-10.287A3.74,3.74,0,0,0,52.235,50.6l-5.611-4.676a3.733,3.733,0,0,0-.524-.366Zm8.046-6.16h-.012C54.165,32.066,54.171,32.067,54.146,32.066Z" transform="translate(-11.5 7.313)" fill="#d6ccff" fill-rule="evenodd"/>
      <path id="Path_3877" data-name="Path 3877" d="M43.625,4.686a1.87,1.87,0,1,1,2.9,2.369l-4.982,6.089h3.388A1.87,1.87,0,0,1,46.28,16.3l-5.546,5.819a1.87,1.87,0,0,1-2.708-2.581l2.534-2.658H37.592a1.87,1.87,0,0,1-1.448-3.055ZM25.411,4.393a1.852,1.852,0,0,1,2.453.956l2.558,6.519a1.812,1.812,0,0,1-.379,1.875,2.052,2.052,0,0,1-1.9.639l-1.777-.349,1.4,3.264A1.884,1.884,0,0,1,26.7,19.727a1.861,1.861,0,0,1-2.485-.886l-2.806-6.546a1.805,1.805,0,0,1,.341-1.9,2.052,2.052,0,0,1,1.916-.66l1.9.374-1.3-3.31A1.893,1.893,0,0,1,25.411,4.393Z" transform="translate(-2.992 -4)" fill="#d6ccff"/>
    </g>
    <g id="Group_1369" data-name="Group 1369" transform="translate(11.5 4)">
      <path id="Path_3875-2" data-name="Path 3875" d="M13.686,4.423a1.87,1.87,0,0,1,2.632.263L23.8,13.83a1.87,1.87,0,0,1-1.448,3.055H19.383l2.534,2.658a1.87,1.87,0,0,1-2.708,2.581L13.663,16.3a1.87,1.87,0,0,1,1.354-3.161H18.4L13.423,7.055A1.87,1.87,0,0,1,13.686,4.423ZM33.573,39.536a7.481,7.481,0,1,0-7.481-7.481A7.481,7.481,0,0,0,33.573,39.536Z" transform="translate(-10.195 -4)" fill="#5c4897"/>
      <path id="Path_3876-2" data-name="Path 3876" d="M46.1,38.226c.7.146,1.458.3,2.211.45,1.391.275,2.844.546,3.975.707a15.263,15.263,0,0,0,1.665.162,5.277,5.277,0,0,0,1.2-.1,3.99,3.99,0,0,0,1.423-.595,3.8,3.8,0,0,0,1.68-3.151,4.24,4.24,0,0,0-.091-.85l0-.008c-.028-.136-.06-.264-.086-.364-.054-.206-.123-.444-.2-.687-.149-.494-.356-1.138-.593-1.862-.477-1.456-1.109-3.324-1.737-5.159s-1.256-3.654-1.727-5.01c-.235-.678-.431-1.242-.569-1.636l-.216-.62a3.741,3.741,0,1,0-7.062,2.469v0l.213.611c.137.392.332.952.566,1.627.468,1.35,1.092,3.155,1.716,4.979.233.681.465,1.362.688,2.022-1.128-.227-2.234-.46-3.137-.65l-.056-.012c-.529-.111-1-.21-1.344-.28-.171-.035-.334-.067-.468-.092-.065-.012-.148-.027-.232-.039-.042-.006-.106-.016-.181-.024h0a3.953,3.953,0,0,0-.445-.026,4,4,0,0,0-1.642.363l0,0c-.2.091-.373.187-.468.241-.144.082-.332.195-.486.287l-.125.075c-.4.241-.888.522-1.468.8a9.907,9.907,0,0,1-4.223,1.04,9.927,9.927,0,0,1-4.228-1.041c-.58-.276-1.066-.557-1.466-.8l-.131-.079c-.152-.091-.335-.2-.474-.281-.094-.053-.265-.149-.463-.239a3.989,3.989,0,0,0-1.655-.37A3.919,3.919,0,0,0,26,30.12h0c-.077.009-.142.019-.184.026-.085.013-.168.029-.233.041-.134.026-.3.059-.467.095-.327.068-.763.163-1.257.27l-.084.018c-.891.192-1.987.429-3.11.661.2-.568.41-1.151.62-1.737.529-1.475,1.082-3,1.553-4.306l0,0c.625-1.728,1.1-3.053,1.187-3.315a3.741,3.741,0,0,0-7.134-2.252c0-.011,0-.011,0,.006s-.024.07-.055.157c-.046.13-.109.306-.187.524-.157.437-.369,1.023-.619,1.715l-.1.283c-.484,1.337-1.087,3-1.684,4.67-.639,1.783-1.277,3.583-1.757,4.989-.239.7-.448,1.326-.6,1.815-.075.24-.147.481-.2.7-.028.105-.062.241-.091.386v.008a4.264,4.264,0,0,0-.088.84,3.811,3.811,0,0,0,1.475,3.01,3.98,3.98,0,0,0,1.468.712,5.124,5.124,0,0,0,1.3.143,13.94,13.94,0,0,0,1.72-.151c1.145-.158,2.61-.434,4-.715.748-.151,1.5-.307,2.2-.456v7.309a3.749,3.749,0,0,0-.524.366L17.522,50.6a3.741,3.741,0,0,0-1.286,3.543l1.87,10.287a3.741,3.741,0,0,0,7.405-1.008l-.741-8.151.141-.1c7.877-1.508,12.261-1.518,19.928,0l.147.105-.741,8.151a3.741,3.741,0,0,0,7.405,1.008l1.87-10.287A3.74,3.74,0,0,0,52.235,50.6l-5.611-4.676a3.733,3.733,0,0,0-.524-.366Zm8.046-6.16h-.012C54.165,32.066,54.171,32.067,54.146,32.066Z" transform="translate(-11.5 7.313)" fill="#5c4897" fill-rule="evenodd"/>
      <path id="Path_3877-2" data-name="Path 3877" d="M43.625,4.686a1.87,1.87,0,1,1,2.9,2.369l-4.982,6.089h3.388A1.87,1.87,0,0,1,46.28,16.3l-5.546,5.819a1.87,1.87,0,0,1-2.708-2.581l2.534-2.658H37.592a1.87,1.87,0,0,1-1.448-3.055ZM25.411,4.393a1.852,1.852,0,0,1,2.453.956l2.558,6.519a1.812,1.812,0,0,1-.379,1.875,2.052,2.052,0,0,1-1.9.639l-1.777-.349,1.4,3.264A1.884,1.884,0,0,1,26.7,19.727a1.861,1.861,0,0,1-2.485-.886l-2.806-6.546a1.805,1.805,0,0,1,.341-1.9,2.052,2.052,0,0,1,1.916-.66l1.9.374-1.3-3.31A1.893,1.893,0,0,1,25.411,4.393Z" transform="translate(-2.992 -4)" fill="#5c4897"/>
    </g>
  </g>
</svg>
