<svg xmlns="http://www.w3.org/2000/svg" width="68.118" height="67.892" viewBox="0 0 68.118 67.892">
  <g id="Group_1589" data-name="Group 1589" transform="translate(-684.818 -264.795)">
    <g id="Group_1591" data-name="Group 1591" transform="translate(1 5)">
      <path id="Path_4099" data-name="Path 4099" d="M745.373,423.455V401.273a10.036,10.036,0,0,1,8.654-1.451,13.819,13.819,0,0,1,5.1,2.842,2.649,2.649,0,0,0,1.887.675q5.826-.048,11.653-.008a3.929,3.929,0,1,1,0,7.85c-4.234.022-8.467.006-12.7.008a7.458,7.458,0,0,0-1.176.035,1.953,1.953,0,0,0-.006,3.851,6.316,6.316,0,0,0,1.045.036c4.5,0,8.991-.006,13.486,0a9.85,9.85,0,0,0,6.618-2.339c3.243-2.718,6.593-5.308,9.885-7.968a4.105,4.105,0,0,1,3.237-1.113,3.8,3.8,0,0,1,3.316,2.763,3.661,3.661,0,0,1-1.22,4.125c-2.086,1.789-4.222,3.521-6.351,5.26q-2.23,1.821-4.5,3.595c-8.914,6.952-18.893,8.959-29.842,6.373-2.8-.661-5.581-1.391-8.369-2.094C745.884,423.665,745.687,423.571,745.373,423.455Z" transform="translate(-44.644 -99.234)" fill="#d6ccfe"/>
      <path id="Path_4100" data-name="Path 4100" d="M812.113,315.494l-21.673,8.5a12.144,12.144,0,0,1-.284-2.294,11.786,11.786,0,0,1,21.957-6.2Z" transform="translate(-77.655 -33.076)" fill="#d6ccfe"/>
      <path id="Path_4101" data-name="Path 4101" d="M818.763,348.183a11.784,11.784,0,0,1-21.773,6.44l21.563-8.453A12.321,12.321,0,0,1,818.763,348.183Z" transform="translate(-82.697 -59.992)" fill="#d6ccfe"/>
      <path id="Path_4102" data-name="Path 4102" d="M696.778,414.253v1.435q0,9.625,0,19.25a8.454,8.454,0,0,1-.033,1.046,1.865,1.865,0,0,1-1.872,1.828q-4.059.071-8.12,0a1.894,1.894,0,0,1-1.9-2.076c-.035-1.4-.009-2.793-.009-4.19,0-4.8.055-9.6-.026-14.4-.034-1.991.676-3,2.977-2.914C690.715,414.332,693.64,414.253,696.778,414.253Z" transform="translate(0 -110.163)" fill="#d6ccfe"/>
      <path id="Path_4103" data-name="Path 4103" d="M870.259,280.48h-9.974a16.118,16.118,0,0,0-9.378-7.213,9.581,9.581,0,0,1,7.259-8.2,9.741,9.741,0,0,1,12.067,8.768C870.393,276,870.259,278.178,870.259,280.48Z" transform="translate(-122.446)" fill="#d6ccfe"/>
      <path id="Path_4104" data-name="Path 4104" d="M881.134,339.744h8.392c-.119,2.9.369,5.783-.416,8.6a9.59,9.59,0,0,1-12.154,6.544,17.676,17.676,0,0,0,4.1-7A16.14,16.14,0,0,0,881.134,339.744Z" transform="translate(-141.651 -55.255)" fill="#d6ccfe"/>
    </g>
    <g id="Group_1590" data-name="Group 1590">
      <path id="Path_4099-2" data-name="Path 4099" d="M745.373,423.455V401.273a10.036,10.036,0,0,1,8.654-1.451,13.819,13.819,0,0,1,5.1,2.842,2.649,2.649,0,0,0,1.887.675q5.826-.048,11.653-.008a3.929,3.929,0,1,1,0,7.85c-4.234.022-8.467.006-12.7.008a7.458,7.458,0,0,0-1.176.035,1.953,1.953,0,0,0-.006,3.851,6.316,6.316,0,0,0,1.045.036c4.5,0,8.991-.006,13.486,0a9.85,9.85,0,0,0,6.618-2.339c3.243-2.718,6.593-5.308,9.885-7.968a4.105,4.105,0,0,1,3.237-1.113,3.8,3.8,0,0,1,3.316,2.763,3.661,3.661,0,0,1-1.22,4.125c-2.086,1.789-4.222,3.521-6.351,5.26q-2.23,1.821-4.5,3.595c-8.914,6.952-18.893,8.959-29.842,6.373-2.8-.661-5.581-1.391-8.369-2.094C745.884,423.665,745.687,423.571,745.373,423.455Z" transform="translate(-44.644 -99.234)" fill="#5c4a95"/>
      <path id="Path_4100-2" data-name="Path 4100" d="M812.113,315.494l-21.673,8.5a12.144,12.144,0,0,1-.284-2.294,11.786,11.786,0,0,1,21.957-6.2Z" transform="translate(-77.655 -33.076)" fill="#5c4a95"/>
      <path id="Path_4101-2" data-name="Path 4101" d="M818.763,348.183a11.784,11.784,0,0,1-21.773,6.44l21.563-8.453A12.321,12.321,0,0,1,818.763,348.183Z" transform="translate(-82.697 -59.992)" fill="#5c4a95"/>
      <path id="Path_4102-2" data-name="Path 4102" d="M696.778,414.253v1.435q0,9.625,0,19.25a8.454,8.454,0,0,1-.033,1.046,1.865,1.865,0,0,1-1.872,1.828q-4.059.071-8.12,0a1.894,1.894,0,0,1-1.9-2.076c-.035-1.4-.009-2.793-.009-4.19,0-4.8.055-9.6-.026-14.4-.034-1.991.676-3,2.977-2.914C690.715,414.332,693.64,414.253,696.778,414.253Z" transform="translate(0 -110.163)" fill="#5c4a95"/>
      <path id="Path_4103-2" data-name="Path 4103" d="M870.259,280.48h-9.974a16.118,16.118,0,0,0-9.378-7.213,9.581,9.581,0,0,1,7.259-8.2,9.741,9.741,0,0,1,12.067,8.768C870.393,276,870.259,278.178,870.259,280.48Z" transform="translate(-122.446)" fill="#5c4a95"/>
      <path id="Path_4104-2" data-name="Path 4104" d="M881.134,339.744h8.392c-.119,2.9.369,5.783-.416,8.6a9.59,9.59,0,0,1-12.154,6.544,17.676,17.676,0,0,0,4.1-7A16.14,16.14,0,0,0,881.134,339.744Z" transform="translate(-141.651 -55.255)" fill="#5c4a95"/>
    </g>
  </g>
</svg>
