<svg xmlns="http://www.w3.org/2000/svg" width="52.791" height="78.504" viewBox="0 0 52.791 78.504">
  <g id="_5W77TD.tif" data-name="5W77TD.tif" transform="translate(396.539 -459.043)">
    <g id="Group_1588" data-name="Group 1588" transform="translate(-394.765 461.704)">
      <path id="Path_4075" data-name="Path 4075" d="M-370.264,459.043v4.8c0,4-.008,7.994,0,11.991.007,2.249.646,2.883,2.932,2.89,4.736.014,9.471,0,14.207,0h1.7v23.465c-1.2,0-2.417-.091-3.613.018a11.378,11.378,0,0,0-7.081,3.338c-4.643,4.565-9.256,9.161-14.093,13.955-.105.006-.541.048-.977.048q-8.139.007-16.278,0c-2.431,0-3.076-.644-3.076-3.05q0-27.166,0-54.331c0-2.491.645-3.127,3.162-3.128q10.729,0,21.458,0Zm-3.767,43h3.7c2.664,0,5.328.023,7.991-.019a2.086,2.086,0,0,0,2.223-2.076,2.11,2.11,0,0,0-2.1-2.211,9.456,9.456,0,0,0-1.035-.029q-10.655,0-21.31,0a7.867,7.867,0,0,0-1.472.091,2.032,2.032,0,0,0-1.7,2.247c.083,1.257.928,1.978,2.455,1.987C-381.529,502.055-377.78,502.041-374.031,502.043Zm2.4-13.1c.726,0,1.361.033,1.992-.007a2.153,2.153,0,0,0,2.217-2.11,2.171,2.171,0,0,0-2.226-2.26c-.666-.047-1.338-.008-1.983-.008-.282-3.425-.784-4.437-2.273-4.324-2.746.209-2.079,2.472-2.27,4.326-.744,0-1.424-.043-2.1.009a2.241,2.241,0,0,0-2.225,2.143,2.229,2.229,0,0,0,2.283,2.226c.669.039,1.341.007,1.986.007.336,3.517.844,4.424,2.355,4.372C-372.4,493.267-371.918,492.365-371.632,488.945ZM-378.2,506.45c-2.416,0-4.833-.043-7.248.014a2.166,2.166,0,0,0-2.066,3.174,2.409,2.409,0,0,0,2.366,1.206c2.515-.015,5.029,0,7.544,0,2.071,0,4.142.021,6.213-.008a2.245,2.245,0,0,0,2.514-1.977,2.175,2.175,0,0,0-2.37-2.4C-373.564,506.421-375.882,506.449-378.2,506.45Z" transform="translate(396.539 -459.043)" fill="#d6ccfe"/>
      <path id="Path_4076" data-name="Path 4076" d="M-285.525,625.486c1.592-1.645,3.137-3.456,4.9-5.018a7.863,7.863,0,0,1,10.744.42,7.928,7.928,0,0,1,.545,10.756c-1.582,1.81-3.446,3.374-5.091,4.96Z" transform="translate(318.502 -571.165)" fill="#d6ccfe"/>
      <path id="Path_4077" data-name="Path 4077" d="M-302.483,665.345c-1.524,1.545-3.079,3.273-4.793,4.825a7.889,7.889,0,0,1-10.642-.126,7.794,7.794,0,0,1-1.03-10.577,54.075,54.075,0,0,1,5.5-5.122Z" transform="translate(343.134 -596.33)" fill="#d6ccfe"/>
      <path id="Path_4078" data-name="Path 4078" d="M-293.189,459.2a2.378,2.378,0,0,1,2.476.842q5.625,5.981,11.254,11.958a2.3,2.3,0,0,1,.66,2.355h-14.39Z" transform="translate(323.889 -459.094)" fill="#d6ccfe"/>
    </g>
    <g id="Group_1582" data-name="Group 1582" transform="translate(-396.539 459.043)">
      <path id="Path_4075-2" data-name="Path 4075" d="M-370.264,459.043v4.8c0,4-.008,7.994,0,11.991.007,2.249.646,2.883,2.932,2.89,4.736.014,9.471,0,14.207,0h1.7v23.465c-1.2,0-2.417-.091-3.613.018a11.378,11.378,0,0,0-7.081,3.338c-4.643,4.565-9.256,9.161-14.093,13.955-.105.006-.541.048-.977.048q-8.139.007-16.278,0c-2.431,0-3.076-.644-3.076-3.05q0-27.166,0-54.331c0-2.491.645-3.127,3.162-3.128q10.729,0,21.458,0Zm-3.767,43h3.7c2.664,0,5.328.023,7.991-.019a2.086,2.086,0,0,0,2.223-2.076,2.11,2.11,0,0,0-2.1-2.211,9.456,9.456,0,0,0-1.035-.029q-10.655,0-21.31,0a7.867,7.867,0,0,0-1.472.091,2.032,2.032,0,0,0-1.7,2.247c.083,1.257.928,1.978,2.455,1.987C-381.529,502.055-377.78,502.041-374.031,502.043Zm2.4-13.1c.726,0,1.361.033,1.992-.007a2.153,2.153,0,0,0,2.217-2.11,2.171,2.171,0,0,0-2.226-2.26c-.666-.047-1.338-.008-1.983-.008-.282-3.425-.784-4.437-2.273-4.324-2.746.209-2.079,2.472-2.27,4.326-.744,0-1.424-.043-2.1.009a2.241,2.241,0,0,0-2.225,2.143,2.229,2.229,0,0,0,2.283,2.226c.669.039,1.341.007,1.986.007.336,3.517.844,4.424,2.355,4.372C-372.4,493.267-371.918,492.365-371.632,488.945ZM-378.2,506.45c-2.416,0-4.833-.043-7.248.014a2.166,2.166,0,0,0-2.066,3.174,2.409,2.409,0,0,0,2.366,1.206c2.515-.015,5.029,0,7.544,0,2.071,0,4.142.021,6.213-.008a2.245,2.245,0,0,0,2.514-1.977,2.175,2.175,0,0,0-2.37-2.4C-373.564,506.421-375.882,506.449-378.2,506.45Z" transform="translate(396.539 -459.043)" fill="#5c4a95"/>
      <path id="Path_4076-2" data-name="Path 4076" d="M-285.525,625.486c1.592-1.645,3.137-3.456,4.9-5.018a7.863,7.863,0,0,1,10.744.42,7.928,7.928,0,0,1,.545,10.756c-1.582,1.81-3.446,3.374-5.091,4.96Z" transform="translate(318.502 -571.165)" fill="#5c4a95"/>
      <path id="Path_4077-2" data-name="Path 4077" d="M-302.483,665.345c-1.524,1.545-3.079,3.273-4.793,4.825a7.889,7.889,0,0,1-10.642-.126,7.794,7.794,0,0,1-1.03-10.577,54.075,54.075,0,0,1,5.5-5.122Z" transform="translate(343.134 -596.33)" fill="#5c4a95"/>
      <path id="Path_4078-2" data-name="Path 4078" d="M-293.189,459.2a2.378,2.378,0,0,1,2.476.842q5.625,5.981,11.254,11.958a2.3,2.3,0,0,1,.66,2.355h-14.39Z" transform="translate(323.889 -459.094)" fill="#5c4a95"/>
    </g>
  </g>
</svg>
