<svg id="layer1" xmlns="http://www.w3.org/2000/svg" width="50" height="30.782" viewBox="0 0 50 30.782">
  <path id="path5381-2-7-0-2-2" d="M54.446,990.35a1.98,1.98,0,0,0-1.568,1.4l-6.931,21.617L40.5,1000.5a1.98,1.98,0,0,0-3.548-.248l-4.208,7.343h-5.28a1.98,1.98,0,1,0,0,3.961H33.9a1.98,1.98,0,0,0,1.733-.99l2.805-4.868,5.94,14.191a1.98,1.98,0,0,0,3.713-.164l6.683-20.957,5.363,16.171a1.98,1.98,0,0,0,3.63.33l3.8-6.6H73.5a1.98,1.98,0,1,0,0-3.961h-7.1a1.98,1.98,0,0,0-1.733.99l-2.145,3.8-5.858-17.822a1.98,1.98,0,0,0-2.228-1.32Z" transform="translate(-25.486 -990.319)" fill="#5c4897"/>
</svg>
