<svg xmlns="http://www.w3.org/2000/svg" width="48.118" height="73.168" viewBox="0 0 48.118 73.168">
  <g id="Group_1346" data-name="Group 1346" transform="translate(-33.317 -5.832)">
    <g id="Group_1348" data-name="Group 1348" transform="translate(5.505 6.932)">
      <path id="Path_3849" data-name="Path 3849" d="M33.564,31.343a1.833,1.833,0,0,1,.423,2.556,18.681,18.681,0,0,1-4.06,4.068,1.832,1.832,0,0,1-2.189-2.939,15.023,15.023,0,0,0,3.269-3.262A1.832,1.832,0,0,1,33.564,31.343Z" transform="translate(15.144 18.473)" fill="#d6ccff"/>
      <path id="Path_3851" data-name="Path 3851" d="M45.4,56.4a1.833,1.833,0,0,1,1.159,2.316l-.005.016-.023.074c-.021.068-.053.172-.092.308-.078.272-.183.666-.288,1.14a16.139,16.139,0,0,0-.414,3.382,1.832,1.832,0,1,1-3.665,0,19.783,19.783,0,0,1,.5-4.177c.124-.557.248-1.022.342-1.351.047-.165.087-.3.116-.39l.008-.025.027-.085.01-.032,0-.01,0-.005,1.722.573-1.722-.573A1.833,1.833,0,0,1,45.4,56.4Zm-12.8,13.749a1.833,1.833,0,0,0-.508-2.541l-5.6,6.105c1.016,1.525,1.017,1.524,1.018,1.524h0l0,0,.011-.007.033-.022.11-.077c.092-.065.222-.158.38-.277.317-.238.754-.582,1.252-1.017A19.162,19.162,0,0,0,32.605,70.148ZM39.233,56.5a1.832,1.832,0,0,1,.814,2.46c-.292.581-.495,1.1-.724,1.687-.122.312-.251.643-.406,1.013a11.57,11.57,0,0,1-1.858,3.159,1.832,1.832,0,0,1-2.794-2.371,7.961,7.961,0,0,0,1.27-2.2c.092-.221.191-.474.3-.746.263-.669.572-1.457.94-2.19A1.832,1.832,0,0,1,39.233,56.5ZM48.41,7.2c-2.375,5.086-8.683,17.6-15.383,22.6-10.019,7.433-5.01,17.347,2.5,17.347h1.046a1.825,1.825,0,0,1,.014-.222,6.428,6.428,0,0,1,3.2-4.823c2.021-1.16,4.787-1.38,8.287-.381a1.832,1.832,0,0,1-1.007,3.524c-2.914-.832-4.575-.47-5.456.035a2.754,2.754,0,0,0-1.348,1.868h1.594a8.678,8.678,0,0,1,3.881.916,8.678,8.678,0,0,0,3.881.916h1.616s8.335.834,9.1-7.834a8.293,8.293,0,0,0-1.169-4,5.594,5.594,0,0,0-4.982-2.957l-.021-3.665a8.936,8.936,0,0,1,5.8,2c-.657-6.972-1.089-14.1.6-20.869l.525-2.1A3.665,3.665,0,0,0,57.537,5H51.825A3.784,3.784,0,0,0,48.41,7.2Z" transform="translate(14.728 -3.168)" fill="#d6ccff"/>
    </g>
    <path id="Path_3850" data-name="Path 3850" d="M30.178,39.357A1.832,1.832,0,0,0,28.155,36.3l0,0-.054.033c-.056.033-.151.088-.284.157a10.226,10.226,0,0,1-1.224.532,13.938,13.938,0,0,1-4.756.806,1.832,1.832,0,0,0,0,3.665,17.6,17.6,0,0,0,6.009-1.026,13.851,13.851,0,0,0,1.667-.727c.2-.1.352-.191.464-.258l.02-.012.055-.033.06-.038.043-.028.016-.01.006,0Zm-1.016-1.525,1.016,1.525S30.178,39.357,29.162,37.832Zm21.988,6.437a1.832,1.832,0,0,0-3.664-.047,13.635,13.635,0,0,0,.5,3.839,11.216,11.216,0,0,0,.373,1.113c.054.134.1.242.136.321l.007.014.038.083.016.032.006.012,0,0,0,0a1.832,1.832,0,0,0,3.283-1.629l-.013-.028c-.014-.032-.039-.089-.071-.169a7.6,7.6,0,0,1-.25-.748A9.976,9.976,0,0,1,51.149,44.269ZM48.56,49.646l1.638-.82-1.433.717Z" transform="translate(13.317 26.634)" fill="#5c4897" fill-rule="evenodd"/>
    <g id="Group_1347" data-name="Group 1347" transform="translate(4 4)">
      <path id="Path_3849-2" data-name="Path 3849" d="M33.564,31.343a1.833,1.833,0,0,1,.423,2.556,18.681,18.681,0,0,1-4.06,4.068,1.832,1.832,0,0,1-2.189-2.939,15.023,15.023,0,0,0,3.269-3.262A1.832,1.832,0,0,1,33.564,31.343Z" transform="translate(15.144 18.473)" fill="#5c4897"/>
      <path id="Path_3851-2" data-name="Path 3851" d="M45.4,56.4a1.833,1.833,0,0,1,1.159,2.316l-.005.016-.023.074c-.021.068-.053.172-.092.308-.078.272-.183.666-.288,1.14a16.139,16.139,0,0,0-.414,3.382,1.832,1.832,0,1,1-3.665,0,19.783,19.783,0,0,1,.5-4.177c.124-.557.248-1.022.342-1.351.047-.165.087-.3.116-.39l.008-.025.027-.085.01-.032,0-.01,0-.005,1.722.573-1.722-.573A1.833,1.833,0,0,1,45.4,56.4Zm-12.8,13.749a1.833,1.833,0,0,0-.508-2.541l-5.6,6.105c1.016,1.525,1.017,1.524,1.018,1.524h0l0,0,.011-.007.033-.022.11-.077c.092-.065.222-.158.38-.277.317-.238.754-.582,1.252-1.017A19.162,19.162,0,0,0,32.605,70.148ZM39.233,56.5a1.832,1.832,0,0,1,.814,2.46c-.292.581-.495,1.1-.724,1.687-.122.312-.251.643-.406,1.013a11.57,11.57,0,0,1-1.858,3.159,1.832,1.832,0,0,1-2.794-2.371,7.961,7.961,0,0,0,1.27-2.2c.092-.221.191-.474.3-.746.263-.669.572-1.457.94-2.19A1.832,1.832,0,0,1,39.233,56.5ZM48.41,7.2c-2.375,5.086-8.683,17.6-15.383,22.6-10.019,7.433-5.01,17.347,2.5,17.347h1.046a1.825,1.825,0,0,1,.014-.222,6.428,6.428,0,0,1,3.2-4.823c2.021-1.16,4.787-1.38,8.287-.381a1.832,1.832,0,0,1-1.007,3.524c-2.914-.832-4.575-.47-5.456.035a2.754,2.754,0,0,0-1.348,1.868h1.594a8.678,8.678,0,0,1,3.881.916,8.678,8.678,0,0,0,3.881.916h1.616s8.335.834,9.1-7.834a8.293,8.293,0,0,0-1.169-4,5.594,5.594,0,0,0-4.982-2.957l-.021-3.665a8.936,8.936,0,0,1,5.8,2c-.657-6.972-1.089-14.1.6-20.869l.525-2.1A3.665,3.665,0,0,0,57.537,5H51.825A3.784,3.784,0,0,0,48.41,7.2Z" transform="translate(14.728 -3.168)" fill="#5c4897"/>
    </g>
  </g>
</svg>
