<svg xmlns="http://www.w3.org/2000/svg" width="43.061" height="76" viewBox="0 0 43.061 76">
  <g id="Group_1337" data-name="Group 1337" transform="translate(-203.383 -1404.752)">
    <g id="Group_1355" data-name="Group 1355" transform="translate(0 1)">
      <path id="Path_3824" data-name="Path 3824" d="M913.095,509.693v6.927a11.989,11.989,0,1,0,23.979,0v-6.927h-7.327v-5.062h7.327V500.9h-7.327v-5.062h7.327v-3.73h-7.327v-5.062h7.327v-1.865a11.989,11.989,0,1,0-23.979,0v1.865h7.726v5.062h-7.726v3.73h7.726V500.9h-7.726v3.73h7.726v5.062Z" transform="translate(-698.89 933.823)" fill="#d6ccff"/>
      <path id="Path_3825" data-name="Path 3825" d="M916.612,572.568a16.252,16.252,0,0,1-16.252-16.253h-4a20.25,20.25,0,0,0,18.117,20.137V579.5h-6.718a1.275,1.275,0,0,0-1.275,1.275v5.976a1.275,1.275,0,0,0,1.275,1.275h17.7a1.275,1.275,0,0,0,1.275-1.275v-5.976a1.275,1.275,0,0,0-1.275-1.275h-6.718v-3.043a20.25,20.25,0,0,0,18.117-20.137h-4A16.252,16.252,0,0,1,916.612,572.568Z" transform="translate(-690.417 891.73)" fill="#d6ccff"/>
    </g>
    <g id="Group_1356" data-name="Group 1356">
      <path id="Path_3826" data-name="Path 3826" d="M927.871,592.525v3.043h4.263v-3.043a20.238,20.238,0,0,1-4.263,0Z" transform="translate(-706.372 873.394)" fill="#5c4897"/>
      <path id="Path_3827" data-name="Path 3827" d="M907.9,505.108v6.927a11.989,11.989,0,1,0,23.979,0v-6.927h-7.327v-5.062h7.327v-3.73h-7.327v-5.062h7.327v-3.73h-7.327v-5.062h7.327V480.6a11.989,11.989,0,1,0-23.979,0v1.865h7.726v5.062H907.9v3.73h7.726v5.062H907.9v3.73h7.726v5.062Z" transform="translate(-696.259 936.146)" fill="#5c4897"/>
      <path id="Path_3828" data-name="Path 3828" d="M912.953,598.69a1.276,1.276,0,0,0-1.276,1.275v5.976a1.275,1.275,0,0,0,1.276,1.275h17.7a1.275,1.275,0,0,0,1.275-1.275v-5.976a1.275,1.275,0,0,0-1.275-1.275h-17.7Z" transform="translate(-698.171 870.272)" fill="#5c4897"/>
      <path id="Path_3829" data-name="Path 3829" d="M911.416,567.983a16.252,16.252,0,0,1-16.252-16.252h-4a20.249,20.249,0,0,0,40.5,0h-4A16.252,16.252,0,0,1,911.416,567.983Z" transform="translate(-687.784 894.052)" fill="#5c4897"/>
    </g>
  </g>
</svg>
