<svg xmlns="http://www.w3.org/2000/svg" width="51" height="38.015" viewBox="0 0 51 38.015">
  <g id="Group_1277" data-name="Group 1277" transform="translate(0.5 0.5)">
    <path id="Path_843" data-name="Path 843" d="M46.164,4H7.836A5.843,5.843,0,0,0,2,9.836V37.39a3.571,3.571,0,0,0,6.14,2.479l2.652-2.748A7.283,7.283,0,0,1,16.012,34.9H46.164A5.843,5.843,0,0,0,52,29.069V9.836A5.843,5.843,0,0,0,46.164,4Zm3.455,25.069a3.457,3.457,0,0,1-3.455,3.455H16.012a9.671,9.671,0,0,0-6.929,2.943l-2.655,2.75a1.19,1.19,0,0,1-2.048-.826V9.836A3.46,3.46,0,0,1,7.836,6.381H46.169a3.46,3.46,0,0,1,3.45,3.455Z" transform="translate(-2 -4)" fill="#5c4897" stroke="#5c4897" stroke-width="1"/>
    <path id="Path_844" data-name="Path 844" d="M9.346,10.029a2.333,2.333,0,1,0,2.333,2.333A2.333,2.333,0,0,0,9.346,10.029Zm10.752,0a2.333,2.333,0,1,0,2.331,2.333A2.333,2.333,0,0,0,20.1,10.029Zm10.752,0a2.333,2.333,0,1,0,2.331,2.333A2.333,2.333,0,0,0,30.851,10.029Z" transform="translate(4.923 4.326)" fill="#5c4897" stroke="#5c4897" stroke-width="1"/>
  </g>
</svg>
