<svg xmlns="http://www.w3.org/2000/svg" width="97.241" height="95.191" viewBox="0 0 97.241 95.191">
  <g id="gyf4Vu.tif" transform="translate(-258.128 351.325)">
    <g id="Group_1471" data-name="Group 1471" transform="translate(264.23 -346.967)">
      <g id="Group_1469" data-name="Group 1469" transform="translate(16.188 0)">
        <path id="Path_3972" data-name="Path 3972" d="M350.363-97.2H331.4v-.046h18.924A.39.39,0,0,1,350.363-97.2Z" transform="translate(-321.406 188.037)" fill="#d6ccfe"/>
        <path id="Path_3973" data-name="Path 3973" d="M399.78-264.258c6.467.1,11.587,2.37,15.6,7.063a19.131,19.131,0,0,1,3.459,6.164,1.9,1.9,0,0,1-.246,1.97A29.16,29.16,0,0,1,400.506-237.4c-.043.009-.1-.048-.253-.126C405.12-246.369,405.092-255.208,399.78-264.258Z" transform="translate(-365.353 295.369)" fill="#d6ccfe"/>
        <path id="Path_3974" data-name="Path 3974" d="M421.132-284.486c-5.249-8.826-13.007-13.1-23.221-13.138a11.339,11.339,0,0,1,2.739-4,19.277,19.277,0,0,1,17.607-5.907,2.26,2.26,0,0,1,2.066,1.351,29.606,29.606,0,0,1,1.216,20.818A7.074,7.074,0,0,1,421.132-284.486Z" transform="translate(-364.152 323.355)" fill="#d6ccfe"/>
        <path id="Path_3975" data-name="Path 3975" d="M323.862-240.586c10.351-.167,17.878-4.788,22.908-13.6,4.546,6.9,3.646,17.073-1.931,23.008a1.994,1.994,0,0,1-1.855.729,29.3,29.3,0,0,1-18.744-9.478A4.563,4.563,0,0,1,323.862-240.586Z" transform="translate(-316.562 288.896)" fill="#d6ccfe"/>
        <path id="Path_3976" data-name="Path 3976" d="M401.072-341.22c-10.472.282-18.038,4.771-23.087,13.635a15.391,15.391,0,0,1-2.633-6.612,19.166,19.166,0,0,1,4.289-16.09c.442-.534.832-1.11,1.721-1.03C389.147-350.615,395.565-347.268,401.072-341.22Z" transform="translate(-349.449 351.325)" fill="#d6ccfe"/>
        <path id="Path_3977" data-name="Path 3977" d="M336.886-323.2a17.109,17.109,0,0,1-8.685-1.705,19.283,19.283,0,0,1-10.1-10.929,2.638,2.638,0,0,1,.444-2.9A29.578,29.578,0,0,1,335.8-349.845a3.91,3.91,0,0,1,.776-.006C331.659-340.972,331.715-332.189,336.886-323.2Z" transform="translate(-312.699 350.389)" fill="#d6ccfe"/>
        <path id="Path_3978" data-name="Path 3978" d="M305.18-296.367c5.27,8.747,12.948,13.123,23.368,13.025-.524.847-.908,1.558-1.375,2.209a19.432,19.432,0,0,1-19.563,7.663,1.943,1.943,0,0,1-1.575-1.2,29.313,29.313,0,0,1-1.23-20.97A5.062,5.062,0,0,1,305.18-296.367Z" transform="translate(-303.432 316.005)" fill="#d6ccfe"/>
      </g>
      <path id="Path_3979" data-name="Path 3979" d="M349.207-145.1H278.739v.036H258.347c-1.951-13.907,9.508-25.534,20.392-26.227l5.871-.414h38.13l5.867.225a23.054,23.054,0,0,1,13.346,6.532C347.456-159.554,349.675-152.908,349.207-145.1Z" transform="translate(-258.128 235.89)" fill="#d6ccfe"/>
    </g>
    <g id="Group_1470" data-name="Group 1470" transform="translate(258.128 -351.325)">
      <g id="Group_1469-2" data-name="Group 1469" transform="translate(16.188)">
        <path id="Path_3972-2" data-name="Path 3972" d="M350.363-97.2H331.4v-.046h18.924A.39.39,0,0,1,350.363-97.2Z" transform="translate(-321.406 188.037)" fill="#5c4897"/>
        <path id="Path_3973-2" data-name="Path 3973" d="M399.78-264.258c6.467.1,11.587,2.37,15.6,7.063a19.131,19.131,0,0,1,3.459,6.164,1.9,1.9,0,0,1-.246,1.97A29.16,29.16,0,0,1,400.506-237.4c-.043.009-.1-.048-.253-.126C405.12-246.369,405.092-255.208,399.78-264.258Z" transform="translate(-365.353 295.369)" fill="#5c4897"/>
        <path id="Path_3974-2" data-name="Path 3974" d="M421.132-284.486c-5.249-8.826-13.007-13.1-23.221-13.138a11.339,11.339,0,0,1,2.739-4,19.277,19.277,0,0,1,17.607-5.907,2.26,2.26,0,0,1,2.066,1.351,29.606,29.606,0,0,1,1.216,20.818A7.074,7.074,0,0,1,421.132-284.486Z" transform="translate(-364.152 323.355)" fill="#5c4897"/>
        <path id="Path_3975-2" data-name="Path 3975" d="M323.862-240.586c10.351-.167,17.878-4.788,22.908-13.6,4.546,6.9,3.646,17.073-1.931,23.008a1.994,1.994,0,0,1-1.855.729,29.3,29.3,0,0,1-18.744-9.478A4.563,4.563,0,0,1,323.862-240.586Z" transform="translate(-316.562 288.896)" fill="#5c4897"/>
        <path id="Path_3976-2" data-name="Path 3976" d="M401.072-341.22c-10.472.282-18.038,4.771-23.087,13.635a15.391,15.391,0,0,1-2.633-6.612,19.166,19.166,0,0,1,4.289-16.09c.442-.534.832-1.11,1.721-1.03C389.147-350.615,395.565-347.268,401.072-341.22Z" transform="translate(-349.449 351.325)" fill="#5c4897"/>
        <path id="Path_3977-2" data-name="Path 3977" d="M336.886-323.2a17.109,17.109,0,0,1-8.685-1.705,19.283,19.283,0,0,1-10.1-10.929,2.638,2.638,0,0,1,.444-2.9A29.578,29.578,0,0,1,335.8-349.845a3.91,3.91,0,0,1,.776-.006C331.659-340.972,331.715-332.189,336.886-323.2Z" transform="translate(-312.699 350.389)" fill="#5c4897"/>
        <path id="Path_3978-2" data-name="Path 3978" d="M305.18-296.367c5.27,8.747,12.948,13.123,23.368,13.025-.524.847-.908,1.558-1.375,2.209a19.432,19.432,0,0,1-19.563,7.663,1.943,1.943,0,0,1-1.575-1.2,29.313,29.313,0,0,1-1.23-20.97A5.062,5.062,0,0,1,305.18-296.367Z" transform="translate(-303.432 316.005)" fill="#5c4897"/>
      </g>
      <path id="Path_3979-2" data-name="Path 3979" d="M349.207-145.1H278.739v.036H258.347c-1.951-13.907,9.508-25.534,20.392-26.227l5.871-.414h38.13l5.867.225a23.054,23.054,0,0,1,13.346,6.532C347.456-159.554,349.675-152.908,349.207-145.1Z" transform="translate(-258.128 235.89)" fill="#5c4897"/>
    </g>
  </g>
</svg>
