<svg xmlns="http://www.w3.org/2000/svg" width="68.795" height="68.789" viewBox="0 0 68.795 68.789">
  <g id="ZCq2WO.tif" transform="translate(371.738 371.04)">
    <g id="Group_1593" data-name="Group 1593" transform="translate(-368.012 -367.314)">
      <path id="Path_4105" data-name="Path 4105" d="M-360.754-203.227a11,11,0,0,1-9.9-6.812,10.681,10.681,0,0,1,2-12.237c3.226-3.512,6.7-6.8,10.095-10.153,1.02-1.01,1.992-.949,3.089.135,2.134,2.107,4.246,4.236,6.367,6.357s4.247,4.236,6.361,6.363c1.32,1.328,1.317,2.213-.011,3.545q-4.7,4.71-9.411,9.406A11.691,11.691,0,0,1-360.754-203.227Z" transform="translate(371.738 268.233)" fill="#d6ccfe"/>
      <path id="Path_4106" data-name="Path 4106" d="M-203.731-214.187a10.968,10.968,0,0,1-6.879,9.937,10.72,10.72,0,0,1-12.232-2.069c-3.476-3.2-6.733-6.647-10.066-10a1.871,1.871,0,0,1-.028-2.994q6.564-6.609,13.177-13.167a1.843,1.843,0,0,1,2.9.018c3.42,3.39,6.859,6.763,10.195,10.234A11.2,11.2,0,0,1-203.731-214.187Z" transform="translate(268.8 268.259)" fill="#d6ccfe"/>
      <path id="Path_4107" data-name="Path 4107" d="M-283.033-332.683v6.519a3.574,3.574,0,0,0,.53-.446,11.79,11.79,0,0,1,8.126-4.418c.543-.082,1.09-.153,1.638-.185,1.1-.064,1.494.337,1.357,1.42a13.638,13.638,0,0,1-5.037,9.207,13.246,13.246,0,0,1-5.9,2.768c-.2.04-.4.1-.787.207,0,.906,0,1.818,0,2.731,0,.761.03,1.524-.022,2.281a1.841,1.841,0,0,1-1.916,1.924,1.837,1.837,0,0,1-1.865-1.975c-.053-1.223-.018-2.451-.022-3.676,0-.414,0-.828,0-1.246-.363-.11-.6-.2-.839-.251a13.722,13.722,0,0,1-10.869-11.767c-.178-1.312.213-1.786,1.512-1.6a29.686,29.686,0,0,1,4.328.884c2.283.694,3.287,1.51,5.75,4.214v-6.565c-.7-.172-1.361-.306-2-.495a14.144,14.144,0,0,1-10.027-12.024c-.125-1.155.191-1.585,1.239-1.514a16.271,16.271,0,0,1,6.353,1.562c3.712,1.882,5.51,5.076,6.2,9.031a1.632,1.632,0,0,0,.347.845c.116-.545.23-1.091.35-1.636a11.569,11.569,0,0,1,10.409-9.6c.628-.087,1.259-.166,1.891-.2,1.1-.064,1.464.322,1.339,1.424a13.938,13.938,0,0,1-6.089,10.225A14.349,14.349,0,0,1-283.033-332.683Z" transform="translate(317.588 352.888)" fill="#d6ccfe"/>
      <path id="Path_4108" data-name="Path 4108" d="M-256.264-363.178l-4.265-3.439a12.9,12.9,0,0,1,3.106-3.947,1.706,1.706,0,0,1,2.507.157c1.093,1.153,2.077,2.408,3.113,3.626Z" transform="translate(288.824 371.04)" fill="#d6ccfe"/>
    </g>
    <g id="Group_1592" data-name="Group 1592" transform="translate(-371.738 -371.04)">
      <path id="Path_4105-2" data-name="Path 4105" d="M-360.754-203.227a11,11,0,0,1-9.9-6.812,10.681,10.681,0,0,1,2-12.237c3.226-3.512,6.7-6.8,10.095-10.153,1.02-1.01,1.992-.949,3.089.135,2.134,2.107,4.246,4.236,6.367,6.357s4.247,4.236,6.361,6.363c1.32,1.328,1.317,2.213-.011,3.545q-4.7,4.71-9.411,9.406A11.691,11.691,0,0,1-360.754-203.227Z" transform="translate(371.738 268.233)" fill="#5c4a95"/>
      <path id="Path_4106-2" data-name="Path 4106" d="M-203.731-214.187a10.968,10.968,0,0,1-6.879,9.937,10.72,10.72,0,0,1-12.232-2.069c-3.476-3.2-6.733-6.647-10.066-10a1.871,1.871,0,0,1-.028-2.994q6.564-6.609,13.177-13.167a1.843,1.843,0,0,1,2.9.018c3.42,3.39,6.859,6.763,10.195,10.234A11.2,11.2,0,0,1-203.731-214.187Z" transform="translate(268.8 268.259)" fill="#5c4a95"/>
      <path id="Path_4107-2" data-name="Path 4107" d="M-283.033-332.683v6.519a3.574,3.574,0,0,0,.53-.446,11.79,11.79,0,0,1,8.126-4.418c.543-.082,1.09-.153,1.638-.185,1.1-.064,1.494.337,1.357,1.42a13.638,13.638,0,0,1-5.037,9.207,13.246,13.246,0,0,1-5.9,2.768c-.2.04-.4.1-.787.207,0,.906,0,1.818,0,2.731,0,.761.03,1.524-.022,2.281a1.841,1.841,0,0,1-1.916,1.924,1.837,1.837,0,0,1-1.865-1.975c-.053-1.223-.018-2.451-.022-3.676,0-.414,0-.828,0-1.246-.363-.11-.6-.2-.839-.251a13.722,13.722,0,0,1-10.869-11.767c-.178-1.312.213-1.786,1.512-1.6a29.686,29.686,0,0,1,4.328.884c2.283.694,3.287,1.51,5.75,4.214v-6.565c-.7-.172-1.361-.306-2-.495a14.144,14.144,0,0,1-10.027-12.024c-.125-1.155.191-1.585,1.239-1.514a16.271,16.271,0,0,1,6.353,1.562c3.712,1.882,5.51,5.076,6.2,9.031a1.632,1.632,0,0,0,.347.845c.116-.545.23-1.091.35-1.636a11.569,11.569,0,0,1,10.409-9.6c.628-.087,1.259-.166,1.891-.2,1.1-.064,1.464.322,1.339,1.424a13.938,13.938,0,0,1-6.089,10.225A14.349,14.349,0,0,1-283.033-332.683Z" transform="translate(317.588 352.888)" fill="#5c4a95"/>
      <path id="Path_4108-2" data-name="Path 4108" d="M-256.264-363.178l-4.265-3.439a12.9,12.9,0,0,1,3.106-3.947,1.706,1.706,0,0,1,2.507.157c1.093,1.153,2.077,2.408,3.113,3.626Z" transform="translate(288.824 371.04)" fill="#5c4a95"/>
    </g>
  </g>
</svg>
