<svg xmlns="http://www.w3.org/2000/svg" width="52.804" height="70.497" viewBox="0 0 52.804 70.497">
  <g id="Tqyuwn.tif" transform="translate(-242.921 -476.547)">
    <g id="Group_1587" data-name="Group 1587" transform="translate(245.756 481.271)">
      <path id="Path_4095" data-name="Path 4095" d="M292.837,613.709H242.921V589.4h49.916Zm-24.918-10.742c-.34-.629-.551-.995-.74-1.371q-1.526-3.032-3.044-6.067a5.629,5.629,0,0,0-.5-.892,1.962,1.962,0,0,0-2.419-.546,1.923,1.923,0,0,0-.9,2.3,7.224,7.224,0,0,0,.425.932q2.552,5.1,5.109,10.189a7.563,7.563,0,0,0,.42.791,1.91,1.91,0,0,0,3.294-.016,7.675,7.675,0,0,0,.411-.8q1.775-3.552,3.549-7.1.744-1.489,1.489-2.979c.133-.268.269-.535.379-.812a1.944,1.944,0,0,0-.85-2.524,1.924,1.924,0,0,0-2.543.809c-.736,1.348-1.388,2.742-2.077,4.115C269.291,600.244,268.661,601.491,267.919,602.967Z" transform="translate(-242.921 -560.324)" fill="#d6ccfe"/>
      <path id="Path_4096" data-name="Path 4096" d="M243.049,538.915a9.44,9.44,0,0,1,3.42-6.2,9.824,9.824,0,0,1,6.732-2.235v-3.747h29.52v3.657c5.561.28,9.037,2.962,10.265,8.529Z" transform="translate(-243.016 -513.798)" fill="#d6ccfe"/>
      <path id="Path_4097" data-name="Path 4097" d="M292.992,699.118a9.44,9.44,0,0,1-7.209,8.138,10.6,10.6,0,0,1-2.283.267q-15.391.026-30.781,0a9.624,9.624,0,0,1-9.411-7.6,6.649,6.649,0,0,1-.072-.811Z" transform="translate(-243.155 -641.767)" fill="#d6ccfe"/>
      <path id="Path_4098" data-name="Path 4098" d="M267.019,481.537c0-.941-.026-1.837.006-2.732.055-1.571.744-2.251,2.318-2.253q15.013-.012,30.027,0c1.574,0,2.264.68,2.32,2.251.032.894.006,1.791.006,2.705.356.169.673.288.957.462a1.909,1.909,0,0,1,.929,1.963,1.947,1.947,0,0,1-1.646,1.58,6.993,6.993,0,0,1-1.024.03H267.8c-.257,0-.514.012-.77-.008a1.969,1.969,0,0,1-1.9-1.6,1.937,1.937,0,0,1,1.158-2.076C266.476,481.759,266.677,481.687,267.019,481.537Z" transform="translate(-259.387 -476.547)" fill="#d6ccfe"/>
    </g>
    <g id="Group_1586" data-name="Group 1586" transform="translate(242.921 476.547)">
      <path id="Path_4095-2" data-name="Path 4095" d="M292.837,613.709H242.921V589.4h49.916Zm-24.918-10.742c-.34-.629-.551-.995-.74-1.371q-1.526-3.032-3.044-6.067a5.629,5.629,0,0,0-.5-.892,1.962,1.962,0,0,0-2.419-.546,1.923,1.923,0,0,0-.9,2.3,7.224,7.224,0,0,0,.425.932q2.552,5.1,5.109,10.189a7.563,7.563,0,0,0,.42.791,1.91,1.91,0,0,0,3.294-.016,7.675,7.675,0,0,0,.411-.8q1.775-3.552,3.549-7.1.744-1.489,1.489-2.979c.133-.268.269-.535.379-.812a1.944,1.944,0,0,0-.85-2.524,1.924,1.924,0,0,0-2.543.809c-.736,1.348-1.388,2.742-2.077,4.115C269.291,600.244,268.661,601.491,267.919,602.967Z" transform="translate(-242.921 -560.324)" fill="#5c4a95"/>
      <path id="Path_4096-2" data-name="Path 4096" d="M243.049,538.915a9.44,9.44,0,0,1,3.42-6.2,9.824,9.824,0,0,1,6.732-2.235v-3.747h29.52v3.657c5.561.28,9.037,2.962,10.265,8.529Z" transform="translate(-243.016 -513.798)" fill="#5c4a95"/>
      <path id="Path_4097-2" data-name="Path 4097" d="M292.992,699.118a9.44,9.44,0,0,1-7.209,8.138,10.6,10.6,0,0,1-2.283.267q-15.391.026-30.781,0a9.624,9.624,0,0,1-9.411-7.6,6.649,6.649,0,0,1-.072-.811Z" transform="translate(-243.155 -641.767)" fill="#5c4a95"/>
      <path id="Path_4098-2" data-name="Path 4098" d="M267.019,481.537c0-.941-.026-1.837.006-2.732.055-1.571.744-2.251,2.318-2.253q15.013-.012,30.027,0c1.574,0,2.264.68,2.32,2.251.032.894.006,1.791.006,2.705.356.169.673.288.957.462a1.909,1.909,0,0,1,.929,1.963,1.947,1.947,0,0,1-1.646,1.58,6.993,6.993,0,0,1-1.024.03H267.8c-.257,0-.514.012-.77-.008a1.969,1.969,0,0,1-1.9-1.6,1.937,1.937,0,0,1,1.158-2.076C266.476,481.759,266.677,481.687,267.019,481.537Z" transform="translate(-259.387 -476.547)" fill="#5c4a95"/>
    </g>
  </g>
</svg>
