<svg xmlns="http://www.w3.org/2000/svg" width="142.74" height="110.678" viewBox="0 0 142.74 110.678">
  <g id="Group_1380" data-name="Group 1380" transform="translate(16574.59 -1556.322)">
    <g id="Group_1379" data-name="Group 1379" transform="translate(-16570.811 1561.878)">
      <path id="Path_3776" data-name="Path 3776" d="M728.8,251.736c1.862,9.854,7.856,32.694,16.392,35.691,1.226.409,2.134.5,2.543.182.908-.772.409-4.087,0-6.766-.636-4.178-1.317-8.446.953-10.762,1.135-1.181,2.906-1.635,5.177-1.317a65.513,65.513,0,0,1,10.126,2.27c8.446,2.361,12.669,3.179,15.484-3.678,1.816-4.359-.59-6.448-4.722-9.4-3.633-2.588-8.174-5.767-4.041-12.033,2.5-3.724,2.724-7.311.636-9.9-2.634-3.269-9.854-5.4-21.751-.908A33.007,33.007,0,0,1,728.8,251.736Z" transform="translate(-661.819 -190.253)" fill="#d6ccff"/>
      <path id="Path_3777" data-name="Path 3777" d="M674.806,199.612A30.106,30.106,0,1,0,644.7,169.506,30.116,30.116,0,0,0,674.806,199.612Z" transform="translate(-615.908 -139.4)" fill="#d6ccff"/>
      <path id="Path_3778" data-name="Path 3778" d="M665.529,312.487a45.372,45.372,0,0,0,.091-5.4,9.767,9.767,0,0,1-1.726-.454c-10.807-3.769-16.665-31.287-17.846-37.326a31.239,31.239,0,0,1-5.858.545,32.269,32.269,0,0,1-18.663-5.949c-7.946.136-20.479,4.95-29.652,15.348a42.183,42.183,0,0,0-10.308,33.239Z" transform="translate(-581.292 -207.366)" fill="#d6ccff"/>
      <path id="Path_3779" data-name="Path 3779" d="M824.823,353.7a3.707,3.707,0,0,0-4,3.224,3.01,3.01,0,0,0,.681,2.588,6.176,6.176,0,0,0,4.586,2h0a4.507,4.507,0,0,0,4.269-2.5,2.613,2.613,0,0,0-.182-2.634A6.679,6.679,0,0,0,824.823,353.7Z" transform="translate(-712.024 -256.389)" fill="#d6ccff"/>
      <path id="Path_3780" data-name="Path 3780" d="M867.452,259.6a2.742,2.742,0,0,0-2.815,1.816,6.225,6.225,0,0,0,.273,5.721,4.113,4.113,0,0,0,3.542,1.726,8.993,8.993,0,0,0,4.677-1.589c1.271-.817,1.726-1.771,1.408-2.906C873.9,262.052,870.222,259.6,867.452,259.6Z" transform="translate(-735.672 -205.019)" fill="#d6ccff"/>
    </g>
    <g id="Group_1331" data-name="Group 1331" transform="translate(-16574.59 1556.322)">
      <path id="Path_3776-2" data-name="Path 3776" d="M728.8,251.736c1.862,9.854,7.856,32.694,16.392,35.691,1.226.409,2.134.5,2.543.182.908-.772.409-4.087,0-6.766-.636-4.178-1.317-8.446.953-10.762,1.135-1.181,2.906-1.635,5.177-1.317a65.513,65.513,0,0,1,10.126,2.27c8.446,2.361,12.669,3.179,15.484-3.678,1.816-4.359-.59-6.448-4.722-9.4-3.633-2.588-8.174-5.767-4.041-12.033,2.5-3.724,2.724-7.311.636-9.9-2.634-3.269-9.854-5.4-21.751-.908A33.007,33.007,0,0,1,728.8,251.736Z" transform="translate(-661.819 -190.253)" fill="#5c4897"/>
      <path id="Path_3777-2" data-name="Path 3777" d="M674.806,199.612A30.106,30.106,0,1,0,644.7,169.506,30.116,30.116,0,0,0,674.806,199.612Z" transform="translate(-615.908 -139.4)" fill="#5c4897"/>
      <path id="Path_3778-2" data-name="Path 3778" d="M665.529,312.487a45.372,45.372,0,0,0,.091-5.4,9.767,9.767,0,0,1-1.726-.454c-10.807-3.769-16.665-31.287-17.846-37.326a31.239,31.239,0,0,1-5.858.545,32.269,32.269,0,0,1-18.663-5.949c-7.946.136-20.479,4.95-29.652,15.348a42.183,42.183,0,0,0-10.308,33.239Z" transform="translate(-581.292 -207.366)" fill="#5c4897"/>
      <path id="Path_3779-2" data-name="Path 3779" d="M824.823,353.7a3.707,3.707,0,0,0-4,3.224,3.01,3.01,0,0,0,.681,2.588,6.176,6.176,0,0,0,4.586,2h0a4.507,4.507,0,0,0,4.269-2.5,2.613,2.613,0,0,0-.182-2.634A6.679,6.679,0,0,0,824.823,353.7Z" transform="translate(-712.024 -256.389)" fill="#5c4897"/>
      <path id="Path_3780-2" data-name="Path 3780" d="M867.452,259.6a2.742,2.742,0,0,0-2.815,1.816,6.225,6.225,0,0,0,.273,5.721,4.113,4.113,0,0,0,3.542,1.726,8.993,8.993,0,0,0,4.677-1.589c1.271-.817,1.726-1.771,1.408-2.906C873.9,262.052,870.222,259.6,867.452,259.6Z" transform="translate(-735.672 -205.019)" fill="#5c4897"/>
    </g>
  </g>
</svg>
