<svg xmlns="http://www.w3.org/2000/svg" width="140.883" height="169.204" viewBox="0 0 140.883 169.204">
  <g id="Group_1433" data-name="Group 1433" transform="translate(-9 -8.436)">
    <path id="Path_811" data-name="Path 811" d="M59.662,176.64a1.853,1.853,0,0,1-1.839-1.631L54.09,144.33a5.582,5.582,0,0,0-5.53-4.9H31.95a9.293,9.293,0,0,1-9.286-9.286V108.113a1.863,1.863,0,0,0-1.857-1.857h-5.17a5.573,5.573,0,0,1-4.973-8.082L28.4,63.071a22.613,22.613,0,0,0,1.913-5.824A59.352,59.352,0,0,1,97.751,10.214c29.743,4.609,51.72,30.442,51.119,60.092a36,36,0,0,1-3.439,14.121l-21.468,47.312a20.465,20.465,0,0,0-1.761,10.1l2.671,32.8a1.857,1.857,0,0,1-3.7.3l-2.671-32.8a24.164,24.164,0,0,1,2.08-11.937L142.05,82.894a32.49,32.49,0,0,0,3.105-12.665c.565-27.8-20.057-52.021-47.969-56.345A55.611,55.611,0,0,0,33.952,57.971a26.329,26.329,0,0,1-2.24,6.775L13.981,99.853a1.857,1.857,0,0,0,1.66,2.689h5.17a5.578,5.578,0,0,1,5.571,5.571V130.15a5.578,5.578,0,0,0,5.571,5.571h16.61a9.291,9.291,0,0,1,9.215,8.16l3.733,30.679a1.857,1.857,0,0,1-1.85,2.08Z" transform="translate(0 0)" fill="#5c4897" stroke="#5c4897" stroke-width="2"/>
    <g id="Group_1260" data-name="Group 1260" transform="translate(54.971 29.704)">
      <g id="Ellipse_128" data-name="Ellipse 128" transform="translate(0)" fill="none" stroke="#5c4897" stroke-width="2">
        <circle cx="33.061" cy="33.061" r="33.061" stroke="none"/>
        <circle cx="33.061" cy="33.061" r="32.061" fill="none"/>
      </g>
    </g>
    <g id="Group_1262" data-name="Group 1262" transform="translate(80.686 49.907)">
      <path id="Path_808" data-name="Path 808" d="M18.813,30.77a1.742,1.742,0,0,1-1.194-.459,1.776,1.776,0,0,1-.129-2.516l8.137-8.945L19.18,19.97A1.784,1.784,0,0,1,17.4,17.215L25.48,5.166a1.786,1.786,0,1,1,2.957,2l-5.749,8.577,7.457-1.3A1.787,1.787,0,0,1,31.78,17.4L20.153,30.2A1.894,1.894,0,0,1,18.813,30.77Z" transform="translate(-17.029 -4.384)" fill="#5c4897" stroke="#5c4897" stroke-width="1"/>
    </g>
  </g>
</svg>
