<svg xmlns="http://www.w3.org/2000/svg" width="140.883" height="169.204" viewBox="0 0 140.883 169.204">
  <g id="Group_1432" data-name="Group 1432" transform="translate(-9 -8.436)">
    <path id="Path_811" data-name="Path 811" d="M59.662,176.64a1.853,1.853,0,0,1-1.839-1.631L54.09,144.33a5.582,5.582,0,0,0-5.53-4.9H31.95a9.293,9.293,0,0,1-9.286-9.286V108.113a1.863,1.863,0,0,0-1.857-1.857h-5.17a5.573,5.573,0,0,1-4.973-8.082L28.4,63.071a22.613,22.613,0,0,0,1.913-5.824A59.352,59.352,0,0,1,97.751,10.214c29.743,4.609,51.72,30.442,51.119,60.092a36,36,0,0,1-3.439,14.121l-21.468,47.312a20.466,20.466,0,0,0-1.761,10.1l2.671,32.8a1.857,1.857,0,0,1-3.7.3l-2.671-32.8a24.164,24.164,0,0,1,2.08-11.937L142.05,82.894a32.491,32.491,0,0,0,3.105-12.665c.565-27.8-20.057-52.021-47.969-56.345A55.611,55.611,0,0,0,33.952,57.971a26.329,26.329,0,0,1-2.24,6.775L13.981,99.853a1.857,1.857,0,0,0,1.66,2.689h5.17a5.578,5.578,0,0,1,5.571,5.571V130.15a5.578,5.578,0,0,0,5.571,5.571h16.61a9.291,9.291,0,0,1,9.215,8.16l3.733,30.679a1.857,1.857,0,0,1-1.85,2.08Z" transform="translate(0 0)" fill="#5c4897" stroke="#5c4897" stroke-width="2"/>
    <g id="Group_1260" data-name="Group 1260" transform="translate(55.914 29.237)">
      <g id="Ellipse_128" data-name="Ellipse 128" fill="none" stroke="#5c4897" stroke-width="2">
        <circle cx="32.297" cy="32.297" r="32.297" stroke="none"/>
        <circle cx="32.297" cy="32.297" r="31.297" fill="none"/>
      </g>
      <g id="Ellipse_127" data-name="Ellipse 127" transform="translate(10.766 10.766)" fill="none" stroke="#5c4897" stroke-width="3">
        <circle cx="21.532" cy="21.532" r="21.532" stroke="none"/>
        <circle cx="21.532" cy="21.532" r="20.032" fill="none"/>
      </g>
      <g id="Ellipse_126" data-name="Ellipse 126" transform="translate(19.737 19.737)" fill="none" stroke="#5c4897" stroke-width="2">
        <circle cx="12.56" cy="12.56" r="12.56" stroke="none"/>
        <circle cx="12.56" cy="12.56" r="11.56" fill="none"/>
      </g>
      <g id="Ellipse_125" data-name="Ellipse 125" transform="translate(26.914 26.914)" fill="none" stroke="#5c4897" stroke-width="3">
        <circle cx="5.383" cy="5.383" r="5.383" stroke="none"/>
        <circle cx="5.383" cy="5.383" r="3.883" fill="none"/>
      </g>
    </g>
  </g>
</svg>
